
<svg width="1094px" height="355px" viewBox="0 0 1094 355" version="1.1" xmlns="http://www.w3.org/2000/svg" xmlns:xlink="http://www.w3.org/1999/xlink">
    <defs>
        <polygon id="path-1" points="0 0.313 400 0.313 400 354.9995 0 354.9995"></polygon>
    </defs>
    <g id="Page-1" stroke="none" stroke-width="1" fill="none" fill-rule="evenodd">
        <g id="fluence-web-19-Frederike-Hovers" transform="translate(-93.000000, -1649.000000)">
            <g id="Page-1-Copy" transform="translate(94.000000, 1648.000000)">
                <path d="M1060,180.687 C1060,109.995 1002.692,52.687 932,52.687 C861.308,52.687 804,109.995 804,180.687 C804,220.583 822.255,256.212 850.864,279.687 L1013.136,279.687 C1041.745,256.212 1060,220.583 1060,180.687" id="Fill-1" fill="#2E72FE"></path>
                <path d="M307,180.687 C307,96.74 238.947,28.687 155,28.687 C71.053,28.687 3,96.74 3,180.687 C3,218.032 16.477,252.225 38.82,278.687 L271.18,278.687 C293.523,252.225 307,218.032 307,180.687 Z" id="Stroke-3" stroke="#333333" stroke-width="2" stroke-linecap="round" stroke-linejoin="round" stroke-dasharray="210,131"></path>
                <path d="M779,180.687 C779,96.74 847.053,28.687 931,28.687 C1014.947,28.687 1083,96.74 1083,180.687 C1083,218.032 1069.523,252.225 1047.18,278.687 L814.82,278.687 C792.477,252.225 779,218.032 779,180.687 Z" id="Stroke-5" stroke="#333333" stroke-width="2" stroke-linecap="round" stroke-linejoin="round" stroke-dasharray="120,130"></path>
                <path d="M1006,180.687 C1006,220.452 973.765,252.687 934,252.687 C894.235,252.687 862,220.452 862,180.687 C862,140.922 894.235,108.687 934,108.687 C973.765,108.687 1006,140.922 1006,180.687 Z" id="Stroke-7" stroke="#333333" stroke-width="2" stroke-linecap="round" stroke-linejoin="round" stroke-dasharray="37.701,37.701"></path>
                <path d="M283,181 C283,110.308 225.692,53 155,53 C84.308,53 27,110.308 27,181 C27,220.896 45.255,256.525 73.864,280 L236.136,280 C264.745,256.525 283,220.896 283,181" id="Fill-9" fill="#2E72FE"></path>
                <path d="M177,153.687 L133,153.687 C128.582,153.687 125,157.269 125,161.687 L125,193.687 C125,198.105 128.582,201.687 133,201.687 L177,201.687 C181.418,201.687 185,198.105 185,193.687 L185,161.687 C185,157.269 181.418,153.687 177,153.687 M177,155.687 C180.309,155.687 183,158.378 183,161.687 L183,193.687 C183,196.996 180.309,199.687 177,199.687 L133,199.687 C129.691,199.687 127,196.996 127,193.687 L127,161.687 C127,158.378 129.691,155.687 133,155.687 L177,155.687" id="Fill-11" fill="#333333"></path>
                <path d="M125,163.687 L185,163.687" id="Stroke-13" stroke="#333333" stroke-width="2"></path>
                <path d="M133,175.687 L159,175.687" id="Stroke-15" stroke="#333333" stroke-width="2" stroke-linecap="round" stroke-linejoin="bevel"></path>
                <path d="M165,175.687 L177,175.687" id="Stroke-17" stroke="#333333" stroke-width="2" stroke-linecap="round" stroke-linejoin="bevel"></path>
                <path d="M133,181.687 L159,181.687" id="Stroke-19" stroke="#333333" stroke-width="2" stroke-linecap="round" stroke-linejoin="bevel"></path>
                <path d="M165,181.687 L177,181.687" id="Stroke-21" stroke="#333333" stroke-width="2" stroke-linecap="round" stroke-linejoin="bevel"></path>
                <path d="M133,187.687 L159,187.687" id="Stroke-23" stroke="#333333" stroke-width="2" stroke-linecap="round" stroke-linejoin="bevel"></path>
                <path d="M165,187.687 L177,187.687" id="Stroke-25" stroke="#333333" stroke-width="2" stroke-linecap="round" stroke-linejoin="bevel"></path>
                <path d="M924,160.687 L944,160.687" id="Stroke-29" stroke="#333333" stroke-width="2" stroke-linecap="round" stroke-linejoin="bevel"></path>
                <path d="M928,166.687 L940,166.687" id="Stroke-31" stroke="#333333" stroke-width="2" stroke-linecap="round" stroke-linejoin="bevel"></path>
                <path d="M928,154.687 L940,154.687" id="Stroke-33" stroke="#333333" stroke-width="2" stroke-linecap="round" stroke-linejoin="bevel"></path>
                <path d="M924,193.687 L944,193.687" id="Stroke-35" stroke="#333333" stroke-width="2" stroke-linecap="round" stroke-linejoin="bevel"></path>
                <path d="M928,187.687 L940,187.687" id="Stroke-37" stroke="#333333" stroke-width="2" stroke-linecap="round" stroke-linejoin="bevel"></path>
                <path d="M934,176.687 C941.57,180.052 949,184.851 949,193.687 C949,202.523 942.284,208.687 934,208.687 C925.716,208.687 919,202.523 919,193.687 C919,184.851 926.43,180.052 934,176.687 C943,172.687 949,169.523 949,160.687 C949,151.851 942.284,146.687 934,146.687 C925.716,146.687 919,151.851 919,160.687 C919,167.371 922.433,170.809 927.999,173.818" id="Stroke-39" stroke="#333333" stroke-width="2" stroke-linecap="round" stroke-linejoin="bevel"></path>
                <g id="Group-43" transform="translate(344.000000, 0.687000)">
                    <mask id="mask-2" fill="white">
                        <use xlink:href="#path-1"></use>
                    </mask>
                    <g id="Clip-42"></g>
                    <path d="M400,200.3125 C400,89.8555 310.457,0.3125 200,0.3125 C89.543,0.3125 0,89.8555 0,200.3125 C0,262.6495 28.523,318.3205 73.226,354.9995 L326.774,354.9995 C371.477,318.3205 400,262.6495 400,200.3125" id="Fill-41" fill="#2E72FE" mask="url(#mask-2)"></path>
                </g>
                <path d="M227,181 C227,220.765 194.765,253 155,253 C115.235,253 83,220.765 83,181 C83,141.235 115.235,109 155,109 C194.765,109 227,141.235 227,181 Z" id="Stroke-44" stroke="#333333" stroke-width="2" stroke-linecap="round" stroke-linejoin="round" stroke-dasharray="37.701,37.701"></path>
                <path d="M105,278.687 L105,256.687 C105,244.005 115.317,233.687 128,233.687 L144,233.687 C156.683,233.687 167,244.005 167,256.687 L167,278.687 L105,278.687 Z" id="Fill-48" fill="#FFFFFF"></path>
                <path d="M144,232.687 L128,232.687 C114.745,232.687 104,243.432 104,256.687 L104,279.687 L168,279.687 L168,256.687 C168,243.432 157.255,232.687 144,232.687 M144,234.687 C156.131,234.687 166,244.556 166,256.687 L166,277.687 L106,277.687 L106,256.687 C106,244.556 115.869,234.687 128,234.687 L144,234.687" id="Fill-50" fill="#333333"></path>
                <path d="M136.5,228.687 C126.851,228.687 119,220.836 119,211.187 C119,201.538 126.851,193.687 136.5,193.687 C146.149,193.687 154,201.538 154,211.187 C154,220.836 146.149,228.687 136.5,228.687" id="Fill-52" fill="#FFFFFF"></path>
                <path d="M136.5,192.687 C126.283,192.687 118,200.97 118,211.187 C118,221.404 126.283,229.687 136.5,229.687 C146.717,229.687 155,221.404 155,211.187 C155,200.97 146.717,192.687 136.5,192.687 M136.5,194.687 C145.598,194.687 153,202.089 153,211.187 C153,220.285 145.598,227.687 136.5,227.687 C127.402,227.687 120,220.285 120,211.187 C120,202.089 127.402,194.687 136.5,194.687" id="Fill-54" fill="#333333"></path>
                <polyline id="Stroke-56" stroke="#333333" stroke-width="2" points="130.7305 234.2402 133.4035 242.2602 129.3935 258.2992 136.0765 266.3192 142.7595 258.2992 138.7505 242.2602 141.4225 234.2402"></polyline>
                <g id="Group-61" transform="translate(133.000000, 241.687000)">
                    <path d="M0,0 L6,0" id="Fill-58" fill="#FFFFFF"></path>
                    <path d="M0,0 L6,0" id="Stroke-60" stroke="#333333" stroke-width="2"></path>
                </g>
                <polygon id="Fill-62" fill="#FFFFFF" points="137 278.687 159 278.687 159 268.687 137 268.687"></polygon>
                <path d="M136,279.687 L160,279.687 L160,267.687 L136,267.687 L136,279.687 Z M138,277.687 L158,277.687 L158,269.687 L138,269.687 L138,277.687 Z" id="Fill-64" fill="#333333"></path>
                <path d="M158.25,278.687 L158.25,223.687 C158.25,219.827 161.391,216.687 165.25,216.687 L244.25,216.687 C248.109,216.687 251.25,219.827 251.25,223.687 L251.25,271.687 C251.25,275.547 248.109,278.687 244.25,278.687 L158.25,278.687 Z" id="Fill-65" fill="#FFFFFF"></path>
                <path d="M244.25,215.687 L165.25,215.687 C160.832,215.687 157.25,219.269 157.25,223.687 L157.25,279.687 L244.25,279.687 C248.668,279.687 252.25,276.105 252.25,271.687 L252.25,223.687 C252.25,219.269 248.668,215.687 244.25,215.687 M244.25,217.687 C247.559,217.687 250.25,220.378 250.25,223.687 L250.25,271.687 C250.25,274.996 247.559,277.687 244.25,277.687 L159.25,277.687 L159.25,223.687 C159.25,220.378 161.941,217.687 165.25,217.687 L244.25,217.687" id="Fill-66" fill="#333333"></path>
                <path d="M204.75,255.687 C200.891,255.687 197.75,252.547 197.75,248.687 C197.75,244.827 200.891,241.687 204.75,241.687 C208.609,241.687 211.75,244.827 211.75,248.687 C211.75,252.547 208.609,255.687 204.75,255.687" id="Fill-67" fill="#FFFFFF"></path>
                <path d="M204.75,240.687 C200.332,240.687 196.75,244.269 196.75,248.687 C196.75,253.105 200.332,256.687 204.75,256.687 C209.168,256.687 212.75,253.105 212.75,248.687 C212.75,244.269 209.168,240.687 204.75,240.687 M204.75,242.687 C208.059,242.687 210.75,245.378 210.75,248.687 C210.75,251.996 208.059,254.687 204.75,254.687 C201.441,254.687 198.75,251.996 198.75,248.687 C198.75,245.378 201.441,242.687 204.75,242.687" id="Fill-68" fill="#333333"></path>
                <path d="M912,278.687 L912,256.687 C912,244.005 922.317,233.687 935,233.687 L951,233.687 C963.683,233.687 974,244.005 974,256.687 L974,278.687 L912,278.687 Z" id="Fill-69" fill="#FFFFFF"></path>
                <path d="M951,232.687 L935,232.687 C921.745,232.687 911,243.432 911,256.687 L911,279.687 L975,279.687 L975,256.687 C975,243.432 964.255,232.687 951,232.687 M951,234.687 C963.131,234.687 973,244.556 973,256.687 L973,277.687 L913,277.687 L913,256.687 C913,244.556 922.869,234.687 935,234.687 L951,234.687" id="Fill-70" fill="#333333"></path>
                <path d="M942.5,228.687 C932.851,228.687 925,220.836 925,211.187 C925,201.538 932.851,193.687 942.5,193.687 C952.149,193.687 960,201.538 960,211.187 C960,220.836 952.149,228.687 942.5,228.687" id="Fill-71" fill="#FFFFFF"></path>
                <path d="M942.5,192.687 C932.283,192.687 924,200.97 924,211.187 C924,221.404 932.283,229.687 942.5,229.687 C952.717,229.687 961,221.404 961,211.187 C961,200.97 952.717,192.687 942.5,192.687 M942.5,194.687 C951.598,194.687 959,202.089 959,211.187 C959,220.285 951.598,227.687 942.5,227.687 C933.402,227.687 926,220.285 926,211.187 C926,202.089 933.402,194.687 942.5,194.687" id="Fill-72" fill="#333333"></path>
                <polyline id="Stroke-73" stroke="#333333" stroke-width="2" points="932 233.8872 943 256.4872 954 233.8872"></polyline>
                <path d="M953,258.687 L963,258.687" id="Stroke-74" stroke="#333333" stroke-width="2" stroke-linecap="round" stroke-linejoin="bevel"></path>
                <path d="M809,258.687 C807.346,258.687 806,257.341 806,255.687 L806,199.687 C806,198.033 807.346,196.687 809,196.687 L897,196.687 C898.654,196.687 900,198.033 900,199.687 L900,255.687 C900,257.341 898.654,258.687 897,258.687 L809,258.687 Z" id="Fill-75" fill="#FFFFFF"></path>
                <path d="M897,195.687 L809,195.687 C806.791,195.687 805,197.478 805,199.687 L805,255.687 C805,257.896 806.791,259.687 809,259.687 L897,259.687 C899.209,259.687 901,257.896 901,255.687 L901,199.687 C901,197.478 899.209,195.687 897,195.687 M897,197.687 C898.104,197.687 899,198.584 899,199.687 L899,255.687 C899,256.79 898.104,257.687 897,257.687 L809,257.687 C807.897,257.687 807,256.79 807,255.687 L807,199.687 C807,198.584 807.897,197.687 809,197.687 L897,197.687" id="Fill-76" fill="#333333"></path>
                <polygon id="Fill-77" fill="#FFFFFF" points="845 278.687 859 278.687 859 226.687 845 226.687"></polygon>
                <path d="M844,279.687 L860,279.687 L860,225.687 L844,225.687 L844,279.687 Z M846,277.687 L858,277.687 L858,227.687 L846,227.687 L846,277.687 Z" id="Fill-78" fill="#333333"></path>
                <polygon id="Fill-79" fill="#FFFFFF" points="837 278.687 867 278.687 867 268.687 837 268.687"></polygon>
                <path d="M836,279.687 L868,279.687 L868,267.687 L836,267.687 L836,279.687 Z M838,277.687 L866,277.687 L866,269.687 L838,269.687 L838,277.687 Z" id="Fill-80" fill="#333333"></path>
                <polygon id="Fill-81" fill="#FFFFFF" points="876 278.687 906 278.687 906 268.687 876 268.687"></polygon>
                <path d="M875,279.687 L907,279.687 L907,267.687 L875,267.687 L875,279.687 Z M877,277.687 L905,277.687 L905,269.687 L877,269.687 L877,277.687 Z" id="Fill-82" fill="#333333"></path>
                <polygon id="Fill-83" fill="#FFFFFF" points="896 278.687 926 278.687 926 268.687 896 268.687"></polygon>
                <path d="M895,279.687 L927,279.687 L927,267.687 L895,267.687 L895,279.687 Z M897,277.687 L925,277.687 L925,269.687 L897,269.687 L897,277.687 Z" id="Fill-84" fill="#333333"></path>
                <path d="M26,253.687 C22.141,253.687 19,250.547 19,246.687 L19,214.687 C19,210.827 22.141,207.687 26,207.687 L70,207.687 C73.859,207.687 77,210.827 77,214.687 L77,246.687 C77,250.547 73.859,253.687 70,253.687 L26,253.687 Z" id="Fill-85" fill="#FFFFFF"></path>
                <path d="M70,206.687 L26,206.687 C21.582,206.687 18,210.269 18,214.687 L18,246.687 C18,251.105 21.582,254.687 26,254.687 L70,254.687 C74.418,254.687 78,251.105 78,246.687 L78,214.687 C78,210.269 74.418,206.687 70,206.687 M70,208.687 C73.309,208.687 76,211.378 76,214.687 L76,246.687 C76,249.996 73.309,252.687 70,252.687 L26,252.687 C22.691,252.687 20,249.996 20,246.687 L20,214.687 C20,211.378 22.691,208.687 26,208.687 L70,208.687" id="Fill-86" fill="#333333"></path>
                <path d="M18,216.687 L78,216.687" id="Stroke-87" stroke="#333333" stroke-width="2"></path>
                <path d="M26,228.687 L52,228.687" id="Stroke-88" stroke="#333333" stroke-width="2" stroke-linecap="round" stroke-linejoin="bevel"></path>
                <path d="M58,228.687 L70,228.687" id="Stroke-89" stroke="#333333" stroke-width="2" stroke-linecap="round" stroke-linejoin="bevel"></path>
                <path d="M26,234.687 L52,234.687" id="Stroke-90" stroke="#333333" stroke-width="2" stroke-linecap="round" stroke-linejoin="bevel"></path>
                <path d="M58,234.687 L70,234.687" id="Stroke-91" stroke="#333333" stroke-width="2" stroke-linecap="round" stroke-linejoin="bevel"></path>
                <path d="M26,240.687 L52,240.687" id="Stroke-92" stroke="#333333" stroke-width="2" stroke-linecap="round" stroke-linejoin="bevel"></path>
                <path d="M58,240.687 L70,240.687" id="Stroke-93" stroke="#333333" stroke-width="2" stroke-linecap="round" stroke-linejoin="bevel"></path>
                <path d="M95,88.687 C91.141,88.687 88,85.547 88,81.687 L88,49.687 C88,45.827 91.141,42.687 95,42.687 L139,42.687 C142.859,42.687 146,45.827 146,49.687 L146,81.687 C146,85.547 142.859,88.687 139,88.687 L95,88.687 Z" id="Fill-94" fill="#FFFFFF"></path>
                <path d="M139,41.687 L95,41.687 C90.582,41.687 87,45.269 87,49.687 L87,81.687 C87,86.105 90.582,89.687 95,89.687 L139,89.687 C143.418,89.687 147,86.105 147,81.687 L147,49.687 C147,45.269 143.418,41.687 139,41.687 M139,43.687 C142.309,43.687 145,46.378 145,49.687 L145,81.687 C145,84.996 142.309,87.687 139,87.687 L95,87.687 C91.691,87.687 89,84.996 89,81.687 L89,49.687 C89,46.378 91.691,43.687 95,43.687 L139,43.687" id="Fill-95" fill="#333333"></path>
                <path d="M87,51.687 L147,51.687" id="Stroke-96" stroke="#333333" stroke-width="2"></path>
                <path d="M95,63.687 L121,63.687" id="Stroke-97" stroke="#333333" stroke-width="2" stroke-linecap="round" stroke-linejoin="bevel"></path>
                <path d="M127,63.687 L139,63.687" id="Stroke-98" stroke="#333333" stroke-width="2" stroke-linecap="round" stroke-linejoin="bevel"></path>
                <path d="M95,69.687 L121,69.687" id="Stroke-99" stroke="#333333" stroke-width="2" stroke-linecap="round" stroke-linejoin="bevel"></path>
                <path d="M127,69.687 L139,69.687" id="Stroke-100" stroke="#333333" stroke-width="2" stroke-linecap="round" stroke-linejoin="bevel"></path>
                <path d="M95,75.687 L121,75.687" id="Stroke-101" stroke="#333333" stroke-width="2" stroke-linecap="round" stroke-linejoin="bevel"></path>
                <path d="M127,75.687 L139,75.687" id="Stroke-102" stroke="#333333" stroke-width="2" stroke-linecap="round" stroke-linejoin="bevel"></path>
                <polygon id="Fill-103" fill="#FFFFFF" points="215 169.687 215 91.687 255.984 91.687 266 101.766 266 169.687"></polygon>
                <path d="M256.4004,90.687 L214.0004,90.687 L214.0004,170.687 L267.0004,170.687 L267.0004,101.354 L256.4004,90.687 Z M255.5684,92.687 L265.0004,102.178 L265.0004,168.687 L216.0004,168.687 L216.0004,92.687 L255.5684,92.687 Z" id="Fill-104" fill="#333333"></path>
                <g id="Group-107" transform="translate(255.000000, 91.687000)">
                    <polyline id="Fill-105" fill="#FFFFFF" points="0 0 0 11 11 11"></polyline>
                    <polyline id="Stroke-106" stroke="#333333" stroke-width="2" stroke-linecap="round" stroke-linejoin="round" points="0 0 0 11 11 11"></polyline>
                </g>
                <path d="M254,125.687 L230,125.687 L230,143.687 C230,145.896 231.791,147.687 234,147.687 L250,147.687 C252.209,147.687 254,145.896 254,143.687 L254,125.687 Z M252,127.687 L252,143.687 C252,144.79 251.103,145.687 250,145.687 L234,145.687 C232.897,145.687 232,144.79 232,143.687 L232,127.687 L252,127.687 Z" id="Fill-108" fill="#333333"></path>
                <path d="M242,115.687 C238.687,115.687 236,118.374 236,121.687 L236,127.687 L248,127.687 L248,121.687 C248,118.374 245.313,115.687 242,115.687 M242,117.687 C244.205,117.687 246,119.481 246,121.687 L246,125.687 L238,125.687 L238,121.687 C238,119.481 239.795,117.687 242,117.687" id="Fill-109" fill="#333333"></path>
                <path d="M242,130.687 L242,134.687" id="Stroke-110" stroke="#333333" stroke-width="2" stroke-linecap="round" stroke-linejoin="bevel"></path>
                <path d="M242,134.687 C239.791,134.687 238,136.478 238,138.687 C238,140.896 239.791,142.687 242,142.687 C244.209,142.687 246,140.896 246,138.687 C246,136.478 244.209,134.687 242,134.687 M242,136.687 C243.103,136.687 244,137.584 244,138.687 C244,139.79 243.103,140.687 242,140.687 C240.897,140.687 240,139.79 240,138.687 C240,137.584 240.897,136.687 242,136.687" id="Fill-111" fill="#333333"></path>
                <polygon id="Fill-112" fill="#2E72FE" points="152 93.687 173 93.687 173 72.687 152 72.687"></polygon>
                <polygon id="Fill-114" fill="#2E72FE" points="107 127.687 128 127.687 128 106.687 107 106.687"></polygon>
                <polygon id="Stroke-115" stroke="#333333" stroke-width="2" points="107 127.687 128 127.687 128 106.687 107 106.687"></polygon>
                <polygon id="Fill-116" fill="#2E72FE" points="72 191.687 93 191.687 93 170.687 72 170.687"></polygon>
                <polygon id="Stroke-117" stroke="#333333" stroke-width="2" points="72 191.687 93 191.687 93 170.687 72 170.687"></polygon>
                <polygon id="Fill-118" fill="#2E72FE" points="60 140.687 81 140.687 81 119.687 60 119.687"></polygon>
                <polygon id="Fill-120" fill="#2E72FE" points="214 198.687 235 198.687 235 177.687 214 177.687"></polygon>
                <polygon id="Stroke-121" stroke="#333333" stroke-width="2" points="214 198.687 235 198.687 235 177.687 214 177.687"></polygon>
                <polygon id="Fill-122" fill="#2E72FE" points="176 128.687 197 128.687 197 107.687 176 107.687"></polygon>
                <polygon id="Stroke-123" stroke="#333333" stroke-width="2" points="176 128.687 197 128.687 197 107.687 176 107.687"></polygon>
                <polygon id="Fill-124" fill="#2E72FE" points="886 127.687 907 127.687 907 106.687 886 106.687"></polygon>
                <polygon id="Stroke-125" stroke="#333333" stroke-width="2" points="886 127.687 907 127.687 907 106.687 886 106.687"></polygon>
                <polygon id="Fill-126" fill="#2E72FE" points="851 191.687 872 191.687 872 170.687 851 170.687"></polygon>
                <polygon id="Stroke-127" stroke="#333333" stroke-width="2" points="851 191.687 872 191.687 872 170.687 851 170.687"></polygon>
                <polygon id="Fill-128" fill="#2E72FE" points="993 198.687 1014 198.687 1014 177.687 993 177.687"></polygon>
                <polygon id="Stroke-129" stroke="#333333" stroke-width="2" points="993 198.687 1014 198.687 1014 177.687 993 177.687"></polygon>
                <polygon id="Fill-130" fill="#2E72FE" points="955 128.687 976 128.687 976 107.687 955 107.687"></polygon>
                <polygon id="Stroke-131" stroke="#333333" stroke-width="2" points="955 128.687 976 128.687 976 107.687 955 107.687"></polygon>
                <polygon id="Fill-132" fill="#FFFFFF" points="290 224.687 311 224.687 311 203.687 290 203.687"></polygon>
                <polygon id="Stroke-133" stroke="#231F20" stroke-width="2" points="290 224.687 311 224.687 311 203.687 290 203.687"></polygon>
                <polygon id="Fill-134" fill="#FFFFFF" points="769 190.687 790 190.687 790 169.687 769 169.687"></polygon>
                <polygon id="Stroke-135" stroke="#231F20" stroke-width="2" points="769 190.687 790 190.687 790 169.687 769 169.687"></polygon>
                <polygon id="Fill-136" fill="#FFFFFF" points="932 39.687 953 39.687 953 18.687 932 18.687"></polygon>
                <polygon id="Stroke-137" stroke="#231F20" stroke-width="2" points="932 39.687 953 39.687 953 18.687 932 18.687"></polygon>
                <polygon id="Fill-138" fill="#FFFFFF" points="1071 214.687 1092 214.687 1092 193.687 1071 193.687"></polygon>
                <polygon id="Stroke-139" stroke="#231F20" stroke-width="2" points="1071 214.687 1092 214.687 1092 193.687 1071 193.687"></polygon>
                <polygon id="Fill-140" fill="#FFFFFF" points="173 42.687 194 42.687 194 21.687 173 21.687"></polygon>
                <polygon id="Stroke-141" stroke="#231F20" stroke-width="2" points="173 42.687 194 42.687 194 21.687 173 21.687"></polygon>
                <polygon id="Fill-142" fill="#FFFFFF" points="0 146.687 21 146.687 21 125.687 0 125.687"></polygon>
                <polygon id="Stroke-143" stroke="#231F20" stroke-width="2" points="0 146.687 21 146.687 21 125.687 0 125.687"></polygon>
                <path d="M130,278.687 L30,278.687" id="Stroke-144" stroke="#333333" stroke-width="2" stroke-linecap="round"></path>
                <path d="M173,299.687 L73,299.687" id="Stroke-145" stroke="#333333" stroke-width="2" stroke-linecap="round"></path>
                <path d="M260,323.687 L160,323.687" id="Stroke-146" stroke="#333333" stroke-width="2" stroke-linecap="round"></path>
                <path d="M131,323.687 L31,323.687" id="Stroke-147" stroke="#333333" stroke-width="2" stroke-linecap="round"></path>
                <path d="M55,299.687 L39,299.687" id="Stroke-148" stroke="#333333" stroke-width="2" stroke-linecap="round"></path>
                <path d="M300,299.687 L200,299.687" id="Stroke-149" stroke="#333333" stroke-width="2" stroke-linecap="round"></path>
                <path d="M340,278.687 L240,278.687" id="Stroke-150" stroke="#333333" stroke-width="2" stroke-linecap="round"></path>
                <path d="M1079,278.687 L745,278.687" id="Stroke-151" stroke="#333333" stroke-width="2" stroke-linecap="round"></path>
                <polygon id="Fill-152" fill="#FFFFFF" points="289 309.687 310 309.687 310 288.687 289 288.687"></polygon>
                <polygon id="Stroke-153" stroke="#231F20" stroke-width="2" points="289 309.687 310 309.687 310 288.687 289 288.687"></polygon>
                <path d="M800,299.687 L700,299.687" id="Stroke-154" stroke="#333333" stroke-width="2" stroke-linecap="round"></path>
                <polygon id="Fill-155" fill="#FFFFFF" points="789 309.687 810 309.687 810 288.687 789 288.687"></polygon>
                <polygon id="Stroke-156" stroke="#231F20" stroke-width="2" points="789 309.687 810 309.687 810 288.687 789 288.687"></polygon>
                <polygon id="Fill-157" fill="#FFFFFF" points="162 309.687 183 309.687 183 288.687 162 288.687"></polygon>
                <polygon id="Stroke-158" stroke="#231F20" stroke-width="2" points="162 309.687 183 309.687 183 288.687 162 288.687"></polygon>
                <polygon id="Fill-159" fill="#FFFFFF" points="250 334.687 271 334.687 271 313.687 250 313.687"></polygon>
                <polygon id="Stroke-160" stroke="#231F20" stroke-width="2" points="250 334.687 271 334.687 271 313.687 250 313.687"></polygon>
                <path d="M760,323.687 L660,323.687" id="Stroke-161" stroke="#333333" stroke-width="2" stroke-linecap="round"></path>
                <polygon id="Fill-162" fill="#FFFFFF" points="750 334.687 771 334.687 771 313.687 750 313.687"></polygon>
                <polygon id="Stroke-163" stroke="#231F20" stroke-width="2" points="750 334.687 771 334.687 771 313.687 750 313.687"></polygon>
                <polygon id="Fill-164" fill="#FFFFFF" points="120 334.687 141 334.687 141 313.687 120 313.687"></polygon>
                <polygon id="Stroke-165" stroke="#231F20" stroke-width="2" points="120 334.687 141 334.687 141 313.687 120 313.687"></polygon>
                <path d="M927,299.687 L827,299.687" id="Stroke-166" stroke="#333333" stroke-width="2" stroke-linecap="round"></path>
                <path d="M1013,323.687 L913,323.687" id="Stroke-167" stroke="#333333" stroke-width="2" stroke-linecap="round"></path>
                <path d="M885,323.687 L785,323.687" id="Stroke-168" stroke="#333333" stroke-width="2" stroke-linecap="round"></path>
                <path d="M1053,299.687 L953,299.687" id="Stroke-169" stroke="#333333" stroke-width="2" stroke-linecap="round"></path>
                <polygon id="Fill-170" fill="#FFFFFF" points="1032 309.687 1053 309.687 1053 288.687 1032 288.687"></polygon>
                <polygon id="Stroke-171" stroke="#231F20" stroke-width="2" points="1032 309.687 1053 309.687 1053 288.687 1032 288.687"></polygon>
                <polygon id="Fill-172" fill="#FFFFFF" points="916 309.687 937 309.687 937 288.687 916 288.687"></polygon>
                <polygon id="Stroke-173" stroke="#231F20" stroke-width="2" points="916 309.687 937 309.687 937 288.687 916 288.687"></polygon>
                <polygon id="Fill-174" fill="#FFFFFF" points="916 309.687 937 309.687 937 288.687 916 288.687"></polygon>
                <polygon id="Stroke-175" stroke="#231F20" stroke-width="2" points="916 309.687 937 309.687 937 288.687 916 288.687"></polygon>
                <polygon id="Fill-176" fill="#FFFFFF" points="1003 334.687 1024 334.687 1024 313.687 1003 313.687"></polygon>
                <polygon id="Stroke-177" stroke="#231F20" stroke-width="2" points="1003 334.687 1024 334.687 1024 313.687 1003 313.687"></polygon>
                <polygon id="Fill-178" fill="#FFFFFF" points="874 334.687 895 334.687 895 313.687 874 313.687"></polygon>
                <polygon id="Stroke-179" stroke="#231F20" stroke-width="2" points="874 334.687 895 334.687 895 313.687 874 313.687"></polygon>
                <path d="M461,299.687 L331,299.687" id="Stroke-180" stroke="#333333" stroke-width="2" stroke-linecap="round"></path>
                <polygon id="Fill-181" fill="#2E72FE" points="451 310.687 472 310.687 472 289.687 451 289.687"></polygon>
                <polygon id="Stroke-182" stroke="#333333" stroke-width="2" points="451 310.687 472 310.687 472 289.687 451 289.687"></polygon>
                <path d="M509,278.687 L379,278.687" id="Stroke-183" stroke="#333333" stroke-width="2" stroke-linecap="round"></path>
                <path d="M682,193.9761 C682,117.7611 620.215,55.9761 544,55.9761 C467.785,55.9761 406,117.7611 406,193.9761 C406,236.9891 425.681,275.4021 456.525,300.7101 L631.475,300.7101 C662.319,275.4021 682,236.9891 682,193.9761 Z" id="Stroke-184" stroke="#333333" stroke-width="2" stroke-linecap="round" stroke-linejoin="round" stroke-dasharray="210,410"></path>
                <path d="M655.2598,190.9468 C655.2598,129.4998 605.4468,79.6868 543.9998,79.6868 C482.5528,79.6868 432.7398,129.4998 432.7398,190.9468 C432.7398,225.6248 448.6078,256.5948 473.4758,276.9998 L614.5248,276.9998 C639.3928,256.5948 655.2598,225.6248 655.2598,190.9468 Z" id="Stroke-185" stroke="#333333" stroke-width="2" stroke-linecap="round" stroke-linejoin="round" stroke-dasharray="210,410"></path>
                <polygon id="Fill-187" fill="#2E72FE" points="669 227.687 690 227.687 690 206.687 669 206.687"></polygon>
                <polygon id="Stroke-188" stroke="#333333" stroke-width="2" points="669 227.687 690 227.687 690 206.687 669 206.687"></polygon>
                <polygon id="Fill-189" fill="#2E72FE" points="583 48.687 604 48.687 604 27.687 583 27.687"></polygon>
                <polygon id="Fill-191" fill="#2E72FE" points="540 66.687 561 66.687 561 45.687 540 45.687"></polygon>
                <polygon id="Stroke-192" stroke="#333333" stroke-width="2" points="540 66.687 561 66.687 561 45.687 540 45.687"></polygon>
                <polygon id="Fill-193" fill="#2E72FE" points="620 335.687 641 335.687 641 314.687 620 314.687"></polygon>
                <polygon id="Stroke-194" stroke="#333333" stroke-width="2" points="620 335.687 641 335.687 641 314.687 620 314.687"></polygon>
                <polygon id="Fill-195" fill="#FFFFFF" points="542 278.687 613 278.687 613 129.687 542 129.687"></polygon>
                <path d="M541,279.687 L614,279.687 L614,128.687 L541,128.687 L541,279.687 Z M543,277.687 L612,277.687 L612,130.687 L543,130.687 L543,277.687 Z" id="Fill-196" fill="#333333"></path>
                <path d="M548,192.687 L607,192.687 L607,176.687 L548,176.687 L548,192.687 Z M550,190.687 L605,190.687 L605,178.687 L550,178.687 L550,190.687 Z" id="Fill-197" fill="#333333"></path>
                <path d="M548,171.687 L607,171.687 L607,155.687 L548,155.687 L548,171.687 Z M550,169.687 L605,169.687 L605,157.687 L550,157.687 L550,169.687 Z" id="Fill-198" fill="#333333"></path>
                <path d="M548,151.687 L607,151.687 L607,135.687 L548,135.687 L548,151.687 Z M550,149.687 L605,149.687 L605,137.687 L550,137.687 L550,149.687 Z" id="Fill-199" fill="#333333"></path>
                <path d="M548,213.687 L607,213.687 L607,197.687 L548,197.687 L548,213.687 Z M550,211.687 L605,211.687 L605,199.687 L550,199.687 L550,211.687 Z" id="Fill-200" fill="#333333"></path>
                <path d="M548,233.687 L607,233.687 L607,217.687 L548,217.687 L548,233.687 Z M550,231.687 L605,231.687 L605,219.687 L550,219.687 L550,231.687 Z" id="Fill-201" fill="#333333"></path>
                <path d="M580,143.687 L556,143.687" id="Stroke-202" stroke="#333333" stroke-width="2" stroke-linecap="round"></path>
                <path d="M580,163.687 L556,163.687" id="Stroke-203" stroke="#333333" stroke-width="2" stroke-linecap="round"></path>
                <path d="M580,184.687 L556,184.687" id="Stroke-204" stroke="#333333" stroke-width="2" stroke-linecap="round"></path>
                <path d="M580,205.687 L556,205.687" id="Stroke-205" stroke="#333333" stroke-width="2" stroke-linecap="round"></path>
                <path d="M580,225.687 L556,225.687" id="Stroke-206" stroke="#333333" stroke-width="2" stroke-linecap="round"></path>
                <path d="M548,254.687 L607,254.687 L607,238.687 L548,238.687 L548,254.687 Z M550,252.687 L605,252.687 L605,240.687 L550,240.687 L550,252.687 Z" id="Fill-207" fill="#333333"></path>
                <path d="M580,246.687 L556,246.687" id="Stroke-208" stroke="#333333" stroke-width="2" stroke-linecap="round"></path>
                <polygon id="Fill-209" fill="#FFFFFF" points="449 203.687 533 203.687 533 192.687 449 192.687"></polygon>
                <path d="M448,204.687 L534,204.687 L534,191.687 L448,191.687 L448,204.687 Z M450,202.687 L532,202.687 L532,193.687 L450,193.687 L450,202.687 Z" id="Fill-210" fill="#333333"></path>
                <path d="M449,184.687 L449,180.687 C449,176.827 452.141,173.687 456,173.687 L526,173.687 C529.859,173.687 533,176.827 533,180.687 L533,184.687 L449,184.687 Z" id="Fill-211" fill="#FFFFFF"></path>
                <path d="M526,172.687 L456,172.687 C451.582,172.687 448,176.269 448,180.687 L448,185.687 L534,185.687 L534,180.687 C534,176.269 530.418,172.687 526,172.687 M526,174.687 C529.309,174.687 532,177.378 532,180.687 L532,183.687 L450,183.687 L450,180.687 C450,177.378 452.691,174.687 456,174.687 L526,174.687" id="Fill-212" fill="#333333"></path>
                <path d="M456,278.687 C452.141,278.687 449,275.547 449,271.687 L449,267.687 L533,267.687 L533,271.687 C533,275.547 529.859,278.687 526,278.687 L456,278.687 Z" id="Fill-213" fill="#FFFFFF"></path>
                <path d="M534,266.687 L448,266.687 L448,271.687 C448,276.105 451.582,279.687 456,279.687 L526,279.687 C530.418,279.687 534,276.105 534,271.687 L534,266.687 Z M532,268.687 L532,271.687 C532,274.996 529.309,277.687 526,277.687 L456,277.687 C452.691,277.687 450,274.996 450,271.687 L450,268.687 L532,268.687 Z" id="Fill-214" fill="#333333"></path>
                <polygon id="Fill-215" fill="#FFFFFF" points="460 192.687 522 192.687 522 184.687 460 184.687"></polygon>
                <path d="M459,193.687 L523,193.687 L523,183.687 L459,183.687 L459,193.687 Z M461,191.687 L521,191.687 L521,185.687 L461,185.687 L461,191.687 Z" id="Fill-216" fill="#333333"></path>
                <polygon id="Fill-217" fill="#FFFFFF" points="449 222.687 533 222.687 533 211.687 449 211.687"></polygon>
                <path d="M448,223.687 L534,223.687 L534,210.687 L448,210.687 L448,223.687 Z M450,221.687 L532,221.687 L532,212.687 L450,212.687 L450,221.687 Z" id="Fill-218" fill="#333333"></path>
                <polygon id="Fill-219" fill="#FFFFFF" points="460 211.687 522 211.687 522 203.687 460 203.687"></polygon>
                <path d="M459,212.687 L523,212.687 L523,202.687 L459,202.687 L459,212.687 Z M461,210.687 L521,210.687 L521,204.687 L461,204.687 L461,210.687 Z" id="Fill-220" fill="#333333"></path>
                <polygon id="Fill-221" fill="#FFFFFF" points="449 240.687 533 240.687 533 229.687 449 229.687"></polygon>
                <path d="M448,241.687 L534,241.687 L534,228.687 L448,228.687 L448,241.687 Z M450,239.687 L532,239.687 L532,230.687 L450,230.687 L450,239.687 Z" id="Fill-222" fill="#333333"></path>
                <polygon id="Fill-223" fill="#FFFFFF" points="460 229.687 522 229.687 522 222.687 460 222.687"></polygon>
                <path d="M459,230.687 L523,230.687 L523,221.687 L459,221.687 L459,230.687 Z M461,228.687 L521,228.687 L521,223.687 L461,223.687 L461,228.687 Z" id="Fill-224" fill="#333333"></path>
                <polygon id="Fill-225" fill="#FFFFFF" points="449 259.687 533 259.687 533 248.687 449 248.687"></polygon>
                <path d="M448,260.687 L534,260.687 L534,247.687 L448,247.687 L448,260.687 Z M450,258.687 L532,258.687 L532,249.687 L450,249.687 L450,258.687 Z" id="Fill-226" fill="#333333"></path>
                <polygon id="Fill-227" fill="#FFFFFF" points="460 248.687 522 248.687 522 240.687 460 240.687"></polygon>
                <path d="M459,249.687 L523,249.687 L523,239.687 L459,239.687 L459,249.687 Z M461,247.687 L521,247.687 L521,241.687 L461,241.687 L461,247.687 Z" id="Fill-228" fill="#333333"></path>
                <polygon id="Fill-229" fill="#FFFFFF" points="460 267.687 522 267.687 522 259.687 460 259.687"></polygon>
                <path d="M459,268.687 L523,268.687 L523,258.687 L459,258.687 L459,268.687 Z M461,266.687 L521,266.687 L521,260.687 L461,260.687 L461,266.687 Z" id="Fill-230" fill="#333333"></path>
                <path d="M441,24.687 L406,24.687 C403.791,24.687 402,26.478 402,28.687 L402,84.687 C402,86.896 403.791,88.687 406,88.687 L441,88.687 C443.209,88.687 445,86.896 445,84.687 L445,28.687 C445,26.478 443.209,24.687 441,24.687" id="Fill-231" fill="#FFFFFF"></path>
                <path d="M441,24.687 L406,24.687 C403.791,24.687 402,26.478 402,28.687 L402,84.687 C402,86.896 403.791,88.687 406,88.687 L441,88.687 C443.209,88.687 445,86.896 445,84.687 L445,28.687 C445,26.478 443.209,24.687 441,24.687 Z" id="Stroke-232" stroke="#333333" stroke-width="2" stroke-linecap="round"></path>
                <g id="Group-235" transform="translate(362.000000, 59.687000)">
                    <path d="M53.2305,10.6724 C54.3465,10.4264 55.5025,10.2874 56.6935,10.2874 C65.5515,10.2874 72.7325,17.4684 72.7325,26.3264 C72.7325,27.2394 72.6385,28.1294 72.4925,29.0004 L0.6485,29.0004 C0.5935,28.5614 0.5555,28.1174 0.5555,27.6634 C0.5555,21.7574 5.3425,16.9704 11.2485,16.9704 C12.3795,16.9704 13.4695,17.1494 14.4925,17.4754 C16.6895,8.0004 25.1645,0.9314 35.3075,0.9314 C42.8205,0.9314 49.4165,4.8134 53.2305,10.6724 C54.5025,12.6264 55.4525,14.8024 56.0325,17.1284" id="Fill-233" fill="#FFFFFF"></path>
                    <path d="M53.2305,10.6724 C54.3465,10.4264 55.5025,10.2874 56.6935,10.2874 C65.5515,10.2874 72.7325,17.4684 72.7325,26.3264 C72.7325,27.2394 72.6385,28.1294 72.4925,29.0004 L0.6485,29.0004 C0.5935,28.5614 0.5555,28.1174 0.5555,27.6634 C0.5555,21.7574 5.3425,16.9704 11.2485,16.9704 C12.3795,16.9704 13.4695,17.1494 14.4925,17.4754 C16.6895,8.0004 25.1645,0.9314 35.3075,0.9314 C42.8205,0.9314 49.4165,4.8134 53.2305,10.6724 C54.5025,12.6264 55.4525,14.8024 56.0325,17.1284" id="Stroke-234" stroke="#333333" stroke-width="2" stroke-linecap="round"></path>
                </g>
                <path d="M413,33.687 L413,56.687" id="Stroke-237" stroke="#333333" stroke-width="2" stroke-linecap="round"></path>
                <path d="M423,33.687 L423,60.687" id="Stroke-238" stroke="#333333" stroke-width="2" stroke-linecap="round"></path>
                <path d="M433,33.687 L433,66.687" id="Stroke-239" stroke="#333333" stroke-width="2" stroke-linecap="round"></path>
                <path d="M411,160.687 L376,160.687 C373.791,160.687 372,162.478 372,164.687 L372,220.687 C372,222.896 373.791,224.687 376,224.687 L411,224.687 C413.209,224.687 415,222.896 415,220.687 L415,164.687 C415,162.478 413.209,160.687 411,160.687" id="Fill-240" fill="#FFFFFF"></path>
                <path d="M411,160.687 L376,160.687 C373.791,160.687 372,162.478 372,164.687 L372,220.687 C372,222.896 373.791,224.687 376,224.687 L411,224.687 C413.209,224.687 415,222.896 415,220.687 L415,164.687 C415,162.478 413.209,160.687 411,160.687 Z" id="Stroke-241" stroke="#333333" stroke-width="2" stroke-linecap="round"></path>
                <g id="Group-244" transform="translate(332.000000, 195.687000)">
                    <path d="M19.7695,10.6724 C18.6535,10.4264 17.4975,10.2874 16.3065,10.2874 C7.4485,10.2874 0.2675,17.4684 0.2675,26.3264 C0.2675,27.2394 0.3615,28.1294 0.5075,29.0004 L72.3515,29.0004 C72.4065,28.5614 72.4445,28.1174 72.4445,27.6634 C72.4445,21.7574 67.6575,16.9704 61.7515,16.9704 C60.6205,16.9704 59.5305,17.1494 58.5075,17.4754 C56.3105,8.0004 47.8355,0.9314 37.6925,0.9314 C30.1795,0.9314 23.5835,4.8134 19.7695,10.6724 C18.4975,12.6264 17.5475,14.8024 16.9675,17.1284" id="Fill-242" fill="#FFFFFF"></path>
                    <path d="M19.7695,10.6724 C18.6535,10.4264 17.4975,10.2874 16.3065,10.2874 C7.4485,10.2874 0.2675,17.4684 0.2675,26.3264 C0.2675,27.2394 0.3615,28.1294 0.5075,29.0004 L72.3515,29.0004 C72.4065,28.5614 72.4445,28.1174 72.4445,27.6634 C72.4445,21.7574 67.6575,16.9704 61.7515,16.9704 C60.6205,16.9704 59.5305,17.1494 58.5075,17.4754 C56.3105,8.0004 47.8355,0.9314 37.6925,0.9314 C30.1795,0.9314 23.5835,4.8134 19.7695,10.6724 C18.4975,12.6264 17.5475,14.8024 16.9675,17.1284" id="Stroke-243" stroke="#333333" stroke-width="2" stroke-linecap="round"></path>
                </g>
                <path d="M383,169.687 L383,192.687" id="Stroke-246" stroke="#333333" stroke-width="2" stroke-linecap="round"></path>
                <path d="M393,169.687 L393,201.687" id="Stroke-247" stroke="#333333" stroke-width="2" stroke-linecap="round"></path>
                <path d="M403,169.687 L403,207.687" id="Stroke-248" stroke="#333333" stroke-width="2" stroke-linecap="round"></path>
                <path d="M512,148.687 C503.729,148.687 497,141.958 497,133.687 C497,125.416 503.729,118.687 512,118.687 C520.271,118.687 527,125.416 527,133.687 C527,141.958 520.271,148.687 512,148.687" id="Fill-249" fill="#FFFFFF"></path>
                <path d="M512,117.687 C503.163,117.687 496,124.851 496,133.687 C496,142.523 503.163,149.687 512,149.687 C520.837,149.687 528,142.523 528,133.687 C528,124.851 520.837,117.687 512,117.687 M512,119.687 C519.72,119.687 526,125.967 526,133.687 C526,141.407 519.72,147.687 512,147.687 C504.28,147.687 498,141.407 498,133.687 C498,125.967 504.28,119.687 512,119.687" id="Fill-250" fill="#333333"></path>
                <g id="Group-253" transform="translate(512.000000, 128.687000)">
                    <path d="M0,10 L0,0" id="Fill-251" fill="#FFFFFF"></path>
                    <path d="M0,10 L0,0" id="Stroke-252" stroke="#333333" stroke-width="2" stroke-linejoin="round"></path>
                </g>
                <path d="M613.3926,250.1016 C609.2056,248.9156 605.1916,249.0896 601.5596,250.1516 C594.0996,237.6266 580.6366,229.6866 564.9996,229.6866 C546.4536,229.6866 530.4606,241.0396 524.5326,257.5446 C521.9746,257.0576 519.1776,257.2256 516.2246,258.7456 C511.7456,261.0516 508.6726,265.5806 508.6546,270.6196 C508.6436,273.6506 509.6546,276.4396 511.3456,278.6866 L522.5436,278.6866 L532.6956,278.6866 L587.7466,278.6866 L607.0396,278.6866 L627.3806,278.6866 C628.8486,275.0616 629.3786,270.9556 628.5746,266.6486 C627.0976,258.7476 621.1266,252.2926 613.3926,250.1016" id="Fill-254" fill="#FFFFFF"></path>
                <path d="M613.3926,250.1016 C609.2056,248.9156 605.1916,249.0896 601.5596,250.1516 C594.0996,237.6266 580.6366,229.6866 564.9996,229.6866 C546.4536,229.6866 530.4606,241.0396 524.5326,257.5446 C521.9746,257.0576 519.1776,257.2256 516.2246,258.7456 C511.7456,261.0516 508.6726,265.5806 508.6546,270.6196 C508.6436,273.6506 509.6546,276.4396 511.3456,278.6866 L522.5436,278.6866 L532.6956,278.6866 L587.7466,278.6866 L607.0396,278.6866 L627.3806,278.6866 C628.8486,275.0616 629.3786,270.9556 628.5746,266.6486 C627.0976,258.7476 621.1266,252.2926 613.3926,250.1016 Z" id="Stroke-255" stroke="#333333" stroke-width="2" stroke-linecap="round"></path>
                <g id="Group-258" transform="translate(508.000000, 256.687000)">
                    <path d="M25.9131,7.5288 C23.6991,3.2068 19.2111,0.2438 14.0201,0.2438 C6.6391,0.2438 0.6541,6.2278 0.6541,13.6098 C0.6541,16.6228 1.6641,19.3938 3.3461,21.6298" id="Fill-256" fill="#FFFFFF"></path>
                    <path d="M25.9131,7.5288 C23.6991,3.2068 19.2111,0.2438 14.0201,0.2438 C6.6391,0.2438 0.6541,6.2278 0.6541,13.6098 C0.6541,16.6228 1.6641,19.3938 3.3461,21.6298" id="Stroke-257" stroke="#333333" stroke-width="2" stroke-linecap="round"></path>
                </g>
                <path d="M605.9502,261.9136 C601.6112,242.8886 585.3402,229.6866 565.0002,229.6866 C546.4542,229.6866 530.9292,240.4946 525.0002,256.9996" id="Stroke-259" stroke="#333333" stroke-width="2" stroke-linecap="round"></path>
                <path d="M491,129.687 C473.906,129.687 460,115.78 460,98.687 C460,81.594 473.906,67.687 491,67.687 C508.094,67.687 522,81.594 522,98.687 C522,115.78 508.094,129.687 491,129.687" id="Fill-260" fill="#FFFFFF"></path>
                <path d="M491,66.687 C473.327,66.687 459,81.014 459,98.687 C459,116.36 473.327,130.687 491,130.687 C508.673,130.687 523,116.36 523,98.687 C523,81.014 508.673,66.687 491,66.687 M491,68.687 C507.542,68.687 521,82.145 521,98.687 C521,115.229 507.542,128.687 491,128.687 C474.458,128.687 461,115.229 461,98.687 C461,82.145 474.458,68.687 491,68.687" id="Fill-261" fill="#333333"></path>
                <polygon id="Fill-262" fill="#FFFFFF" points="489 109.687 493 109.687 493 87.687 489 87.687"></polygon>
                <path d="M488,110.687 L494,110.687 L494,86.687 L488,86.687 L488,110.687 Z M490,108.687 L492,108.687 L492,88.687 L490,88.687 L490,108.687 Z" id="Fill-263" fill="#333333"></path>
                <path d="M490,165.687 C486.141,165.687 483,162.547 483,158.687 C483,154.827 486.141,151.687 490,151.687 C493.859,151.687 497,154.827 497,158.687 C497,162.547 493.859,165.687 490,165.687" id="Fill-264" fill="#FFFFFF"></path>
                <path d="M490,150.687 C485.582,150.687 482,154.269 482,158.687 C482,163.105 485.582,166.687 490,166.687 C494.418,166.687 498,163.105 498,158.687 C498,154.269 494.418,150.687 490,150.687 M490,152.687 C493.309,152.687 496,155.378 496,158.687 C496,161.996 493.309,164.687 490,164.687 C486.691,164.687 484,161.996 484,158.687 C484,155.378 486.691,152.687 490,152.687" id="Fill-265" fill="#333333"></path>
                <g id="Group-270" transform="translate(365.000000, 14.687000)" fill="#FFFFFF">
                    <path d="M0,10 L0,0" id="Fill-268"></path>
                </g>
                <path d="M746,105.687 L730,105.687 C727.791,105.687 726,107.478 726,109.687 L726,165.687 C726,167.896 727.791,169.687 730,169.687 L746,169.687 C748.209,169.687 750,167.896 750,165.687 L750,109.687 C750,107.478 748.209,105.687 746,105.687" id="Fill-273" fill="#FFFFFF"></path>
                <path d="M746,105.687 L730,105.687 C727.791,105.687 726,107.478 726,109.687 L726,165.687 C726,167.896 727.791,169.687 730,169.687 L746,169.687 C748.209,169.687 750,167.896 750,165.687 L750,109.687 C750,107.478 748.209,105.687 746,105.687 Z" id="Stroke-274" stroke="#333333" stroke-width="2" stroke-linecap="round"></path>
                <g id="Group-277" transform="translate(668.000000, 140.687000)">
                    <path d="M53.2305,10.6724 C54.3465,10.4264 55.5025,10.2874 56.6935,10.2874 C65.5515,10.2874 72.7325,17.4684 72.7325,26.3264 C72.7325,27.2394 72.6385,28.1294 72.4925,29.0004 L0.6485,29.0004 C0.5935,28.5614 0.5555,28.1174 0.5555,27.6634 C0.5555,21.7574 5.3425,16.9704 11.2485,16.9704 C12.3795,16.9704 13.4695,17.1494 14.4925,17.4754 C16.6895,8.0004 25.1645,0.9314 35.3075,0.9314 C42.8205,0.9314 49.4165,4.8134 53.2305,10.6724 C54.5025,12.6264 55.4525,14.8024 56.0325,17.1284" id="Fill-275" fill="#FFFFFF"></path>
                    <path d="M53.2305,10.6724 C54.3465,10.4264 55.5025,10.2874 56.6935,10.2874 C65.5515,10.2874 72.7325,17.4684 72.7325,26.3264 C72.7325,27.2394 72.6385,28.1294 72.4925,29.0004 L0.6485,29.0004 C0.5935,28.5614 0.5555,28.1174 0.5555,27.6634 C0.5555,21.7574 5.3425,16.9704 11.2485,16.9704 C12.3795,16.9704 13.4695,17.1494 14.4925,17.4754 C16.6895,8.0004 25.1645,0.9314 35.3075,0.9314 C42.8205,0.9314 49.4165,4.8134 53.2305,10.6724 C54.5025,12.6264 55.4525,14.8024 56.0325,17.1284" id="Stroke-276" stroke="#333333" stroke-width="2" stroke-linecap="round"></path>
                </g>
                <path d="M735,114.687 L735,147.687" id="Stroke-278" stroke="#333333" stroke-width="2" stroke-linecap="round"></path>
                <path d="M741,114.687 L741,151.687" id="Stroke-279" stroke="#333333" stroke-width="2" stroke-linecap="round"></path>
                <path d="M679,115.687 C670.729,115.687 664,108.958 664,100.687 C664,92.416 670.729,85.687 679,85.687 C687.271,85.687 694,92.416 694,100.687 C694,108.958 687.271,115.687 679,115.687" id="Fill-280" fill="#FFFFFF"></path>
                <path d="M679,84.687 C670.163,84.687 663,91.851 663,100.687 C663,109.523 670.163,116.687 679,116.687 C687.837,116.687 695,109.523 695,100.687 C695,91.851 687.837,84.687 679,84.687 M679,86.687 C686.72,86.687 693,92.967 693,100.687 C693,108.407 686.72,114.687 679,114.687 C671.28,114.687 665,108.407 665,100.687 C665,92.967 671.28,86.687 679,86.687" id="Fill-281" fill="#333333"></path>
                <g id="Group-284" transform="translate(679.000000, 95.687000)">
                    <path d="M0,10 L0,0" id="Fill-282" fill="#FFFFFF"></path>
                    <path d="M0,10 L0,0" id="Stroke-283" stroke="#333333" stroke-width="2" stroke-linejoin="round"></path>
                </g>
                <g id="Group-289" transform="translate(345.000000, 153.687000)" fill="#FFFFFF">
                    <path d="M0,10 L0,0" id="Fill-287"></path>
                </g>
                <path d="M701,83.687 C692.729,83.687 686,76.958 686,68.687 C686,60.416 692.729,53.687 701,53.687 C709.271,53.687 716,60.416 716,68.687 C716,76.958 709.271,83.687 701,83.687" id="Fill-290" fill="#FFFFFF"></path>
                <path d="M701,52.687 C692.163,52.687 685,59.851 685,68.687 C685,77.523 692.163,84.687 701,84.687 C709.837,84.687 717,77.523 717,68.687 C717,59.851 709.837,52.687 701,52.687 M701,54.687 C708.72,54.687 715,60.967 715,68.687 C715,76.407 708.72,82.687 701,82.687 C693.28,82.687 687,76.407 687,68.687 C687,60.967 693.28,54.687 701,54.687" id="Fill-291" fill="#333333"></path>
                <g id="Group-294" transform="translate(701.000000, 63.687000)">
                    <path d="M0,10 L0,0" id="Fill-292" fill="#FFFFFF"></path>
                    <path d="M0,10 L0,0" id="Stroke-293" stroke="#333333" stroke-width="2" stroke-linejoin="round"></path>
                </g>
                <path d="M694,134.687 C690.141,134.687 687,131.547 687,127.687 C687,123.827 690.141,120.687 694,120.687 C697.859,120.687 701,123.827 701,127.687 C701,131.547 697.859,134.687 694,134.687" id="Fill-295" fill="#FFFFFF"></path>
                <path d="M694,119.687 C689.582,119.687 686,123.269 686,127.687 C686,132.105 689.582,135.687 694,135.687 C698.418,135.687 702,132.105 702,127.687 C702,123.269 698.418,119.687 694,119.687 M694,121.687 C697.309,121.687 700,124.378 700,127.687 C700,130.996 697.309,133.687 694,133.687 C690.691,133.687 688,130.996 688,127.687 C688,124.378 690.691,121.687 694,121.687" id="Fill-296" fill="#333333"></path>
                <polygon id="Fill-299" fill="#FFFFFF" points="795 111.687 893 111.687 893 33.687 795 33.687"></polygon>
                <path d="M794,112.687 L894,112.687 L894,32.687 L794,32.687 L794,112.687 Z M796,110.687 L892,110.687 L892,34.687 L796,34.687 L796,110.687 Z" id="Fill-300" fill="#333333"></path>
                <path d="M800,106.687 L888,106.687 L888,38.687 L800,38.687 L800,106.687 Z M802,104.687 L886,104.687 L886,40.687 L802,40.687 L802,104.687 Z" id="Fill-301" fill="#333333"></path>
                <path d="M874.1406,90.7978 C861.0076,90.7978 848.1886,86.7558 837.4316,79.2238 C826.6736,71.6908 818.4916,61.0268 813.9996,48.6868" id="Stroke-302" stroke="#333333" stroke-width="2" stroke-linecap="round" stroke-linejoin="bevel"></path>
                <path d="M814,95.687 L874,95.687" id="Stroke-303" stroke="#333333" stroke-width="2" stroke-linecap="round" stroke-linejoin="bevel"></path>
                <path d="M814,75.687 L825,75.687" id="Stroke-304" stroke="#333333" stroke-width="2" stroke-linecap="round" stroke-linejoin="bevel"></path>
                <path d="M848,48.687 L859,48.687" id="Stroke-305" stroke="#333333" stroke-width="2" stroke-linecap="round" stroke-linejoin="bevel"></path>
                <path d="M863,48.687 L874,48.687" id="Stroke-306" stroke="#333333" stroke-width="2" stroke-linecap="round" stroke-linejoin="bevel"></path>
                <path d="M848,52.687 L859,52.687" id="Stroke-307" stroke="#333333" stroke-width="2" stroke-linecap="round" stroke-linejoin="bevel"></path>
                <path d="M863,52.687 L874,52.687" id="Stroke-308" stroke="#333333" stroke-width="2" stroke-linecap="round" stroke-linejoin="bevel"></path>
                <path d="M863,56.687 L874,56.687" id="Stroke-309" stroke="#333333" stroke-width="2" stroke-linecap="round" stroke-linejoin="bevel"></path>
                <path d="M840,75.687 L874,75.687" id="Stroke-310" stroke="#333333" stroke-width="2" stroke-linecap="round" stroke-linejoin="bevel"></path>
                <polygon id="Fill-311" fill="#2E72FE" points="825 175.687 846 175.687 846 154.687 825 154.687"></polygon>
                <polygon id="Fill-313" fill="#2E72FE" points="905 93.687 926 93.687 926 72.687 905 72.687"></polygon>
                <polygon id="Fill-315" fill="#2E72FE" points="998 251.687 1019 251.687 1019 230.687 998 230.687"></polygon>
                <path d="M1023,164.687 C1019.141,164.687 1016,161.547 1016,157.687 L1016,125.687 C1016,121.827 1019.141,118.687 1023,118.687 L1067,118.687 C1070.859,118.687 1074,121.827 1074,125.687 L1074,157.687 C1074,161.547 1070.859,164.687 1067,164.687 L1023,164.687 Z" id="Fill-317" fill="#FFFFFF"></path>
                <path d="M1067,117.687 L1023,117.687 C1018.582,117.687 1015,121.269 1015,125.687 L1015,157.687 C1015,162.105 1018.582,165.687 1023,165.687 L1067,165.687 C1071.418,165.687 1075,162.105 1075,157.687 L1075,125.687 C1075,121.269 1071.418,117.687 1067,117.687 M1067,119.687 C1070.309,119.687 1073,122.378 1073,125.687 L1073,157.687 C1073,160.996 1070.309,163.687 1067,163.687 L1023,163.687 C1019.691,163.687 1017,160.996 1017,157.687 L1017,125.687 C1017,122.378 1019.691,119.687 1023,119.687 L1067,119.687" id="Fill-318" fill="#333333"></path>
                <path d="M1015,127.687 L1075,127.687" id="Stroke-319" stroke="#333333" stroke-width="2"></path>
                <path d="M1023,139.687 L1049,139.687" id="Stroke-320" stroke="#333333" stroke-width="2" stroke-linecap="round" stroke-linejoin="bevel"></path>
                <path d="M1055,139.687 L1067,139.687" id="Stroke-321" stroke="#333333" stroke-width="2" stroke-linecap="round" stroke-linejoin="bevel"></path>
                <path d="M1023,145.687 L1049,145.687" id="Stroke-322" stroke="#333333" stroke-width="2" stroke-linecap="round" stroke-linejoin="bevel"></path>
                <path d="M1055,145.687 L1067,145.687" id="Stroke-323" stroke="#333333" stroke-width="2" stroke-linecap="round" stroke-linejoin="bevel"></path>
                <path d="M1023,151.687 L1049,151.687" id="Stroke-324" stroke="#333333" stroke-width="2" stroke-linecap="round" stroke-linejoin="bevel"></path>
                <path d="M1055,151.687 L1067,151.687" id="Stroke-325" stroke="#333333" stroke-width="2" stroke-linecap="round" stroke-linejoin="bevel"></path>
            </g>
        </g>
    </g>
</svg>