<svg width="355px" height="293px" xmlns="http://www.w3.org/2000/svg" viewBox="0 0 365 294.62"><defs><style>.cls-1{fill:#2e72fe;}.cls-2{fill:#333;}.cls-3{fill:none;stroke:#333;stroke-miterlimit:10;stroke-width:2px;}.cls-4{fill:#fff;}.cls-5{fill:#231f20;}</style></defs><g id="Layer_2" data-name="Layer 2"><g id="Layer_10" data-name="Layer 10"><path class="cls-1" d="M334.37,151A118.53,118.53,0,1,0,140.7,242.69H291A118.29,118.29,0,0,0,334.37,151Z"/><path class="cls-2" d="M322.5,242.76h-79a1,1,0,0,1,0-2H322a139.76,139.76,0,0,0,21.12-34.12,1,1,0,1,1,1.83.8,141.76,141.76,0,0,1-21.72,35A1,1,0,0,1,322.5,242.76Zm-209,0h-6.19a1,1,0,0,1-.76-.35,141.74,141.74,0,0,1,15-198.1,1,1,0,1,1,1.32,1.51,139.74,139.74,0,0,0-15.11,194.95h5.72a1,1,0,0,1,0,2Zm224-160a1,1,0,0,1-.87-.51,139.76,139.76,0,0,0-93.32-68.15,1,1,0,0,1,.4-2,141.75,141.75,0,0,1,94.65,69.12,1,1,0,0,1-.87,1.49Z"/><path class="cls-2" d="M217.69,218.69a67.61,67.61,0,0,1-20.86-3.28,1,1,0,1,1,.62-1.9,66,66,0,0,0,40.58,0,1,1,0,1,1,.62,1.9A67.62,67.62,0,0,1,217.69,218.69Zm-53.9-27.42a1,1,0,0,1-.81-.41,67.16,67.16,0,0,1-13-39.75,1,1,0,0,1,1-1h0a1,1,0,0,1,1,1,65.18,65.18,0,0,0,12.58,38.57,1,1,0,0,1-.81,1.59Zm107.85-.08a1,1,0,0,1-.81-1.59A65.19,65.19,0,0,0,283.36,151v-.19a1,1,0,0,1,2,0V151a67.17,67.17,0,0,1-12.91,39.76A1,1,0,0,1,271.64,191.19Zm-108-78.28a1,1,0,0,1-.81-1.59,68.26,68.26,0,0,1,33.78-24.65,1,1,0,0,1,.62,1.9,66.25,66.25,0,0,0-32.78,23.92A1,1,0,0,1,163.68,112.91Zm107.86-.22a1,1,0,0,1-.81-.41,66.22,66.22,0,0,0-32.88-23.79,1,1,0,0,1,.61-1.9,68.25,68.25,0,0,1,33.88,24.51,1,1,0,0,1-.81,1.59Z"/><path class="cls-2" d="M226.95,133.49H208.43a1,1,0,0,1,0-2h18.52a1,1,0,0,1,0,2Z"/><path class="cls-2" d="M223.25,139.05H212.13a1,1,0,0,1,0-2h11.11a1,1,0,0,1,0,2Z"/><path class="cls-2" d="M223.25,127.94H212.13a1,1,0,0,1,0-2h11.11a1,1,0,1,1,0,2Z"/><path class="cls-2" d="M226.95,164.05H208.43a1,1,0,0,1,0-2h18.52a1,1,0,0,1,0,2Z"/><path class="cls-2" d="M223.25,158.5H212.13a1,1,0,0,1,0-2h11.11a1,1,0,0,1,0,2Z"/><path class="cls-3" d="M214.91,142.68"/><path class="cls-3" d="M214.91,153.79"/><path class="cls-3" d="M212.13,144.65"/><path class="cls-2" d="M217.69,177.94a14.56,14.56,0,0,1-14.89-14.89c0-9.05,7.74-13.66,14.48-16.65h0c8.24-3.66,13.29-6.29,13.29-13.9,0-8.26-6.47-12-12.89-12s-12.89,3.7-12.89,12c0,5.86,3.12,8.75,7.81,11.28a1,1,0,1,1-1,1.76c-4.6-2.49-8.86-5.79-8.86-13,0-8.22,6.12-14,14.89-14s14.89,5.74,14.89,14c0,8-4.87,11.31-12.49,14.83,6.19,3,12.49,7.56,12.49,15.73A14.56,14.56,0,0,1,217.69,177.94Zm0-29.54c-6.09,2.75-12.89,6.92-12.89,14.65a12.89,12.89,0,1,0,25.78,0C230.58,155.32,223.78,151.16,217.69,148.41Z"/><path class="cls-3" d="M211.83,144.49"/><path class="cls-4" d="M194.39,199.17h59.27a0,0,0,0,1,0,0v19.52a24,24,0,0,1-24,24H218.39a24,24,0,0,1-24-24V199.17A0,0,0,0,1,194.39,199.17Z" transform="translate(448.05 441.86) rotate(180)"/><path class="cls-2" d="M229.66,201.17a22,22,0,0,1,22,22v17.52H196.39V223.17a22,22,0,0,1,22-22h11.27m0-2H218.39a24,24,0,0,0-24,24v19.52h59.27V223.17a24,24,0,0,0-24-24Z"/><circle class="cls-4" cx="223.56" cy="179.26" r="17.13"/><path class="cls-2" d="M223.56,164.13a15.13,15.13,0,1,1-15.13,15.13,15.15,15.15,0,0,1,15.13-15.13m0-2a17.13,17.13,0,1,0,17.13,17.13,17.13,17.13,0,0,0-17.13-17.13Z"/><polygon class="cls-2" points="224.02 223.49 212.94 200.72 214.74 199.84 224.02 218.92 233.31 199.84 235.11 200.72 224.02 223.49"/><path class="cls-2" d="M242.54,224.24h-9.26a1,1,0,0,1,0-2h9.26a1,1,0,0,1,0,2Z"/><rect class="cls-4" x="98.23" y="164.91" width="88.9" height="59.27" rx="4" ry="4"/><path class="cls-2" d="M183.13,166.91a2,2,0,0,1,2,2v51.27a2,2,0,0,1-2,2h-80.9a2,2,0,0,1-2-2V168.91a2,2,0,0,1,2-2h80.9m0-2h-80.9a4,4,0,0,0-4,4v51.27a4,4,0,0,0,4,4h80.9a4,4,0,0,0,4-4V168.91a4,4,0,0,0-4-4Z"/><rect class="cls-4" x="134.35" y="192.69" width="14.82" height="50.01"/><path class="cls-2" d="M147.16,194.69v46H136.35v-46h10.82m2-2H134.35v50h14.82v-50Z"/><rect class="cls-4" x="126.94" y="231.58" width="29.63" height="11.11"/><path class="cls-2" d="M154.57,233.58v7.11H128.94v-7.11h25.63m2-2H126.94v11.11h29.63V231.58Z"/><rect class="cls-4" x="163.05" y="231.58" width="29.63" height="11.11"/><path class="cls-2" d="M190.69,233.58v7.11H165.05v-7.11h25.63m2-2H163.05v11.11h29.63V231.58Z"/><rect class="cls-4" x="181.57" y="231.58" width="29.63" height="11.11"/><path class="cls-2" d="M209.21,233.58v7.11H183.57v-7.11h25.63m2-2H181.57v11.11h29.63V231.58Z"/><rect class="cls-1" x="152.24" y="103.49" width="19.45" height="19.45"/><path class="cls-2" d="M172.69,123.94H151.24V102.49h21.45Zm-19.45-2h17.45V104.49H153.24Z"/><rect class="cls-1" x="272.32" y="148.24" width="19.45" height="19.45"/><path class="cls-2" d="M292.77,168.68H271.32V147.24h21.45Zm-19.45-2h17.45V149.24H273.32Z"/><rect class="cls-1" x="237.14" y="83.42" width="19.45" height="19.45"/><path class="cls-2" d="M257.58,103.86H236.13V82.42h21.45Zm-19.45-2h17.45V84.42H238.13Z"/><rect class="cls-4" x="64.9" y="140.83" width="19.45" height="19.45"/><path class="cls-5" d="M85.34,161.28H63.9V139.83H85.34Zm-19.45-2H83.34V141.83H65.9Z"/><rect class="cls-4" x="215.84" y="1" width="19.45" height="19.45"/><path class="cls-5" d="M236.28,21.45H214.84V0h21.45Zm-19.45-2h17.45V2H216.84Z"/><rect class="cls-4" x="344.55" y="163.05" width="19.45" height="19.45"/><path class="cls-5" d="M365,183.5H343.55V162.05H365Zm-19.45-2H363V164.05H345.55Z"/><path class="cls-2" d="M352,242.76H42.67a1,1,0,0,1,0-2H352a1,1,0,0,1,0,2Z"/><path class="cls-2" d="M93.6,262.21H1a1,1,0,0,1,0-2H93.6a1,1,0,0,1,0,2Z"/><rect class="cls-4" x="83.42" y="251.03" width="19.45" height="19.45"/><path class="cls-5" d="M103.86,271.47H82.42V250h21.45Zm-19.45-2h17.45V252H84.42Z"/><path class="cls-2" d="M211.21,262.21H118.6a1,1,0,1,1,0-2h92.6a1,1,0,0,1,0,2Z"/><path class="cls-2" d="M172.31,284.44H79.71a1,1,0,1,1,0-2h92.6a1,1,0,0,1,0,2Z"/><path class="cls-2" d="M327.88,262.21h-92.6a1,1,0,0,1,0-2h92.6a1,1,0,1,1,0,2Z"/><rect class="cls-4" x="308.44" y="251.03" width="19.45" height="19.45"/><path class="cls-5" d="M328.88,271.47H307.44V250h21.45Zm-19.45-2h17.45V252H309.44Z"/><rect class="cls-4" x="201.02" y="251.03" width="19.45" height="19.45"/><path class="cls-5" d="M221.47,271.47H200V250h21.45Zm-19.45-2h17.45V252H202Z"/><rect class="cls-4" x="201.02" y="251.03" width="19.45" height="19.45"/><path class="cls-5" d="M221.47,271.47H200V250h21.45Zm-19.45-2h17.45V252H202Z"/><rect class="cls-4" x="162.13" y="274.18" width="19.45" height="19.45"/><path class="cls-5" d="M182.57,294.62H161.13V273.18h21.45Zm-19.45-2h17.45V275.18H163.13Z"/><rect class="cls-4" x="88.05" y="13.96" width="92.6" height="74.08"/><path class="cls-2" d="M178.65,16V86H90V16h88.6m2-2H88V88h92.6V14Z"/><path class="cls-2" d="M173.09,21.52v59H95.6v-59h77.49m2-2H93.6v63h81.49v-63Z"/><path class="cls-2" d="M162.26,68.78a60,60,0,0,1-34.57-10.9,60,60,0,0,1-22.06-28.75,1,1,0,0,1,1.88-.68,58,58,0,0,0,21.33,27.8,58,58,0,0,0,33.42,10.54,1,1,0,0,1,0,2Z"/><path class="cls-2" d="M162.13,73.3H106.57a1,1,0,0,1,0-2h55.56a1,1,0,0,1,0,2Z"/><path class="cls-2" d="M116.75,54.78H106.57a1,1,0,0,1,0-2h10.19a1,1,0,0,1,0,2Z"/><path class="cls-2" d="M148.24,29.78H138.05a1,1,0,0,1,0-2h10.19a1,1,0,0,1,0,2Z"/><path class="cls-2" d="M162.13,29.78H151.94a1,1,0,0,1,0-2h10.19a1,1,0,0,1,0,2Z"/><path class="cls-2" d="M148.24,33.48H138.05a1,1,0,0,1,0-2h10.19a1,1,0,0,1,0,2Z"/><path class="cls-2" d="M162.13,33.48H151.94a1,1,0,0,1,0-2h10.19a1,1,0,0,1,0,2Z"/><path class="cls-2" d="M162.13,37.19H151.94a1,1,0,0,1,0-2h10.19a1,1,0,0,1,0,2Z"/><path class="cls-2" d="M162.13,54.78H130.64a1,1,0,0,1,0-2h31.49a1,1,0,0,1,0,2Z"/><rect class="cls-4" x="292.7" y="92.68" width="55.56" height="44.45" rx="8" ry="8"/><path class="cls-2" d="M340.26,94.68a6,6,0,0,1,6,6v28.45a6,6,0,0,1-6,6H300.7a6,6,0,0,1-6-6V100.68a6,6,0,0,1,6-6h39.56m0-2H300.7a8,8,0,0,0-8,8v28.45a8,8,0,0,0,8,8h39.56a8,8,0,0,0,8-8V100.68a8,8,0,0,0-8-8Z"/><rect class="cls-2" x="292.7" y="100.94" width="55.56" height="2"/><path class="cls-2" d="M324.18,114H300.1a1,1,0,0,1,0-2h24.08a1,1,0,0,1,0,2Z"/><path class="cls-2" d="M340.85,114H329.74a1,1,0,0,1,0-2h11.11a1,1,0,0,1,0,2Z"/><path class="cls-2" d="M324.18,119.6H300.1a1,1,0,0,1,0-2h24.08a1,1,0,0,1,0,2Z"/><path class="cls-2" d="M340.85,119.6H329.74a1,1,0,0,1,0-2h11.11a1,1,0,0,1,0,2Z"/><path class="cls-2" d="M324.18,125.16H300.1a1,1,0,0,1,0-2h24.08a1,1,0,0,1,0,2Z"/><path class="cls-2" d="M340.85,125.16H329.74a1,1,0,0,1,0-2h11.11a1,1,0,0,1,0,2Z"/></g></g></svg>