
<svg width="272px" height="229px" viewBox="0 0 272 229" version="1.1" xmlns="http://www.w3.org/2000/svg" xmlns:xlink="http://www.w3.org/1999/xlink">
    <defs>
        <polygon id="path-1" points="0.0237659751 0.736224299 257.55594 0.736224299 257.55594 228.999679 0.0237659751 228.999679"></polygon>
        <polygon id="path-3" points="0 229 272 229 272 1 0 1"></polygon>
    </defs>
    <g id="Page-1" stroke="none" stroke-width="1" fill="none" fill-rule="evenodd">
        <g id="mobile-fluence-web-19-Frederike" transform="translate(-19.000000, -2423.000000)">
            <g id="Page-1" transform="translate(19.000000, 2423.000000)">
                <g id="Group-3" transform="translate(9.000000, 0.000000)">
                    <mask id="mask-2" fill="white">
                        <use xlink:href="#path-1"></use>
                    </mask>
                    <g id="Clip-2"></g>
                    <path d="M257.55594,129.448885 C257.55594,58.3615061 199.904181,0.735903271 128.789318,0.735903271 C57.6733842,0.735903271 0.0237659751,58.3625762 0.0237659751,129.448885 C0.0237659751,169.566688 18.3867286,205.394487 47.1681809,228.999679 L210.410455,228.999679 C239.191907,205.394487 257.55594,169.565618 257.55594,129.448885" id="Fill-1" fill="#2E72FE" mask="url(#mask-2)"></path>
                </g>
                <path d="M84.9274535,194 L1.07254655,194 C0.480500854,194 0,193.553 0,193 C0,192.447 0.480500854,192 1.07254655,192 L84.9274535,192 C85.5205717,192 86,192.447 86,193 C86,193.553 85.5205717,194 84.9274535,194" id="Fill-4" fill="#333333"></path>
                <mask id="mask-4" fill="white">
                    <use xlink:href="#path-3"></use>
                </mask>
                <g id="Clip-7"></g>
                <polygon id="Fill-6" fill="#2E72FE" mask="url(#mask-4)" points="79 200 92 200 92 187 79 187"></polygon>
                <path d="M80.0507212,198.949419 L90.9492788,198.949419 L90.9492788,188.050581 L80.0507212,188.050581 L80.0507212,198.949419 Z M78,201 L93,201 L93,186 L78,186 L78,201 Z" id="Fill-8" fill="#333333" mask="url(#mask-4)"></path>
                <path d="M198.927467,194 L115.072533,194 C114.480495,194 114,193.553 114,193 C114,192.447 114.480495,192 115.072533,192 L198.927467,192 C199.520578,192 200,192.447 200,193 C200,193.553 199.520578,194 198.927467,194" id="Fill-9" fill="#333333" mask="url(#mask-4)"></path>
                <polygon id="Fill-10" fill="#2E72FE" mask="url(#mask-4)" points="192 200 205 200 205 187 192 187"></polygon>
                <path d="M193.050581,198.949419 L203.949419,198.949419 L203.949419,188.050581 L193.050581,188.050581 L193.050581,198.949419 Z M191,201 L206,201 L206,186 L191,186 L191,201 Z" id="Fill-11" fill="#333333" mask="url(#mask-4)"></path>
                <path d="M115.927467,181 L32.0725332,181 C31.4804949,181 31,180.553 31,180 C31,179.447 31.4804949,179 32.0725332,179 L115.927467,179 C116.520578,179 117,179.447 117,180 C117,180.553 116.520578,181 115.927467,181" id="Fill-12" fill="#333333" mask="url(#mask-4)"></path>
                <path d="M227.924032,127 C227.329022,127 226.848064,126.521408 226.848064,125.929324 C226.848064,77.7606626 187.470868,38.379043 139.070604,38.1413528 C138.475594,38.1381408 137.996788,37.6563364 138.000016,37.065323 C138.00432,36.4743096 138.522937,36.0353323 139.081364,36 C188.66304,36.2430435 229,76.5861306 229,125.929324 C229,126.521408 228.519042,127 227.924032,127" id="Fill-13" fill="#333333" mask="url(#mask-4)"></path>
                <path d="M208.93245,125 C208.342095,125 207.8649,124.520003 207.8649,123.926182 C207.8649,84.8982775 176.299578,53.1476354 137.49947,53.1476354 C98.8680342,53.1476354 67.3027127,84.7576074 67.1351074,123.611554 C67.1329723,124.203227 66.6557774,124.681076 66.0675573,124.681076 L66.0632871,124.681076 C65.4729319,124.678929 64.9978721,124.195711 65.0000072,123.602963 C65.1729503,83.5688912 97.6958642,51 137.49947,51 C177.476019,51 210,83.7149304 210,123.926182 C210,124.520003 209.522805,125 208.93245,125" id="Fill-14" fill="#333333" mask="url(#mask-4)"></path>
                <polygon id="Fill-15" fill="#2E72FE" mask="url(#mask-4)" points="214 163 227 163 227 150 214 150"></polygon>
                <path d="M215.050581,161.949419 L225.949419,161.949419 L225.949419,151.050581 L215.050581,151.050581 L215.050581,161.949419 Z M213,164 L228,164 L228,149 L213,149 L213,164 Z" id="Fill-16" fill="#333333" mask="url(#mask-4)"></path>
                <polygon id="Fill-17" fill="#2E72FE" mask="url(#mask-4)" points="131 43 144 43 144 30 131 30"></polygon>
                <path d="M132.050581,41.9492788 L142.949419,41.9492788 L142.949419,31.0507212 L132.050581,31.0507212 L132.050581,41.9492788 Z M130,44 L145,44 L145,29 L130,29 L130,44 Z" id="Fill-18" fill="#333333" mask="url(#mask-4)"></path>
                <polygon id="Fill-19" fill="#2E72FE" mask="url(#mask-4)" points="65 104 78 104 78 91 65 91"></polygon>
                <path d="M66.050581,102.949419 L76.949419,102.949419 L76.949419,92.050581 L66.050581,92.050581 L66.050581,102.949419 Z M64,105 L79,105 L79,90 L64,90 L64,105 Z" id="Fill-20" fill="#333333" mask="url(#mask-4)"></path>
                <polygon id="Fill-21" fill="#FFFFFF" mask="url(#mask-4)" points="137 180 184 180 184 83 137 83"></polygon>
                <path d="M137,180 L184,180 L184,83 L137,83 L137,180 Z M139.141133,177.863742 L181.858867,177.863742 L181.858867,85.136258 L139.141133,85.136258 L139.141133,177.863742 Z" id="Fill-22" fill="#333333" mask="url(#mask-4)"></path>
                <path d="M141,125 L179,125 L179,115 L141,115 L141,125 Z M143.141871,122.921646 L176.858129,122.921646 L176.858129,117.078354 L143.141871,117.078354 L143.141871,122.921646 Z" id="Fill-23" fill="#333333" mask="url(#mask-4)"></path>
                <path d="M141,110 L179,110 L179,100 L141,100 L141,110 Z M143.141871,107.921646 L176.858129,107.921646 L176.858129,102.078354 L143.141871,102.078354 L143.141871,107.921646 Z" id="Fill-24" fill="#333333" mask="url(#mask-4)"></path>
                <path d="M141,98 L179,98 L179,88 L141,88 L141,98 Z M143.141871,95.9216461 L176.858129,95.9216461 L176.858129,90.0783539 L143.141871,90.0783539 L143.141871,95.9216461 Z" id="Fill-25" fill="#333333" mask="url(#mask-4)"></path>
                <path d="M141,138 L179,138 L179,128 L141,128 L141,138 Z M143.141871,135.92143 L176.858129,135.92143 L176.858129,130.07857 L143.141871,130.07857 L143.141871,135.92143 Z" id="Fill-26" fill="#333333" mask="url(#mask-4)"></path>
                <path d="M141,150 L179,150 L179,140 L141,140 L141,150 Z M143.141871,147.92143 L176.858129,147.92143 L176.858129,142.07857 L143.141871,142.07857 L143.141871,147.92143 Z" id="Fill-27" fill="#333333" mask="url(#mask-4)"></path>
                <path d="M160.965622,94 L146.034378,94 C145.463401,94 145,93.553 145,93 C145,92.447 145.463401,92 146.034378,92 L160.965622,92 C161.537633,92 162,92.447 162,93 C162,93.553 161.537633,94 160.965622,94" id="Fill-28" fill="#333333" mask="url(#mask-4)"></path>
                <path d="M160.965622,106 L146.034378,106 C145.463401,106 145,105.553 145,105 C145,104.447 145.463401,104 146.034378,104 L160.965622,104 C161.537633,104 162,104.447 162,105 C162,105.553 161.537633,106 160.965622,106" id="Fill-29" fill="#333333" mask="url(#mask-4)"></path>
                <path d="M160.965622,121 L146.034378,121 C145.463401,121 145,120.553 145,120 C145,119.447 145.463401,119 146.034378,119 L160.965622,119 C161.537633,119 162,119.447 162,120 C162,120.553 161.537633,121 160.965622,121" id="Fill-30" fill="#333333" mask="url(#mask-4)"></path>
                <path d="M160.965622,134 L146.034378,134 C145.463401,134 145,133.553 145,133 C145,132.447 145.463401,132 146.034378,132 L160.965622,132 C161.537633,132 162,132.447 162,133 C162,133.553 161.537633,134 160.965622,134" id="Fill-31" fill="#333333" mask="url(#mask-4)"></path>
                <path d="M160.965622,146 L146.034378,146 C145.463401,146 145,145.553 145,145 C145,144.447 145.463401,144 146.034378,144 L160.965622,144 C161.537633,144 162,144.447 162,145 C162,145.553 161.537633,146 160.965622,146" id="Fill-32" fill="#333333" mask="url(#mask-4)"></path>
                <path d="M141,164 L179,164 L179,154 L141,154 L141,164 Z M143.141871,161.921646 L176.858129,161.921646 L176.858129,156.078354 L143.141871,156.078354 L143.141871,161.921646 Z" id="Fill-33" fill="#333333" mask="url(#mask-4)"></path>
                <path d="M160.965622,160 L146.034378,160 C145.463401,160 145,159.553 145,159 C145,158.447 145.463401,158 146.034378,158 L160.965622,158 C161.537633,158 162,158.447 162,159 C162,159.553 161.537633,160 160.965622,160" id="Fill-34" fill="#333333" mask="url(#mask-4)"></path>
                <polygon id="Fill-35" fill="#FFFFFF" mask="url(#mask-4)" points="77 136 132 136 132 128 77 128"></polygon>
                <path d="M77,136 L132,136 L132,128 L77,128 L77,136 Z M79.1153846,134 L129.884615,134 L129.884615,130 L79.1153846,130 L79.1153846,134 Z" id="Fill-36" fill="#333333" mask="url(#mask-4)"></path>
                <path d="M77,125 C77,120.582 80.7886538,117 85.4615385,117 L123.538462,117 C128.211346,117 132,120.582 132,125 L77,125 Z" id="Fill-37" fill="#FFFFFF" mask="url(#mask-4)"></path>
                <path d="M123.538462,117 L85.4615385,117 C80.7886538,117 77,120.582 77,125 L132,125 C132,120.582 128.211346,117 123.538462,117 M123.538462,119 C126.295865,119 128.649231,120.672 129.521827,123 L79.4781731,123 C80.3507692,120.672 82.7041346,119 85.4615385,119 L123.538462,119" id="Fill-38" fill="#333333" mask="url(#mask-4)"></path>
                <path d="M132,172 L77,172 C77,176.418 80.7886538,180 85.4615385,180 L123.538462,180 C128.211346,180 132,176.418 132,172" id="Fill-39" fill="#FFFFFF" mask="url(#mask-4)"></path>
                <path d="M132,172 L77,172 C77,176.418 80.7886538,180 85.4615385,180 L123.538462,180 C128.211346,180 132,176.418 132,172 M129.521827,174 C128.649231,176.328 126.295865,178 123.538462,178 L85.4615385,178 C82.7041346,178 80.3507692,176.328 79.4781731,174 L129.521827,174" id="Fill-40" fill="#333333" mask="url(#mask-4)"></path>
                <polygon id="Fill-41" fill="#FFFFFF" mask="url(#mask-4)" points="84 130 125 130 125 123 84 123"></polygon>
                <path d="M84,130 L125,130 L125,123 L84,123 L84,130 Z M86.1578947,128 L122.842105,128 L122.842105,125 L86.1578947,125 L86.1578947,128 Z" id="Fill-42" fill="#333333" mask="url(#mask-4)"></path>
                <polygon id="Fill-43" fill="#FFFFFF" mask="url(#mask-4)" points="77 147 132 147 132 139 77 139"></polygon>
                <path d="M77,147 L132,147 L132,139 L77,139 L77,147 Z M79.1153846,145 L129.884615,145 L129.884615,141 L79.1153846,141 L79.1153846,145 Z" id="Fill-44" fill="#333333" mask="url(#mask-4)"></path>
                <polygon id="Fill-45" fill="#FFFFFF" mask="url(#mask-4)" points="84 141 125 141 125 134 84 134"></polygon>
                <path d="M84,141 L125,141 L125,134 L84,134 L84,141 Z M86.1578947,139 L122.842105,139 L122.842105,136 L86.1578947,136 L86.1578947,139 Z" id="Fill-46" fill="#333333" mask="url(#mask-4)"></path>
                <polygon id="Fill-47" fill="#FFFFFF" mask="url(#mask-4)" points="77 158 132 158 132 150 77 150"></polygon>
                <path d="M77,158 L132,158 L132,150 L77,150 L77,158 Z M79.1153846,156 L129.884615,156 L129.884615,152 L79.1153846,152 L79.1153846,156 Z" id="Fill-48" fill="#333333" mask="url(#mask-4)"></path>
                <polygon id="Fill-49" fill="#FFFFFF" mask="url(#mask-4)" points="84 150 125 150 125 143 84 143"></polygon>
                <path d="M84,152 L125,152 L125,145 L84,145 L84,152 Z M86.1578947,150 L122.842105,150 L122.842105,147 L86.1578947,147 L86.1578947,150 Z" id="Fill-50" fill="#333333" mask="url(#mask-4)"></path>
                <polygon id="Fill-51" fill="#FFFFFF" mask="url(#mask-4)" points="77 169 132 169 132 161 77 161"></polygon>
                <path d="M77,169 L132,169 L132,161 L77,161 L77,169 Z M79.1153846,167 L129.884615,167 L129.884615,163 L79.1153846,163 L79.1153846,167 Z" id="Fill-52" fill="#333333" mask="url(#mask-4)"></path>
                <polygon id="Fill-53" fill="#FFFFFF" mask="url(#mask-4)" points="84 162 125 162 125 155 84 155"></polygon>
                <path d="M84,163 L125,163 L125,156 L84,156 L84,163 Z M86.1578947,161 L122.842105,161 L122.842105,158 L86.1578947,158 L86.1578947,161 Z" id="Fill-54" fill="#333333" mask="url(#mask-4)"></path>
                <polygon id="Fill-55" fill="#FFFFFF" mask="url(#mask-4)" points="84 174 125 174 125 167 84 167"></polygon>
                <path d="M84,174 L125,174 L125,167 L84,167 L84,174 Z M86.1578947,172 L122.842105,172 L122.842105,169 L86.1578947,169 L86.1578947,172 Z" id="Fill-56" fill="#333333" mask="url(#mask-4)"></path>
                <path d="M70.6691543,16 L51.3308457,16 C48.9391362,16 47,17.9077942 47,20.260847 L47,52.739153 C47,55.0922058 48.9391362,57 51.3308457,57 L70.6691543,57 C73.0608638,57 75,55.0922058 75,52.739153 L75,20.260847 C75,17.9077942 73.0608638,16 70.6691543,16" id="Fill-57" fill="#FFFFFF" mask="url(#mask-4)"></path>
                <path d="M51.3838699,17.1239812 C49.6028858,17.1239812 48.153548,18.5534206 48.153548,20.3099531 L48.153548,52.6900469 C48.153548,54.4476414 49.6028858,55.8760188 51.3838699,55.8760188 L70.6161301,55.8760188 C72.398191,55.8760188 73.846452,54.4476414 73.846452,52.6900469 L73.846452,20.3099531 C73.846452,18.5534206 72.398191,17.1239812 70.6161301,17.1239812 L51.3838699,17.1239812 Z M70.6161301,58 L51.3838699,58 C48.415204,58 46,55.6179551 46,52.6900469 L46,20.3099531 C46,17.3820449 48.415204,15 51.3838699,15 L70.6161301,15 C73.584796,15 76,17.3820449 76,20.3099531 L76,52.6900469 C76,55.6179551 73.584796,58 70.6161301,58 Z" id="Fill-58" fill="#333333" mask="url(#mask-4)"></path>
                <path d="M54.5709185,46.2466825 C55.2819692,46.0888626 56.0184524,46.0003555 56.7771891,46.0003555 C62.4221475,46.0003555 67,50.6048578 67,56.2853081 C67,56.8718009 66.9395978,57.4412322 66.8463452,58 L21.0593425,58 C21.0243728,57.7195498 21,57.4337678 21,57.1437204 C21,53.3560427 24.050842,50.2849526 27.8148541,50.2849526 C28.5365016,50.2849526 29.2305973,50.4011848 29.8823055,50.6091232 C31.2821535,44.5330569 36.6833836,40 43.1485406,40 C47.9351517,40 52.1389343,42.4899289 54.5709185,46.2466825 C55.3815799,47.4996445 55.9856021,48.8944313 56.3564929,50.3862559" id="Fill-59" fill="#FFFFFF" mask="url(#mask-4)"></path>
                <path d="M22.1625264,56.8814681 L66.8148124,56.8814681 C66.8331572,56.6600816 66.84179,56.4461098 66.84179,56.2374345 C66.84179,51.017372 62.3527132,46.7750119 56.9906404,47.0949102 C57.479475,48.0503681 57.860399,49.0630263 58.1290962,50.1201737 C58.2747754,50.686881 57.9229871,51.2620624 57.3445869,51.404004 C56.7651075,51.5448864 56.1802326,51.2016842 56.0367116,50.6339177 C55.6903189,49.2791166 55.1324216,48.0111753 54.3738108,46.862931 C54.3651779,46.8491605 54.355466,46.8364493 54.3468332,46.8226789 C51.9674066,43.2508342 47.9639271,41.1185319 43.6323996,41.1185319 C37.6498414,41.1185319 32.5262509,45.1151422 31.1762905,50.8372968 L30.9108307,51.9558816 L29.7971943,51.6073831 C29.2177149,51.4273079 28.6188117,51.336211 28.0188293,51.336211 C24.8581307,51.336211 22.2747533,53.8053599 22.1625264,56.8814681 Z M68.6784267,59 L20.1877643,59 L20.0690627,58.0731423 C20.0269776,57.7500662 20,57.422753 20,57.0890843 C20,52.7492718 23.596657,49.2176791 28.0188293,49.2176791 C28.467737,49.2176791 28.9144864,49.2547535 29.3558404,49.3278428 C31.2809637,43.1957523 37.0056158,39 43.6323996,39 C48.4613945,39 52.9396802,41.2668291 55.7572234,45.0960754 C56.3431774,45.0060378 56.9312896,44.9604894 57.5118481,44.9604894 C63.8461945,44.9604894 69,50.0184842 69,56.2374345 C69,56.8274456 68.9449656,57.4418198 68.8295014,58.1155129 L68.6784267,59 Z" id="Fill-60" fill="#333333" mask="url(#mask-4)"></path>
                <path d="M20.9675643,58 L11.0324357,58 C10.4614988,58 10,57.553 10,57 C10,56.447 10.4614988,56 11.0324357,56 L20.9675643,56 C21.5385012,56 22,56.447 22,57 C22,57.553 21.5385012,58 20.9675643,58" id="Fill-61" fill="#333333" mask="url(#mask-4)"></path>
                <path d="M54,38 C53.447,38 53,37.5200531 53,36.9262932 L53,22.0737068 C53,21.4799469 53.447,21 54,21 C54.553,21 55,21.4799469 55,22.0737068 L55,36.9262932 C55,37.5200531 54.553,38 54,38" id="Fill-62" fill="#333333" mask="url(#mask-4)"></path>
                <path d="M60,40 C59.447,40 59,39.5343239 59,38.9582191 L59,22.0417809 C59,21.4656761 59.447,21 60,21 C60.553,21 61,21.4656761 61,22.0417809 L61,38.9582191 C61,39.5343239 60.553,40 60,40" id="Fill-63" fill="#333333" mask="url(#mask-4)"></path>
                <path d="M66,45 C65.447,45 65,44.5089486 65,43.901451 L65,22.098549 C65,21.49215 65.447,21 66,21 C66.553,21 67,21.49215 67,22.098549 L67,43.901451 C67,44.5089486 66.553,45 66,45" id="Fill-64" fill="#333333" mask="url(#mask-4)"></path>
                <path d="M51.6689869,104 L32.3310131,104 C29.9392111,104 28,105.906779 28,108.260958 L28,140.739042 C28,143.093221 29.9392111,145 32.3310131,145 L51.6689869,145 C54.0618716,145 56,143.093221 56,140.739042 L56,108.260958 C56,105.906779 54.0618716,104 51.6689869,104" id="Fill-65" fill="#FFFFFF" mask="url(#mask-4)"></path>
                <path d="M32.3840632,105.124034 C30.6030151,105.124034 29.1536253,106.553508 29.1536253,108.310084 L29.1536253,140.689916 C29.1536253,142.447554 30.6030151,143.875966 32.3840632,143.875966 L51.6159368,143.875966 C53.3980617,143.875966 54.8463747,142.447554 54.8463747,140.689916 L54.8463747,108.310084 C54.8463747,106.553508 53.3980617,105.124034 51.6159368,105.124034 L32.3840632,105.124034 Z M51.6159368,146 L32.3840632,146 C29.4152907,146 27,143.617896 27,140.689916 L27,108.310084 C27,105.382104 29.4152907,103 32.3840632,103 L51.6159368,103 C54.5847093,103 57,105.382104 57,108.310084 L57,140.689916 C57,143.617896 54.5847093,146 51.6159368,146 Z" id="Fill-66" fill="#333333" mask="url(#mask-4)"></path>
                <path d="M14.4290815,133.247749 C13.7180308,133.089929 12.9815476,133.000355 12.2228109,133.000355 C6.57785252,133.000355 2,137.605924 2,143.286374 C2,143.871801 2.06040222,144.442299 2.15365477,145 L47.9406575,145 C47.9756272,144.71955 48,144.434834 48,144.14372 C48,140.356043 44.949158,137.286019 41.1851459,137.286019 C40.4634984,137.286019 39.7694027,137.401185 39.1176945,137.61019 C37.7178465,131.534123 32.3166164,127 25.8514594,127 C21.0648483,127 16.860006,129.489929 14.4290815,133.247749 C13.6184201,134.500711 13.0133382,135.895498 12.6435071,137.387322" id="Fill-67" fill="#FFFFFF" mask="url(#mask-4)"></path>
                <path d="M3.18518763,143.881468 L47.8374736,143.881468 C47.7252467,140.806419 45.1418693,138.33727 41.9811707,138.33727 C41.377951,138.33727 40.7790477,138.428367 40.2038848,138.608442 L39.0880902,138.958 L38.8237095,137.838356 C37.47267,132.116201 32.3490795,128.118532 26.3665213,128.118532 C22.0349938,128.118532 18.0315143,130.250834 15.6531668,133.823738 C15.644534,133.837509 15.6348221,133.85022 15.6261892,133.862931 C14.8664993,135.014353 14.3075229,136.282294 13.9643675,137.634977 C13.8197674,138.201684 13.2305761,138.53959 12.6554131,138.406123 C12.078092,138.264181 11.7263037,137.689 11.8698247,137.121233 C12.1385218,136.066204 12.5194459,135.052487 13.0093596,134.09491 C7.65807787,133.770775 3.15821001,138.018431 3.15821001,143.238494 C3.15821001,143.447169 3.16684285,143.660082 3.18518763,143.881468 Z M49.8122357,146 L1.32157329,146 L1.17049859,145.116572 C1.05503436,144.443938 1,143.829564 1,143.238494 C1,137.019543 6.1538055,131.960489 12.4881519,131.960489 C13.0665521,131.960489 13.6546644,132.006038 14.2427766,132.097135 C17.0570825,128.266829 21.5375264,126 26.3665213,126 C32.9943842,126 38.7190363,130.195752 40.6441596,136.328902 C41.0844345,136.255813 41.5311839,136.218738 41.9811707,136.218738 C46.403343,136.218738 50,139.749272 50,144.089084 C50,144.424872 49.9719433,144.750066 49.9309373,145.073142 L49.8122357,146 Z" id="Fill-68" fill="#333333" mask="url(#mask-4)"></path>
                <path d="M63.9794183,146 L48.0205817,146 C47.4572206,146 47,145.553 47,145 C47,144.447 47.4572206,144 48.0205817,144 L63.9794183,144 C64.5438,144 65,144.447 65,145 C65,145.553 64.5438,146 63.9794183,146" id="Fill-69" fill="#333333" mask="url(#mask-4)"></path>
                <path d="M35,125 C34.447,125 34,124.520053 34,123.926293 L34,109.073707 C34,108.479947 34.447,108 35,108 C35.553,108 36,108.479947 36,109.073707 L36,123.926293 C36,124.520053 35.553,125 35,125" id="Fill-70" fill="#333333" mask="url(#mask-4)"></path>
                <path d="M41,130 C40.447,130 40,129.537115 40,128.964462 L40,109.035538 C40,108.462885 40.447,108 41,108 C41.553,108 42,108.462885 42,109.035538 L42,128.964462 C42,129.537115 41.553,130 41,130" id="Fill-71" fill="#333333" mask="url(#mask-4)"></path>
                <path d="M48,135 C47.447,135 47,134.514404 47,133.913656 L47,109.086344 C47,108.486682 47.447,108 48,108 C48.553,108 49,108.486682 49,109.086344 L49,133.913656 C49,134.514404 48.553,135 48,135" id="Fill-72" fill="#333333" mask="url(#mask-4)"></path>
                <path d="M127,86.0005196 C127,91.522993 122.521954,96 116.99948,96 C111.475968,96 107,91.522993 107,86.0005196 C107,80.4780462 111.475968,76 116.99948,76 C122.521954,76 127,80.4780462 127,86.0005196" id="Fill-73" fill="#FFFFFF" mask="url(#mask-4)"></path>
                <path d="M116.99948,76 C111.477007,76 107,80.4780462 107,86.0005196 C107,91.5240322 111.477007,96 116.99948,96 C122.521954,96 127,91.5240322 127,86.0005196 C127,80.4780462 122.521954,76 116.99948,76 M116.99948,78.0784619 C121.367368,78.0784619 124.921538,81.6326319 124.921538,86.0005196 C124.921538,90.3684074 121.367368,93.9215381 116.99948,93.9215381 C112.631593,93.9215381 109.078462,90.3684074 109.078462,86.0005196 C109.078462,81.6326319 112.631593,78.0784619 116.99948,78.0784619" id="Fill-74" fill="#333333" mask="url(#mask-4)"></path>
                <path d="M118,89 L118,83" id="Fill-75" fill="#FFFFFF" mask="url(#mask-4)"></path>
                <polygon id="Fill-76" fill="#333333" mask="url(#mask-4)" points="117 89 119 89 119 83 117 83"></polygon>
                <path d="M183.912462,161.331885 C181.197691,160.556536 178.595048,160.671644 176.240378,161.364463 C171.402738,153.185286 162.67407,148 152.53411,148 C140.508473,148 130.139945,155.413601 126.295278,166.193566 C124.63709,165.87539 122.823649,165.983983 120.907784,166.976517 C118.003259,168.482693 116.011924,171.441835 116.000064,174.731098 C115.992517,176.711823 116.64803,178.532917 117.745582,180 L125.005816,180 L131.587895,180 L167.284221,180 L179.793946,180 L192.982902,180 C193.934905,177.633772 194.277755,174.951541 193.757011,172.137912 C192.798539,166.977603 188.926918,162.762047 183.912462,161.331885" id="Fill-77" fill="#FFFFFF" mask="url(#mask-4)"></path>
                <path d="M118.377861,178.839143 L192.164314,178.839143 C192.875599,176.746354 193.035934,174.499063 192.62595,172.294989 C191.751101,167.591884 188.193597,163.701262 183.5654,162.3853 C181.220632,161.718676 178.844659,161.726239 176.50312,162.415552 L175.702521,162.650005 L175.276395,161.93152 C170.533057,153.934189 162.033142,149.160857 152.541086,149.160857 C141.203561,149.160857 131.086305,156.147987 127.365238,166.54711 L127.054253,167.416855 L126.15035,167.243986 C124.498575,166.92634 122.965168,167.148908 121.468348,167.922495 C118.855638,169.273031 117.161897,171.925482 117.152212,174.680575 C117.146832,176.168324 117.568653,177.59557 118.377861,178.839143 Z M193.636384,181 L117.281341,181 L116.959594,180.56999 C115.669381,178.849948 114.99253,176.811179 115.000062,174.673012 C115.012975,171.065461 117.113473,167.742064 120.482664,166.001494 C122.121526,165.153357 123.855082,164.816264 125.649975,164.990213 C129.906927,154.192412 140.599883,147 152.541086,147 C162.52168,147 171.490764,151.89218 176.698966,160.129365 C179.17609,159.544854 181.67904,159.601036 184.15186,160.306556 C189.559136,161.844005 193.71709,166.393689 194.742589,171.898472 C195.270942,174.748642 194.982554,177.661476 193.908631,180.324732 L193.636384,181 Z" id="Fill-78" fill="#333333" mask="url(#mask-4)"></path>
                <path d="M132,170.428349 C130.598025,167.80126 127.755102,166 124.466623,166 C119.789862,166 116,169.637898 116,174.124874 C116,175.957468 116.638315,177.641474 117.705332,179" id="Fill-79" fill="#FFFFFF" mask="url(#mask-4)"></path>
                <path d="M117.743394,181 C117.425076,181 117.110947,180.851423 116.905716,180.571496 C115.659671,178.869322 115,176.849539 115,174.730705 C115,169.364713 119.245978,165 124.463662,165 C128.02798,165 131.255133,167.03055 132.884415,170.301393 C133.148284,170.832178 132.945147,171.480318 132.429975,171.750555 C131.91271,172.022946 131.284451,171.813 131.02163,171.284368 C129.751501,168.734877 127.238469,167.153287 124.463662,167.153287 C120.399879,167.153287 117.094194,170.552251 117.094194,174.730705 C117.094194,176.377969 117.607271,177.949869 118.578977,179.275217 C118.926613,179.751093 118.834469,180.426149 118.372699,180.783595 C118.184222,180.930018 117.962237,181 117.743394,181" id="Fill-80" fill="#333333" mask="url(#mask-4)"></path>
                <path d="M177.933196,169 C177.447377,169 177.008435,168.676909 176.895503,168.200505 C174.191535,156.750339 164.064971,149.057902 151.695753,149.057902 C140.400452,149.057902 130.734138,155.42505 127.069185,165.278284 C126.868891,165.81231 126.25842,166.091156 125.706547,165.898742 C125.152542,165.706328 124.86382,165.117768 125.063049,164.582714 C129.035901,153.901174 139.490606,147 151.695753,147 C165.081356,147 176.043189,155.33656 178.97302,167.741593 C179.104064,168.296198 178.745026,168.848744 178.171845,168.974276 C178.090875,168.991768 178.01097,169 177.933196,169" id="Fill-81" fill="#333333" mask="url(#mask-4)"></path>
                <path d="M125,63.5 C125,74.8221356 115.82107,84 104.5,84 C93.1778644,84 84,74.8221356 84,63.5 C84,52.1778644 93.1778644,43 104.5,43 C115.82107,43 125,52.1778644 125,63.5" id="Fill-82" fill="#FFFFFF" mask="url(#mask-4)"></path>
                <path d="M104.501065,43 C93.1789296,43 84,52.1778644 84,63.5 C84,74.8221356 93.1789296,84 104.501065,84 C115.823201,84 125,74.8221356 125,63.5 C125,52.1778644 115.823201,43 104.501065,43 M104.501065,45.1304235 C114.630164,45.1304235 122.869577,53.3709015 122.869577,63.5 C122.869577,73.6290985 114.630164,81.8695765 104.501065,81.8695765 C94.3709015,81.8695765 86.1304235,73.6290985 86.1304235,63.5 C86.1304235,53.3709015 94.3709015,45.1304235 104.501065,45.1304235" id="Fill-83" fill="#333333" mask="url(#mask-4)"></path>
                <polygon id="Fill-84" fill="#FFFFFF" mask="url(#mask-4)" points="101 71 107 71 107 56 101 56"></polygon>
                <path d="M101,71 L107,71 L107,56 L101,56 L101,71 Z M103.155947,68.9205348 L104.844053,68.9205348 L104.844053,58.0773867 L103.155947,58.0773867 L103.155947,68.9205348 Z" id="Fill-85" fill="#333333" mask="url(#mask-4)"></path>
                <path d="M98,102 C98,104.760806 100.23862,107 103.001039,107 C105.762419,107 108,104.760806 108,102 C108,99.2391937 105.762419,97 103.001039,97 C100.23862,97 98,99.2391937 98,102" id="Fill-86" fill="#FFFFFF" mask="url(#mask-4)"></path>
                <path d="M103.00052,97 C100.239426,97 98,99.2383872 98,102.00052 C98,104.761613 100.239426,107 103.00052,107 C105.761613,107 108,104.761613 108,102.00052 C108,99.2383872 105.761613,97 103.00052,97 M103.00052,99.0783539 C104.611244,99.0783539 105.921646,100.388756 105.921646,102.00052 C105.921646,103.610205 104.611244,104.921646 103.00052,104.921646 C101.388756,104.921646 100.078354,103.610205 100.078354,102.00052 C100.078354,100.388756 101.388756,99.0783539 103.00052,99.0783539" id="Fill-87" fill="#333333" mask="url(#mask-4)"></path>
                <path d="M33,13.0005196 C33,18.522993 28.5219538,23 22.9994804,23 C17.4759678,23 13,18.522993 13,13.0005196 C13,7.47804625 17.4759678,3 22.9994804,3 C28.5219538,3 33,7.47804625 33,13.0005196" id="Fill-88" fill="#FFFFFF" mask="url(#mask-4)"></path>
                <path d="M22.9994804,3 C17.477007,3 13,7.47804625 13,13.0005196 C13,18.522993 17.477007,23 22.9994804,23 C28.5219538,23 33,18.522993 33,13.0005196 C33,7.47804625 28.5219538,3 22.9994804,3 M22.9994804,5.07846194 C27.3673681,5.07846194 30.9215381,8.63263185 30.9215381,13.0005196 C30.9215381,17.3673681 27.3673681,20.9215381 22.9994804,20.9215381 C18.6315926,20.9215381 15.0784619,17.3673681 15.0784619,13.0005196 C15.0784619,8.63263185 18.6315926,5.07846194 22.9994804,5.07846194" id="Fill-89" fill="#333333" mask="url(#mask-4)"></path>
                <path d="M24,16 L24,10" id="Fill-90" fill="#FFFFFF" mask="url(#mask-4)"></path>
                <polygon id="Fill-91" fill="#333333" mask="url(#mask-4)" points="22 16 24 16 24 10 22 10"></polygon>
                <path d="M27,30.9994804 C27,33.7605736 29.2383872,36 32.0005196,36 C34.7616128,36 37,33.7605736 37,30.9994804 C37,28.2383872 34.7616128,26 32.0005196,26 C29.2383872,26 27,28.2383872 27,30.9994804" id="Fill-92" fill="#FFFFFF" mask="url(#mask-4)"></path>
                <path d="M32,26 C29.2391937,26 27,28.2375805 27,31 C27,33.7613802 29.2391937,36 32,36 C34.7608063,36 37,33.7613802 37,31 C37,28.2375805 34.7608063,26 32,26 M32,28.0785699 C33.6105569,28.0785699 34.921862,29.3891083 34.921862,31 C34.921862,32.6108917 33.6105569,33.9214301 32,33.9214301 C30.3894431,33.9214301 29.078138,32.6108917 29.078138,31 C29.078138,29.3891083 30.3894431,28.0785699 32,28.0785699" id="Fill-93" fill="#333333" mask="url(#mask-4)"></path>
                <path d="M266.843148,68 L260.156852,68 C257.86123,68 256,69.9077942 256,72.260847 L256,104.739153 C256,107.092206 257.86123,109 260.156852,109 L266.843148,109 C269.13877,109 271,107.092206 271,104.739153 L271,72.260847 C271,69.9077942 269.13877,68 266.843148,68" id="Fill-94" fill="#FFFFFF" mask="url(#mask-4)"></path>
                <path d="M260.172204,69.1239812 C258.461239,69.1239812 257.068882,70.5534206 257.068882,72.3099531 L257.068882,104.690047 C257.068882,106.447641 258.461239,107.876019 260.172204,107.876019 L266.827796,107.876019 C268.538761,107.876019 269.931118,106.447641 269.931118,104.690047 L269.931118,72.3099531 C269.931118,70.5534206 268.538761,69.1239812 266.827796,69.1239812 L260.172204,69.1239812 Z M266.827796,110 L260.172204,110 C257.320251,110 255,107.617955 255,104.690047 L255,72.3099531 C255,69.3820449 257.320251,67 260.172204,67 L266.827796,67 C269.678715,67 272,69.3820449 272,72.3099531 L272,104.690047 C272,107.617955 269.678715,110 266.827796,110 Z" id="Fill-95" fill="#333333" mask="url(#mask-4)"></path>
                <path d="M252.570918,98.2466825 C253.281969,98.0899289 254.018452,98.0003555 254.777189,98.0003555 C260.422147,98.0003555 265,102.604858 265,108.286374 C265,108.871801 264.939598,109.442299 264.846345,110 L219.059343,110 C219.024373,109.71955 219,109.433768 219,109.14372 C219,105.356043 222.050842,102.286019 225.814854,102.286019 C226.536502,102.286019 227.230597,102.401185 227.882306,102.609123 C229.282153,96.5330569 234.683384,92 241.148541,92 C245.935152,92 250.138934,94.4899289 252.570918,98.2466825 C253.38158,99.4996445 253.985602,100.895498 254.356493,102.387322" id="Fill-96" fill="#FFFFFF" mask="url(#mask-4)"></path>
                <path d="M220.162526,108.881468 L264.814812,108.881468 C264.833157,108.660082 264.84179,108.447169 264.84179,108.238494 C264.84179,103.018431 260.360267,98.783486 254.99064,99.0949102 C255.479475,100.051427 255.860399,101.064086 256.129096,102.121233 C256.274775,102.68794 255.922987,103.263122 255.344587,103.405063 C254.762949,103.545946 254.180233,103.202743 254.036712,102.634977 C253.690319,101.279117 253.131342,100.010116 252.373811,98.862931 C252.365178,98.8491605 252.355466,98.8364493 252.346833,98.8226789 C249.967407,95.2508342 245.963927,93.1185319 241.6324,93.1185319 C235.649841,93.1185319 230.526251,97.1151422 229.176291,102.837297 L228.910831,103.955882 L227.797194,103.607383 C227.220952,103.428367 226.622049,103.33727 226.018829,103.33727 C222.858131,103.33727 220.274753,105.806419 220.162526,108.881468 Z M266.677348,111 L218.187764,111 L218.069063,110.073142 C218.026978,109.750066 218,109.422753 218,109.089084 C218,104.749272 221.596657,101.218738 226.018829,101.218738 C226.467737,101.218738 226.914486,101.255813 227.35584,101.327843 C229.279885,95.1957523 235.004537,91 241.6324,91 C246.461394,91 250.940759,93.2668291 253.757223,97.0971347 C254.346415,97.0060378 254.934527,96.9604894 255.511848,96.9604894 C261.846195,96.9604894 267,102.019543 267,108.238494 C267,108.829564 266.944966,109.443938 266.829501,110.116572 L266.677348,111 Z" id="Fill-97" fill="#333333" mask="url(#mask-4)"></path>
                <path d="M262,98 C261.447,98 261,97.5089486 261,96.901451 L261,75.098549 C261,74.49215 261.447,74 262,74 C262.553,74 263,74.49215 263,75.098549 L263,96.901451 C263,97.5089486 262.553,98 262,98" id="Fill-98" fill="#333333" mask="url(#mask-4)"></path>
                <path d="M265,100 C264.447,100 264,99.5207818 264,98.9279235 L264,75.0720765 C264,74.4792182 264.447,74 265,74 C265.553,74 266,74.4792182 266,75.0720765 L266,98.9279235 C266,99.5207818 265.553,100 265,100" id="Fill-99" fill="#333333" mask="url(#mask-4)"></path>
                <path d="M235,65.0005196 C235,70.522993 230.521954,75 224.99948,75 C219.475968,75 215,70.522993 215,65.0005196 C215,59.4780462 219.475968,55 224.99948,55 C230.521954,55 235,59.4780462 235,65.0005196" id="Fill-100" fill="#FFFFFF" mask="url(#mask-4)"></path>
                <path d="M225,55 C219.477814,55 215,59.4780462 215,65.0005196 C215,70.5240322 219.477814,75 225,75 C230.522186,75 235,70.5240322 235,65.0005196 C235,59.4780462 230.522186,55 225,55 M225,57.0784619 C229.367661,57.0784619 232.921646,60.6326319 232.921646,65.0005196 C232.921646,69.3684074 229.367661,72.9215381 225,72.9215381 C220.632339,72.9215381 217.078354,69.3684074 217.078354,65.0005196 C217.078354,60.6326319 220.632339,57.0784619 225,57.0784619" id="Fill-101" fill="#333333" mask="url(#mask-4)"></path>
                <path d="M225,68 L225,62" id="Fill-102" fill="#FFFFFF" mask="url(#mask-4)"></path>
                <polygon id="Fill-103" fill="#333333" mask="url(#mask-4)" points="224 68 226 68 226 62 224 62"></polygon>
                <path d="M20,102.00052 C20,107.522993 15.5219538,112 9.99948038,112 C4.47596778,112 0,107.522993 0,102.00052 C0,96.4780462 4.47596778,92 9.99948038,92 C15.5219538,92 20,96.4780462 20,102.00052" id="Fill-104" fill="#FFFFFF" mask="url(#mask-4)"></path>
                <path d="M9.99948038,92 C4.47700701,92 0,96.4780462 0,102.00052 C0,107.524032 4.47700701,112 9.99948038,112 C15.5219538,112 20,107.524032 20,102.00052 C20,96.4780462 15.5219538,92 9.99948038,92 M9.99948038,94.0784619 C14.3673681,94.0784619 17.9215381,97.6326319 17.9215381,102.00052 C17.9215381,106.368407 14.3673681,109.921538 9.99948038,109.921538 C5.63159262,109.921538 2.07846194,106.368407 2.07846194,102.00052 C2.07846194,97.6326319 5.63159262,94.0784619 9.99948038,94.0784619" id="Fill-105" fill="#333333" mask="url(#mask-4)"></path>
                <path d="M10,105 L10,99" id="Fill-106" fill="#FFFFFF" mask="url(#mask-4)"></path>
                <polygon id="Fill-107" fill="#333333" mask="url(#mask-4)" points="9 105 11 105 11 99 9 99"></polygon>
                <path d="M249,45.0005196 C249,50.522993 244.522993,55 239.00052,55 C233.477007,55 229,50.522993 229,45.0005196 C229,39.4780462 233.477007,35 239.00052,35 C244.522993,35 249,39.4780462 249,45.0005196" id="Fill-108" fill="#FFFFFF" mask="url(#mask-4)"></path>
                <path d="M239.00052,35 C233.478046,35 229,39.4780462 229,45.0005196 C229,50.5240322 233.478046,55 239.00052,55 C244.521954,55 249,50.5240322 249,45.0005196 C249,39.4780462 244.521954,35 239.00052,35 M239.00052,37.0784619 C243.368407,37.0784619 246.921538,40.6326319 246.921538,45.0005196 C246.921538,49.3684074 243.368407,52.9215381 239.00052,52.9215381 C234.632632,52.9215381 231.078462,49.3684074 231.078462,45.0005196 C231.078462,40.6326319 234.632632,37.0784619 239.00052,37.0784619" id="Fill-109" fill="#333333" mask="url(#mask-4)"></path>
                <path d="M239,48 L239,42" id="Fill-110" fill="#FFFFFF" mask="url(#mask-4)"></path>
                <polygon id="Fill-111" fill="#333333" mask="url(#mask-4)" points="238 48 240 48 240 42 238 42"></polygon>
                <path d="M230,83.0005196 C230,85.7616128 232.238387,88 235.00052,88 C237.761613,88 240,85.7616128 240,83.0005196 C240,80.2394264 237.761613,78 235.00052,78 C232.238387,78 230,80.2394264 230,83.0005196" id="Fill-112" fill="#FFFFFF" mask="url(#mask-4)"></path>
                <path d="M235.00052,78 C232.239426,78 230,80.2386198 230,83.0010393 C230,85.7624195 232.239426,88 235.00052,88 C237.761613,88 240,85.7624195 240,83.0010393 C240,80.2386198 237.761613,78 235.00052,78 M235.00052,80.0785699 C236.611244,80.0785699 237.921646,81.3891083 237.921646,83.0010393 C237.921646,84.6108917 236.611244,85.9214301 235.00052,85.9214301 C233.388756,85.9214301 232.078354,84.6108917 232.078354,83.0010393 C232.078354,81.3891083 233.388756,80.0785699 235.00052,80.0785699" id="Fill-113" fill="#333333" mask="url(#mask-4)"></path>
                <path d="M5,123 C5,125.760806 7.23758054,128 10,128 C12.7613802,128 15,125.760806 15,123 C15,120.239194 12.7613802,118 10,118 C7.23758054,118 5,120.239194 5,123" id="Fill-114" fill="#FFFFFF" mask="url(#mask-4)"></path>
                <path d="M9.99948041,118 C7.23942637,118 5,120.238387 5,123.00052 C5,125.761613 7.23942637,128 9.99948041,128 C12.7605736,128 15,125.761613 15,123.00052 C15,120.238387 12.7605736,118 9.99948041,118 M9.99948041,120.078354 C11.6112439,120.078354 12.9216461,121.388756 12.9216461,123.00052 C12.9216461,124.610205 11.6112439,125.921646 9.99948041,125.921646 C8.38875611,125.921646 7.07835394,124.610205 7.07835394,123.00052 C7.07835394,121.388756 8.38875611,120.078354 9.99948041,120.078354" id="Fill-115" fill="#333333" mask="url(#mask-4)"></path>
            </g>
        </g>
    </g>
</svg>