<svg width="304px" height="280px" viewBox="0 0 304 280" version="1.1" xmlns="http://www.w3.org/2000/svg" xmlns:xlink="http://www.w3.org/1999/xlink">
    <defs>
        <polygon id="path-1" points="0 280 304 280 304 0 0 0"></polygon>
    </defs>
    <g id="Page-1" stroke="none" stroke-width="1" fill="none" fill-rule="evenodd">
        <g id="mobile-fluence-web-19-Frederike" transform="translate(-15.000000, -2033.000000)">
            <g id="Page-1" transform="translate(15.000000, 2033.000000)">
                <path d="M273.777778,143.111111 C273.286222,143.111111 272.888889,142.713778 272.888889,142.222222 C272.888889,77.8764444 227.089778,22.4311111 163.988444,10.3857778 C163.505778,10.2933333 163.190222,9.82755556 163.281778,9.34577778 C163.374222,8.86311111 163.837333,8.54755556 164.321778,8.63911111 C228.260444,20.8453333 274.666667,77.0248889 274.666667,142.222222 C274.666667,142.713778 274.269333,143.111111 273.777778,143.111111 M18.9368889,205.761778 C18.616,205.761778 18.3075556,205.589333 18.1484444,205.286222 C8.01955556,185.976889 2.66666667,164.168889 2.66666667,142.222222 C2.66577778,100.552 21.3857778,61.7502222 54.024,35.7653333 C54.4106667,35.4586667 54.968,35.5235556 55.2737778,35.9075556 C55.5786667,36.2915556 55.5155556,36.8506667 55.1315556,37.1564444 C22.9182222,62.8017778 4.44355556,101.096889 4.44444444,142.222222 C4.44444444,163.882667 9.72711111,185.404444 19.7226667,204.460444 C19.9511111,204.895111 19.7831111,205.432 19.3493333,205.660444 C19.2168889,205.728889 19.0755556,205.761778 18.9368889,205.761778 M241.937778,230.222222 L122.297778,230.222222 C121.806222,230.222222 121.408889,229.824889 121.408889,229.333333 C121.408889,228.841778 121.806222,228.444444 122.297778,228.444444 L241.523556,228.444444 C255.765333,211.471111 265.648,191.104889 270.109333,169.52 C270.208,169.038222 270.675556,168.729778 271.16,168.829333 C271.640889,168.928889 271.949333,169.398222 271.850667,169.879111 C267.301333,191.888 257.192,212.645333 242.616,229.907556 C242.448,230.106667 242.2,230.222222 241.937778,230.222222" id="Fill-1" fill="#333333"></path>
                <path d="M252.444444,142.222222 C252.444444,79.3848889 201.504,28.4444444 138.666667,28.4444444 C75.8293333,28.4444444 24.8888889,79.3848889 24.8888889,142.222222 C24.8888889,177.685333 41.1155556,209.355556 66.5457778,230.222222 L210.787556,230.222222 C236.217778,209.355556 252.444444,177.685333 252.444444,142.222222" id="Fill-3" fill="#2E72FE"></path>
                <path d="M158.222222,118.222222 L119.111111,118.222222 C115.184,118.222222 112,121.406222 112,125.333333 L112,153.777778 C112,157.704889 115.184,160.888889 119.111111,160.888889 L158.222222,160.888889 C162.149333,160.888889 165.333333,157.704889 165.333333,153.777778 L165.333333,125.333333 C165.333333,121.406222 162.149333,118.222222 158.222222,118.222222 M158.222222,120 C161.163556,120 163.555556,122.392 163.555556,125.333333 L163.555556,153.777778 C163.555556,156.719111 161.163556,159.111111 158.222222,159.111111 L119.111111,159.111111 C116.169778,159.111111 113.777778,156.719111 113.777778,153.777778 L113.777778,125.333333 C113.777778,122.392 116.169778,120 119.111111,120 L158.222222,120" id="Fill-5" fill="#333333"></path>
                <mask id="mask-2" fill="white">
                    <use xlink:href="#path-1"></use>
                </mask>
                <g id="Clip-8"></g>
                <polygon id="Fill-7" fill="#333333" mask="url(#mask-2)" points="112 128 165.333333 128 165.333333 126.222222 112 126.222222"></polygon>
                <path d="M142.222222,138.666667 L119.111111,138.666667 C118.619556,138.666667 118.222222,138.269333 118.222222,137.777778 C118.222222,137.286222 118.619556,136.888889 119.111111,136.888889 L142.222222,136.888889 C142.713778,136.888889 143.111111,137.286222 143.111111,137.777778 C143.111111,138.269333 142.713778,138.666667 142.222222,138.666667" id="Fill-9" fill="#333333" mask="url(#mask-2)"></path>
                <path d="M158.222222,138.666667 L147.555556,138.666667 C147.064,138.666667 146.666667,138.269333 146.666667,137.777778 C146.666667,137.286222 147.064,136.888889 147.555556,136.888889 L158.222222,136.888889 C158.713778,136.888889 159.111111,137.286222 159.111111,137.777778 C159.111111,138.269333 158.713778,138.666667 158.222222,138.666667" id="Fill-10" fill="#333333" mask="url(#mask-2)"></path>
                <path d="M142.222222,144 L119.111111,144 C118.619556,144 118.222222,143.602667 118.222222,143.111111 C118.222222,142.619556 118.619556,142.222222 119.111111,142.222222 L142.222222,142.222222 C142.713778,142.222222 143.111111,142.619556 143.111111,143.111111 C143.111111,143.602667 142.713778,144 142.222222,144" id="Fill-11" fill="#333333" mask="url(#mask-2)"></path>
                <path d="M158.222222,144 L147.555556,144 C147.064,144 146.666667,143.602667 146.666667,143.111111 C146.666667,142.619556 147.064,142.222222 147.555556,142.222222 L158.222222,142.222222 C158.713778,142.222222 159.111111,142.619556 159.111111,143.111111 C159.111111,143.602667 158.713778,144 158.222222,144" id="Fill-12" fill="#333333" mask="url(#mask-2)"></path>
                <path d="M142.222222,149.333333 L119.111111,149.333333 C118.619556,149.333333 118.222222,148.936 118.222222,148.444444 C118.222222,147.952889 118.619556,147.555556 119.111111,147.555556 L142.222222,147.555556 C142.713778,147.555556 143.111111,147.952889 143.111111,148.444444 C143.111111,148.936 142.713778,149.333333 142.222222,149.333333" id="Fill-13" fill="#333333" mask="url(#mask-2)"></path>
                <path d="M158.222222,149.333333 L147.555556,149.333333 C147.064,149.333333 146.666667,148.936 146.666667,148.444444 C146.666667,147.952889 147.064,147.555556 147.555556,147.555556 L158.222222,147.555556 C158.713778,147.555556 159.111111,147.952889 159.111111,148.444444 C159.111111,148.936 158.713778,149.333333 158.222222,149.333333" id="Fill-14" fill="#333333" mask="url(#mask-2)"></path>
                <path d="M102.568533,80.8003556 C102.261867,80.8003556 101.9632,80.6412444 101.798756,80.3576889 C101.551644,79.9328 101.697422,79.3888 102.121422,79.1425778 C113.137422,72.7461333 125.7312,69.3541333 138.540978,69.3336889 L138.542756,69.3336889 C139.032533,69.3336889 139.430756,69.7301333 139.431644,70.2208 C139.432533,70.7114667 139.034311,71.1105778 138.544533,71.1114667 C126.045867,71.1319111 113.760533,74.4412444 103.013867,80.6803556 C102.873422,80.7612444 102.719644,80.8003556 102.568533,80.8003556 Z M200.957867,106.976356 C200.6512,106.976356 200.353422,106.819022 200.188089,106.534578 C193.9232,95.7603556 184.906311,86.7790222 174.108978,80.5594667 C173.684089,80.3141333 173.537422,79.7710222 173.782756,79.3452444 C174.028089,78.9203556 174.570311,78.7736889 174.996089,79.0190222 C186.062756,85.3932444 195.304533,94.5985778 201.724978,105.640356 C201.972089,106.065244 201.828089,106.609244 201.4032,106.855467 C201.262756,106.937244 201.108978,106.976356 200.957867,106.976356 Z M66.6663111,143.152356 C66.1756444,143.152356 65.7774222,142.795911 65.7774222,142.304356 L65.7774222,142.222578 C65.7774222,129.439467 69.1347556,116.863467 75.4840889,105.855467 C75.7303111,105.429689 76.2707556,105.283911 76.6983111,105.529244 C77.1240889,105.775467 77.2698667,106.318578 77.0245333,106.744356 C70.8298667,117.482133 67.5552,129.750578 67.5552,142.222578 C67.5552,142.713244 67.1578667,143.152356 66.6663111,143.152356 Z M201.036089,179.106133 C200.884978,179.106133 200.732978,179.067911 200.591644,178.986133 C200.167644,178.7408 200.021867,178.1968 200.268089,177.771911 C206.489422,167.014578 209.777422,154.721244 209.777422,142.222578 L209.777422,142.056356 C209.777422,141.5648 210.175644,141.167467 210.666311,141.167467 C211.157867,141.167467 211.5552,141.5648 211.5552,142.056356 L211.5552,142.222578 C211.5552,155.034133 208.184533,167.634133 201.806756,178.662578 C201.642311,178.947022 201.343644,179.106133 201.036089,179.106133 Z M102.7072,205.502578 C102.556089,205.502578 102.4032,205.464356 102.263644,205.383467 C91.2040889,198.995911 81.9729778,189.779911 75.5667556,178.731911 C75.3205333,178.306133 75.4654222,177.763022 75.8894222,177.5168 C76.3160889,177.270578 76.8592,177.415467 77.1054222,177.839467 C83.3552,188.619911 92.3623111,197.611911 103.152533,203.843911 C103.578311,204.089244 103.724089,204.633244 103.477867,205.058133 C103.313422,205.343467 103.014756,205.502578 102.7072,205.502578 Z M138.7072,215.111467 C138.216533,215.111467 137.818311,214.713244 137.818311,214.223467 C137.818311,213.731911 138.216533,213.333689 138.706311,213.333689 C151.206756,213.325689 163.496533,210.031467 174.249422,203.8048 C174.672533,203.557689 175.217422,203.704356 175.463644,204.128356 C175.709867,204.553244 175.564978,205.097244 175.140089,205.342578 C164.116978,211.725689 151.518756,215.103467 138.708089,215.111467 L138.7072,215.111467 Z" id="Fill-15" fill="#333333" mask="url(#mask-2)"></path>
                <path d="M150.222222,230.222222 L93.3333333,230.222222 L93.3333333,209.777778 C93.3333333,197.995556 102.884444,188.444444 114.666667,188.444444 L128.888889,188.444444 C140.671111,188.444444 150.222222,197.995556 150.222222,209.777778 L150.222222,230.222222 Z" id="Fill-16" fill="#FFFFFF" mask="url(#mask-2)"></path>
                <path d="M128.888889,188.444444 L114.666667,188.444444 C102.884444,188.444444 93.3333333,197.995556 93.3333333,209.777778 L93.3333333,230.222222 L150.222222,230.222222 L150.222222,209.777778 C150.222222,197.995556 140.671111,188.444444 128.888889,188.444444 M128.888889,190.222222 C139.672,190.222222 148.444444,198.994667 148.444444,209.777778 L148.444444,228.444444 L95.1111111,228.444444 L95.1111111,209.777778 C95.1111111,198.994667 103.883556,190.222222 114.666667,190.222222 L128.888889,190.222222" id="Fill-17" fill="#333333" mask="url(#mask-2)"></path>
                <path d="M138.666667,169.333333 C138.666667,178.415111 131.304,185.777778 122.222222,185.777778 C113.140444,185.777778 105.777778,178.415111 105.777778,169.333333 C105.777778,160.251556 113.140444,152.888889 122.222222,152.888889 C131.304,152.888889 138.666667,160.251556 138.666667,169.333333" id="Fill-18" fill="#FFFFFF" mask="url(#mask-2)"></path>
                <path d="M122.222222,152.888889 C113.140444,152.888889 105.777778,160.251556 105.777778,169.333333 C105.777778,178.415111 113.140444,185.777778 122.222222,185.777778 C131.304,185.777778 138.666667,178.415111 138.666667,169.333333 C138.666667,160.251556 131.304,152.888889 122.222222,152.888889 M122.222222,154.666667 C130.309333,154.666667 136.888889,161.246222 136.888889,169.333333 C136.888889,177.420444 130.309333,184 122.222222,184 C114.135111,184 107.555556,177.420444 107.555556,169.333333 C107.555556,161.246222 114.135111,154.666667 122.222222,154.666667" id="Fill-19" fill="#333333" mask="url(#mask-2)"></path>
                <polygon id="Fill-20" fill="#333333" mask="url(#mask-2)" points="121.845511 219.728267 114.933511 211.433156 118.544178 196.988711 116.250844 190.106044 117.937067 189.543378 120.394844 196.9176 116.877511 210.988711 121.845511 216.950489 126.8144 210.988711 123.297067 196.9176 125.754844 189.543378 127.441067 190.106044 125.147733 196.988711 128.7584 211.433156"></polygon>
                <path d="M119.111111,196.444444 L124.444444,196.444444" id="Fill-21" fill="#FFFFFF" mask="url(#mask-2)"></path>
                <polygon id="Fill-22" fill="#333333" mask="url(#mask-2)" points="119.111111 197.333333 124.444444 197.333333 124.444444 195.555556 119.111111 195.555556"></polygon>
                <polygon id="Fill-23" fill="#FFFFFF" mask="url(#mask-2)" points="121.777778 230.222222 143.111111 230.222222 143.111111 219.555556 121.777778 219.555556"></polygon>
                <path d="M121.777778,230.222222 L143.111111,230.222222 L143.111111,219.555556 L121.777778,219.555556 L121.777778,230.222222 Z M123.555556,228.444444 L141.333333,228.444444 L141.333333,221.333333 L123.555556,221.333333 L123.555556,228.444444 Z" id="Fill-24" fill="#333333" mask="url(#mask-2)"></path>
                <path d="M140.666667,230.222222 L218,230.222222 C221.927111,230.222222 225.111111,227.038222 225.111111,223.111111 L225.111111,180.444444 C225.111111,176.517333 221.927111,173.333333 218,173.333333 L147.777778,173.333333 C143.850667,173.333333 140.666667,176.517333 140.666667,180.444444 L140.666667,230.222222 Z" id="Fill-25" fill="#FFFFFF" mask="url(#mask-2)"></path>
                <path d="M218,173.333333 L147.777778,173.333333 C143.850667,173.333333 140.666667,176.517333 140.666667,180.444444 L140.666667,230.222222 L218,230.222222 C221.927111,230.222222 225.111111,227.038222 225.111111,223.111111 L225.111111,180.444444 C225.111111,176.517333 221.927111,173.333333 218,173.333333 M218,175.111111 C220.941333,175.111111 223.333333,177.503111 223.333333,180.444444 L223.333333,223.111111 C223.333333,226.052444 220.941333,228.444444 218,228.444444 L142.444444,228.444444 L142.444444,180.444444 C142.444444,177.503111 144.836444,175.111111 147.777778,175.111111 L218,175.111111" id="Fill-26" fill="#333333" mask="url(#mask-2)"></path>
                <path d="M175.777778,202.666667 C175.777778,206.593778 178.961778,209.777778 182.888889,209.777778 C186.816,209.777778 190,206.593778 190,202.666667 C190,198.739556 186.816,195.555556 182.888889,195.555556 C178.961778,195.555556 175.777778,198.739556 175.777778,202.666667" id="Fill-27" fill="#FFFFFF" mask="url(#mask-2)"></path>
                <path d="M182.888889,195.555556 C178.961778,195.555556 175.777778,198.739556 175.777778,202.666667 C175.777778,206.593778 178.961778,209.777778 182.888889,209.777778 C186.816,209.777778 190,206.593778 190,202.666667 C190,198.739556 186.816,195.555556 182.888889,195.555556 M182.888889,197.333333 C185.830222,197.333333 188.222222,199.725333 188.222222,202.666667 C188.222222,205.608 185.830222,208 182.888889,208 C179.947556,208 177.555556,205.608 177.555556,202.666667 C177.555556,199.725333 179.947556,197.333333 182.888889,197.333333" id="Fill-28" fill="#333333" mask="url(#mask-2)"></path>
                <path d="M63.1111111,208 L24,208 C20.0728889,208 16.8888889,204.816 16.8888889,200.888889 L16.8888889,172.444444 C16.8888889,168.517333 20.0728889,165.333333 24,165.333333 L63.1111111,165.333333 C67.0382222,165.333333 70.2222222,168.517333 70.2222222,172.444444 L70.2222222,200.888889 C70.2222222,204.816 67.0382222,208 63.1111111,208" id="Fill-29" fill="#FFFFFF" mask="url(#mask-2)"></path>
                <path d="M63.1111111,165.333333 L24,165.333333 C20.0728889,165.333333 16.8888889,168.517333 16.8888889,172.444444 L16.8888889,200.888889 C16.8888889,204.816 20.0728889,208 24,208 L63.1111111,208 C67.0382222,208 70.2222222,204.816 70.2222222,200.888889 L70.2222222,172.444444 C70.2222222,168.517333 67.0382222,165.333333 63.1111111,165.333333 M63.1111111,167.111111 C66.0524444,167.111111 68.4444444,169.503111 68.4444444,172.444444 L68.4444444,200.888889 C68.4444444,203.830222 66.0524444,206.222222 63.1111111,206.222222 L24,206.222222 C21.0586667,206.222222 18.6666667,203.830222 18.6666667,200.888889 L18.6666667,172.444444 C18.6666667,169.503111 21.0586667,167.111111 24,167.111111 L63.1111111,167.111111" id="Fill-30" fill="#333333" mask="url(#mask-2)"></path>
                <polygon id="Fill-31" fill="#333333" mask="url(#mask-2)" points="16.8888889 175.111111 70.2222222 175.111111 70.2222222 173.333333 16.8888889 173.333333"></polygon>
                <path d="M47.1111111,185.777778 L24,185.777778 C23.5084444,185.777778 23.1111111,185.380444 23.1111111,184.888889 C23.1111111,184.397333 23.5084444,184 24,184 L47.1111111,184 C47.6026667,184 48,184.397333 48,184.888889 C48,185.380444 47.6026667,185.777778 47.1111111,185.777778" id="Fill-32" fill="#333333" mask="url(#mask-2)"></path>
                <path d="M63.1111111,185.777778 L52.4444444,185.777778 C51.9528889,185.777778 51.5555556,185.380444 51.5555556,184.888889 C51.5555556,184.397333 51.9528889,184 52.4444444,184 L63.1111111,184 C63.6026667,184 64,184.397333 64,184.888889 C64,185.380444 63.6026667,185.777778 63.1111111,185.777778" id="Fill-33" fill="#333333" mask="url(#mask-2)"></path>
                <path d="M47.1111111,191.111111 L24,191.111111 C23.5084444,191.111111 23.1111111,190.713778 23.1111111,190.222222 C23.1111111,189.730667 23.5084444,189.333333 24,189.333333 L47.1111111,189.333333 C47.6026667,189.333333 48,189.730667 48,190.222222 C48,190.713778 47.6026667,191.111111 47.1111111,191.111111" id="Fill-34" fill="#333333" mask="url(#mask-2)"></path>
                <path d="M63.1111111,191.111111 L52.4444444,191.111111 C51.9528889,191.111111 51.5555556,190.713778 51.5555556,190.222222 C51.5555556,189.730667 51.9528889,189.333333 52.4444444,189.333333 L63.1111111,189.333333 C63.6026667,189.333333 64,189.730667 64,190.222222 C64,190.713778 63.6026667,191.111111 63.1111111,191.111111" id="Fill-35" fill="#333333" mask="url(#mask-2)"></path>
                <path d="M47.1111111,196.444444 L24,196.444444 C23.5084444,196.444444 23.1111111,196.047111 23.1111111,195.555556 C23.1111111,195.064 23.5084444,194.666667 24,194.666667 L47.1111111,194.666667 C47.6026667,194.666667 48,195.064 48,195.555556 C48,196.047111 47.6026667,196.444444 47.1111111,196.444444" id="Fill-36" fill="#333333" mask="url(#mask-2)"></path>
                <path d="M63.1111111,196.444444 L52.4444444,196.444444 C51.9528889,196.444444 51.5555556,196.047111 51.5555556,195.555556 C51.5555556,195.064 51.9528889,194.666667 52.4444444,194.666667 L63.1111111,194.666667 C63.6026667,194.666667 64,195.064 64,195.555556 C64,196.047111 63.6026667,196.444444 63.1111111,196.444444" id="Fill-37" fill="#333333" mask="url(#mask-2)"></path>
                <path d="M124.444444,61.3333333 L85.3333333,61.3333333 C81.4062222,61.3333333 78.2222222,58.1493333 78.2222222,54.2222222 L78.2222222,25.7777778 C78.2222222,21.8506667 81.4062222,18.6666667 85.3333333,18.6666667 L124.444444,18.6666667 C128.371556,18.6666667 131.555556,21.8506667 131.555556,25.7777778 L131.555556,54.2222222 C131.555556,58.1493333 128.371556,61.3333333 124.444444,61.3333333" id="Fill-38" fill="#FFFFFF" mask="url(#mask-2)"></path>
                <path d="M124.444444,18.6666667 L85.3333333,18.6666667 C81.4062222,18.6666667 78.2222222,21.8506667 78.2222222,25.7777778 L78.2222222,54.2222222 C78.2222222,58.1493333 81.4062222,61.3333333 85.3333333,61.3333333 L124.444444,61.3333333 C128.371556,61.3333333 131.555556,58.1493333 131.555556,54.2222222 L131.555556,25.7777778 C131.555556,21.8506667 128.371556,18.6666667 124.444444,18.6666667 M124.444444,20.4444444 C127.385778,20.4444444 129.777778,22.8364444 129.777778,25.7777778 L129.777778,54.2222222 C129.777778,57.1635556 127.385778,59.5555556 124.444444,59.5555556 L85.3333333,59.5555556 C82.392,59.5555556 80,57.1635556 80,54.2222222 L80,25.7777778 C80,22.8364444 82.392,20.4444444 85.3333333,20.4444444 L124.444444,20.4444444" id="Fill-39" fill="#333333" mask="url(#mask-2)"></path>
                <polygon id="Fill-40" fill="#333333" mask="url(#mask-2)" points="78.2222222 28.4444444 131.555556 28.4444444 131.555556 26.6666667 78.2222222 26.6666667"></polygon>
                <path d="M108.444444,39.1111111 L85.3333333,39.1111111 C84.8417778,39.1111111 84.4444444,38.7128889 84.4444444,38.2222222 C84.4444444,37.7315556 84.8417778,37.3333333 85.3333333,37.3333333 L108.444444,37.3333333 C108.936,37.3333333 109.333333,37.7315556 109.333333,38.2222222 C109.333333,38.7128889 108.936,39.1111111 108.444444,39.1111111" id="Fill-41" fill="#333333" mask="url(#mask-2)"></path>
                <path d="M124.444444,39.1111111 L113.777778,39.1111111 C113.286222,39.1111111 112.888889,38.7128889 112.888889,38.2222222 C112.888889,37.7315556 113.286222,37.3333333 113.777778,37.3333333 L124.444444,37.3333333 C124.936,37.3333333 125.333333,37.7315556 125.333333,38.2222222 C125.333333,38.7128889 124.936,39.1111111 124.444444,39.1111111" id="Fill-42" fill="#333333" mask="url(#mask-2)"></path>
                <path d="M108.444444,44.4444444 L85.3333333,44.4444444 C84.8417778,44.4444444 84.4444444,44.0471111 84.4444444,43.5555556 C84.4444444,43.064 84.8417778,42.6666667 85.3333333,42.6666667 L108.444444,42.6666667 C108.936,42.6666667 109.333333,43.064 109.333333,43.5555556 C109.333333,44.0471111 108.936,44.4444444 108.444444,44.4444444" id="Fill-43" fill="#333333" mask="url(#mask-2)"></path>
                <path d="M124.444444,44.4444444 L113.777778,44.4444444 C113.286222,44.4444444 112.888889,44.0471111 112.888889,43.5555556 C112.888889,43.064 113.286222,42.6666667 113.777778,42.6666667 L124.444444,42.6666667 C124.936,42.6666667 125.333333,43.064 125.333333,43.5555556 C125.333333,44.0471111 124.936,44.4444444 124.444444,44.4444444" id="Fill-44" fill="#333333" mask="url(#mask-2)"></path>
                <path d="M108.444444,49.7777778 L85.3333333,49.7777778 C84.8417778,49.7777778 84.4444444,49.3804444 84.4444444,48.8888889 C84.4444444,48.3973333 84.8417778,48 85.3333333,48 L108.444444,48 C108.936,48 109.333333,48.3973333 109.333333,48.8888889 C109.333333,49.3804444 108.936,49.7777778 108.444444,49.7777778" id="Fill-45" fill="#333333" mask="url(#mask-2)"></path>
                <path d="M124.444444,49.7777778 L113.777778,49.7777778 C113.286222,49.7777778 112.888889,49.3804444 112.888889,48.8888889 C112.888889,48.3973333 113.286222,48 113.777778,48 L124.444444,48 C124.936,48 125.333333,48.3973333 125.333333,48.8888889 C125.333333,49.3804444 124.936,49.7777778 124.444444,49.7777778" id="Fill-46" fill="#333333" mask="url(#mask-2)"></path>
                <polygon id="Fill-47" fill="#FFFFFF" mask="url(#mask-2)" points="238.222222 133.333333 191.111111 133.333333 191.111111 62.2222222 228.8 62.2222222 238.222222 71.704"></polygon>
                <path d="M228.800356,62.2222222 L191.111467,62.2222222 L191.111467,133.333333 L238.222578,133.333333 L238.222578,71.704 L228.800356,62.2222222 Z M228.0608,64 L236.4448,72.4364444 L236.4448,131.555556 L192.889244,131.555556 L192.889244,64 L228.0608,64 Z" id="Fill-48" fill="#333333" mask="url(#mask-2)"></path>
                <polyline id="Fill-49" fill="#FFFFFF" mask="url(#mask-2)" points="227.555556 63.1111111 227.555556 72.8888889 237.333333 72.8888889"></polyline>
                <path d="M237.333333,73.7777778 L227.555556,73.7777778 C227.064,73.7777778 226.666667,73.3804444 226.666667,72.8888889 L226.666667,63.1111111 C226.666667,62.6195556 227.064,62.2222222 227.555556,62.2222222 C228.047111,62.2222222 228.444444,62.6195556 228.444444,63.1111111 L228.444444,72 L237.333333,72 C237.824889,72 238.222222,72.3973333 238.222222,72.8888889 C238.222222,73.3804444 237.824889,73.7777778 237.333333,73.7777778" id="Fill-50" fill="#333333" mask="url(#mask-2)"></path>
                <path d="M226.666667,93.3333333 L205.333333,93.3333333 L205.333333,109.333333 C205.333333,111.296889 206.925333,112.888889 208.888889,112.888889 L223.111111,112.888889 C225.074667,112.888889 226.666667,111.296889 226.666667,109.333333 L226.666667,93.3333333 Z M224.888889,95.1111111 L224.888889,109.333333 C224.888889,110.313778 224.091556,111.111111 223.111111,111.111111 L208.888889,111.111111 C207.908444,111.111111 207.111111,110.313778 207.111111,109.333333 L207.111111,95.1111111 L224.888889,95.1111111 Z" id="Fill-51" fill="#333333" mask="url(#mask-2)"></path>
                <path d="M216,84.4444444 C213.055111,84.4444444 210.666667,86.8328889 210.666667,89.7777778 L210.666667,95.1111111 L221.333333,95.1111111 L221.333333,89.7777778 C221.333333,86.8328889 218.944889,84.4444444 216,84.4444444 M216,86.2222222 C217.96,86.2222222 219.555556,87.8168889 219.555556,89.7777778 L219.555556,93.3333333 L212.444444,93.3333333 L212.444444,89.7777778 C212.444444,87.8168889 214.04,86.2222222 216,86.2222222" id="Fill-52" fill="#333333" mask="url(#mask-2)"></path>
                <path d="M216,102.222222 C215.508444,102.222222 215.111111,101.824889 215.111111,101.333333 L215.111111,97.7777778 C215.111111,97.2862222 215.508444,96.8888889 216,96.8888889 C216.491556,96.8888889 216.888889,97.2862222 216.888889,97.7777778 L216.888889,101.333333 C216.888889,101.824889 216.491556,102.222222 216,102.222222" id="Fill-53" fill="#333333" mask="url(#mask-2)"></path>
                <path d="M216,101.333333 C214.036444,101.333333 212.444444,102.925333 212.444444,104.888889 C212.444444,106.852444 214.036444,108.444444 216,108.444444 C217.963556,108.444444 219.555556,106.852444 219.555556,104.888889 C219.555556,102.925333 217.963556,101.333333 216,101.333333 M216,103.111111 C216.980444,103.111111 217.777778,103.908444 217.777778,104.888889 C217.777778,105.869333 216.980444,106.666667 216,106.666667 C215.019556,106.666667 214.222222,105.869333 214.222222,104.888889 C214.222222,103.908444 215.019556,103.111111 216,103.111111" id="Fill-54" fill="#333333" mask="url(#mask-2)"></path>
                <polygon id="Fill-55" fill="#2E72FE" mask="url(#mask-2)" points="93.3333333 93.3333333 112 93.3333333 112 74.6666667 93.3333333 74.6666667"></polygon>
                <path d="M94.2222222,92.4444444 L111.111111,92.4444444 L111.111111,75.5555556 L94.2222222,75.5555556 L94.2222222,92.4444444 Z M92.4444444,94.2222222 L112.888889,94.2222222 L112.888889,73.7777778 L92.4444444,73.7777778 L92.4444444,94.2222222 Z" id="Fill-56" fill="#333333" mask="url(#mask-2)"></path>
                <polygon id="Fill-57" fill="#2E72FE" mask="url(#mask-2)" points="57.7777778 152 76.4444444 152 76.4444444 133.333333 57.7777778 133.333333"></polygon>
                <path d="M58.6666667,151.111111 L75.5555556,151.111111 L75.5555556,134.222222 L58.6666667,134.222222 L58.6666667,151.111111 Z M56.8888889,152.888889 L77.3333333,152.888889 L77.3333333,132.444444 L56.8888889,132.444444 L56.8888889,152.888889 Z" id="Fill-58" fill="#333333" mask="url(#mask-2)"></path>
                <polygon id="Fill-59" fill="#2E72FE" mask="url(#mask-2)" points="200 158.222222 218.666667 158.222222 218.666667 139.555556 200 139.555556"></polygon>
                <path d="M200.888889,157.333333 L217.777778,157.333333 L217.777778,140.444444 L200.888889,140.444444 L200.888889,157.333333 Z M199.111111,159.111111 L219.555556,159.111111 L219.555556,138.666667 L199.111111,138.666667 L199.111111,159.111111 Z" id="Fill-60" fill="#333333" mask="url(#mask-2)"></path>
                <polygon id="Fill-61" fill="#2E72FE" mask="url(#mask-2)" points="157.333333 90.6666667 176 90.6666667 176 72 157.333333 72"></polygon>
                <path d="M158.222222,89.7777778 L175.111111,89.7777778 L175.111111,72.8888889 L158.222222,72.8888889 L158.222222,89.7777778 Z M156.444444,91.5555556 L176.888889,91.5555556 L176.888889,71.1111111 L156.444444,71.1111111 L156.444444,91.5555556 Z" id="Fill-62" fill="#333333" mask="url(#mask-2)"></path>
                <polygon id="Fill-63" fill="#FFFFFF" mask="url(#mask-2)" points="258.666667 181.333333 277.333333 181.333333 277.333333 162.666667 258.666667 162.666667"></polygon>
                <path d="M259.555556,180.444444 L276.444444,180.444444 L276.444444,163.555556 L259.555556,163.555556 L259.555556,180.444444 Z M257.777778,182.222222 L278.222222,182.222222 L278.222222,161.777778 L257.777778,161.777778 L257.777778,182.222222 Z" id="Fill-64" fill="#231F20" mask="url(#mask-2)"></path>
                <polygon id="Fill-65" fill="#FFFFFF" mask="url(#mask-2)" points="154.666667 19.5555556 173.333333 19.5555556 173.333333 0.888888889 154.666667 0.888888889"></polygon>
                <path d="M155.555556,18.6666667 L172.444444,18.6666667 L172.444444,1.77777778 L155.555556,1.77777778 L155.555556,18.6666667 Z M153.777778,20.4444444 L174.222222,20.4444444 L174.222222,0 L153.777778,0 L153.777778,20.4444444 Z" id="Fill-66" fill="#231F20" mask="url(#mask-2)"></path>
                <polygon id="Fill-67" fill="#FFFFFF" mask="url(#mask-2)" points="0.888888889 112 19.5555556 112 19.5555556 93.3333333 0.888888889 93.3333333"></polygon>
                <path d="M1.77777778,111.111111 L18.6666667,111.111111 L18.6666667,94.2222222 L1.77777778,94.2222222 L1.77777778,111.111111 Z M0,112.888889 L20.4444444,112.888889 L20.4444444,92.4444444 L0,92.4444444 L0,112.888889 Z" id="Fill-68" fill="#231F20" mask="url(#mask-2)"></path>
                <path d="M116.444444,230.222222 L27.5555556,230.222222 C27.064,230.222222 26.6666667,229.824889 26.6666667,229.333333 C26.6666667,228.841778 27.064,228.444444 27.5555556,228.444444 L116.444444,228.444444 C116.936,228.444444 117.333333,228.841778 117.333333,229.333333 C117.333333,229.824889 116.936,230.222222 116.444444,230.222222" id="Fill-69" fill="#333333" mask="url(#mask-2)"></path>
                <path d="M154.666667,248.888889 L65.7777778,248.888889 C65.2862222,248.888889 64.8888889,248.491556 64.8888889,248 C64.8888889,247.508444 65.2862222,247.111111 65.7777778,247.111111 L154.666667,247.111111 C155.158222,247.111111 155.555556,247.508444 155.555556,248 C155.555556,248.491556 155.158222,248.888889 154.666667,248.888889" id="Fill-70" fill="#333333" mask="url(#mask-2)"></path>
                <path d="M232,270.222222 L143.111111,270.222222 C142.619556,270.222222 142.222222,269.824889 142.222222,269.333333 C142.222222,268.841778 142.619556,268.444444 143.111111,268.444444 L232,268.444444 C232.491556,268.444444 232.888889,268.841778 232.888889,269.333333 C232.888889,269.824889 232.491556,270.222222 232,270.222222" id="Fill-71" fill="#333333" mask="url(#mask-2)"></path>
                <path d="M49.7777778,248.888889 L35.5555556,248.888889 C35.064,248.888889 34.6666667,248.491556 34.6666667,248 C34.6666667,247.508444 35.064,247.111111 35.5555556,247.111111 L49.7777778,247.111111 C50.2693333,247.111111 50.6666667,247.508444 50.6666667,248 C50.6666667,248.491556 50.2693333,248.888889 49.7777778,248.888889" id="Fill-72" fill="#333333" mask="url(#mask-2)"></path>
                <path d="M267.555556,248.888889 L178.666667,248.888889 C178.175111,248.888889 177.777778,248.491556 177.777778,248 C177.777778,247.508444 178.175111,247.111111 178.666667,247.111111 L267.555556,247.111111 C268.047111,247.111111 268.444444,247.508444 268.444444,248 C268.444444,248.491556 268.047111,248.888889 267.555556,248.888889" id="Fill-73" fill="#333333" mask="url(#mask-2)"></path>
                <path d="M303.111111,230.222222 L214.222222,230.222222 C213.730667,230.222222 213.333333,229.824889 213.333333,229.333333 C213.333333,228.841778 213.730667,228.444444 214.222222,228.444444 L303.111111,228.444444 C303.602667,228.444444 304,228.841778 304,229.333333 C304,229.824889 303.602667,230.222222 303.111111,230.222222" id="Fill-74" fill="#333333" mask="url(#mask-2)"></path>
                <polygon id="Fill-75" fill="#FFFFFF" mask="url(#mask-2)" points="257.777778 256.888889 276.444444 256.888889 276.444444 238.222222 257.777778 238.222222"></polygon>
                <path d="M258.666667,256 L275.555556,256 L275.555556,239.111111 L258.666667,239.111111 L258.666667,256 Z M256.888889,257.777778 L277.333333,257.777778 L277.333333,237.333333 L256.888889,237.333333 L256.888889,257.777778 Z" id="Fill-76" fill="#231F20" mask="url(#mask-2)"></path>
                <polygon id="Fill-77" fill="#FFFFFF" mask="url(#mask-2)" points="144.888889 256.888889 163.555556 256.888889 163.555556 238.222222 144.888889 238.222222"></polygon>
                <path d="M145.777778,256 L162.666667,256 L162.666667,239.111111 L145.777778,239.111111 L145.777778,256 Z M144,257.777778 L164.444444,257.777778 L164.444444,237.333333 L144,237.333333 L144,257.777778 Z" id="Fill-78" fill="#231F20" mask="url(#mask-2)"></path>
                <polygon id="Fill-79" fill="#FFFFFF" mask="url(#mask-2)" points="223.111111 279.111111 241.777778 279.111111 241.777778 260.444444 223.111111 260.444444"></polygon>
                <path d="M224,278.222222 L240.888889,278.222222 L240.888889,261.333333 L224,261.333333 L224,278.222222 Z M222.222222,280 L242.666667,280 L242.666667,259.555556 L222.222222,259.555556 L222.222222,280 Z" id="Fill-80" fill="#231F20" mask="url(#mask-2)"></path>
            </g>
        </g>
    </g>
</svg>