
<svg width="164px" height="29px" viewBox="0 0 164 29" version="1.1" xmlns="http://www.w3.org/2000/svg" xmlns:xlink="http://www.w3.org/1999/xlink">
    <g id="Page-1" stroke="none" stroke-width="1" fill="currentColor" fill-rule="evenodd">
        <g id="fluence-web-19-Frederike-Hovers" transform="translate(-80.000000, -40.000000)" fill="currentColor">
            <g id="fluencelogotype0801" transform="translate(80.000000, 40.000000)">
                <path d="M8.18286365,10.0867608 L8.17757009,7.03294455 C8.10488058,3.75567833 10.2492212,1.03703704 14.0654206,1.03703704 L15.5555556,1.03703704 L15.5192108,4.23981993 L14.5015576,4.23981993 C12.9023884,4.23981993 11.7030114,5.20810313 11.6666667,7.40536116 L11.6572026,10.0867608 L15.482866,10.0867608 L15.5192108,13.364027 L11.6456353,13.364027 L11.5939772,28 L8.21391485,28 L8.18854453,13.364027 L7.45067497,13.364027 C4.94288681,13.364027 3.23468328,14.7792101 3.23468328,17.1999182 C3.23468328,18.8757929 4.03426791,19.9930428 5.12461059,20.4399427 L5.12461059,23.9779006 C2.54413292,23.3447923 0,20.961326 0,17.1626765 C0,12.5447105 3.56178609,10.0867608 7.12357217,10.0867608 L8.18286365,10.0867608 Z" id="Fill-2"></path>
                <polygon id="Fill-3" points="20.7407407 28 23.8518519 28 23.8518519 1.03703704 20.7407407 1.03703704"></polygon>
                <path d="M37.8518519,28 C43.0990608,28 45.6296296,24.7258065 45.6296296,20.5107527 L45.6296296,9.33333333 L42.1314903,9.33333333 L42.1314903,20.0967742 C42.1314903,22.5053763 40.9034202,24.6505376 37.8518519,24.6505376 C34.9491405,24.6505376 33.5722134,22.5053763 33.5722134,20.0967742 L33.5722134,9.33333333 L30.0740741,9.33333333 L30.0740741,20.5107527 C30.0740741,24.7258065 32.7534999,28 37.8518519,28 Z" id="Fill-4"></path>
                <path d="M63.7701365,16.8949772 L53.5635088,16.8949772 C53.7490838,14.4840183 55.4192593,12.3287671 58.7596101,12.3287671 C62.062846,12.3287671 63.7330214,14.4840183 63.7701365,16.8949772 Z M66.8877973,25.0410959 L64.9207018,22.6666667 C63.6216764,23.7625571 62.137076,24.8584475 59.5390253,24.8584475 C55.9759844,24.8584475 53.5635088,22.7031963 53.4521637,19.6347032 L67.4074074,19.6347032 C67.4074074,19.4155251 67.4074074,19.0136986 67.4074074,18.4292237 C67.4074074,13.0593607 64.1041715,9.33333333 58.8709552,9.33333333 C53.6006238,9.33333333 49.7777778,13.0958904 49.7777778,18.7214612 C49.7777778,24.6392694 53.9346589,28 59.3163353,28 C63.5103314,28 65.997037,25.9543379 66.8877973,25.0410959 Z" id="Fill-5"></path>
                <path d="M78.2962963,9.33333333 C73.28072,9.33333333 70.5185185,12.8333333 70.5185185,17.5376344 L70.5185185,28 L73.9349256,28 L73.9349256,17.688172 C73.9349256,14.8655914 75.206992,12.7204301 78.2962963,12.7204301 C81.3856006,12.7204301 82.657667,14.8655914 82.657667,17.688172 L82.657667,28 L86.0740741,28 L86.0740741,17.5376344 C86.0740741,12.8333333 83.2391831,9.33333333 78.2962963,9.33333333 Z" id="Fill-6"></path>
                <path d="M99.6880405,12.46875 C102.24637,12.46875 103.488987,13.6354167 104.329581,14.328125 L106.339697,12.140625 C105.170175,11.0104167 102.977321,9.33333333 99.7611356,9.33333333 C94.1693588,9.33333333 90.2222222,13.1614583 90.2222222,18.5572917 C90.2222222,24.0989583 94.1328112,28 99.5418502,28 C103.598629,28 105.974221,25.9947917 106.814815,25.3020833 L104.841247,22.8958333 C104.402676,23.2239583 102.68494,24.828125 99.6149453,24.828125 C96.6911405,24.828125 93.7307881,22.6041667 93.7307881,18.59375 C93.7307881,14.6197917 96.5814978,12.46875 99.6880405,12.46875 Z" id="Fill-7"></path>
                <path d="M122.881248,16.8949772 L112.67462,16.8949772 C112.860195,14.4840183 114.53037,12.3287671 117.870721,12.3287671 C121.173957,12.3287671 122.844133,14.4840183 122.881248,16.8949772 Z M125.998908,25.0410959 L124.031813,22.6666667 C122.732788,23.7625571 121.248187,24.8584475 118.650136,24.8584475 C115.087096,24.8584475 112.67462,22.7031963 112.563275,19.6347032 L126.518519,19.6347032 C126.518519,19.4155251 126.518519,19.0136986 126.518519,18.4292237 C126.518519,13.0593607 123.215283,9.33333333 117.982066,9.33333333 C112.711735,9.33333333 108.888889,13.0958904 108.888889,18.7214612 C108.888889,24.6392694 113.04577,28 118.427446,28 C122.621442,28 125.108148,25.9543379 125.998908,25.0410959 Z" id="Fill-8"></path>
                <path d="M129.62963,25.4266118 C129.62963,26.8861454 130.743484,28 132.203018,28 C133.662551,28 134.814815,26.8861454 134.814815,25.4266118 C134.814815,23.9670782 133.662551,22.8148148 132.203018,22.8148148 C130.743484,22.8148148 129.62963,23.9670782 129.62963,25.4266118 Z" id="Fill-9"></path>
                <path d="M137.962963,23.1546858 C137.962963,26.0168732 140.409291,28.5777778 144.214689,28.5777778 C147.554121,28.5777778 149.417989,26.8454012 150.233432,25.5649489 C150.233432,26.8830615 150.349924,27.560948 150.427585,28.0128724 L154,28.0128724 C153.922339,27.560948 153.767016,26.619439 153.767016,25.0377038 L153.767016,15.9615569 C153.767016,12.4214829 151.437181,9.33333333 146.156219,9.33333333 C143.671061,9.33333333 141.457717,10.237182 139.671509,11.6682757 L141.302394,14.1161992 C142.428482,13.2500109 144.098197,12.4214829 146.000897,12.4214829 C148.719039,12.4214829 150.11694,13.8149163 150.11694,15.5849533 C150.11694,15.8862361 150.11694,16.2628397 150.11694,16.6771037 C149.767465,16.7524244 149.340328,16.8277452 148.680208,16.9407262 L143.63223,17.6562731 C140.409291,18.1081974 137.962963,19.9158948 137.962963,23.1546858 Z M144.719487,25.6026093 C142.855618,25.6026093 141.6907,24.322157 141.6907,22.966384 C141.6907,21.3469885 142.855618,20.4808002 144.408842,20.254838 L150.11694,19.4263101 L150.11694,20.254838 C150.11694,24.2091759 147.709443,25.6026093 144.719487,25.6026093 Z" id="Fill-10"></path>
                <path d="M158.836499,27.962963 L162.540994,27.962963 L162.540994,9.56325683 L158.836499,9.56325683 L158.836499,27.962963 Z M158,2.60120586 C158,4.01656787 159.194998,5.16415869 160.66883,5.16415869 C162.182494,5.16415869 163.377493,4.01656787 163.377493,2.60120586 C163.377493,1.14759082 162.182494,0 160.66883,0 C159.194998,0 158,1.14759082 158,2.60120586 Z" id="Fill-11"></path>
            </g>
        </g>
    </g>
</svg>