
<svg width="164px" height="29px" viewBox="0 0 164 29" version="1.1" xmlns="http://www.w3.org/2000/svg" xmlns:xlink="http://www.w3.org/1999/xlink">
    <g id="Page-1" stroke="none" stroke-width="1" fill="none" fill-rule="evenodd">
        <g id="fluence-web-19-Frederike" transform="translate(-80.000000, -41.000000)" fill="#000000">
            <g id="fluencelogotype0801" transform="translate(80.000000, 41.000000)">
                <path d="M8.18286365,9.08676079 L8.17757009,6.03294455 C8.10488058,2.75567833 10.2492212,0.037037037 14.0654206,0.037037037 L15.5555556,0.037037037 L15.5192108,3.23981993 L14.5015576,3.23981993 C12.9023884,3.23981993 11.7030114,4.20810313 11.6666667,6.40536116 L11.6572026,9.08676079 L15.482866,9.08676079 L15.5192108,12.364027 L11.6456353,12.364027 L11.5939772,27 L8.21391485,27 L8.18854453,12.364027 L7.45067497,12.364027 C4.94288681,12.364027 3.23468328,13.7792101 3.23468328,16.1999182 C3.23468328,17.8757929 4.03426791,18.9930428 5.12461059,19.4399427 L5.12461059,22.9779006 C2.54413292,22.3447923 0,19.961326 0,16.1626765 C0,11.5447105 3.56178609,9.08676079 7.12357217,9.08676079 L8.18286365,9.08676079 Z" id="Fill-2"></path>
                <polygon id="Fill-3" points="20.7407407 27 23.8518519 27 23.8518519 0.037037037 20.7407407 0.037037037"></polygon>
                <path d="M37.8518519,27 C43.0990608,27 45.6296296,23.7258065 45.6296296,19.5107527 L45.6296296,8.33333333 L42.1314903,8.33333333 L42.1314903,19.0967742 C42.1314903,21.5053763 40.9034202,23.6505376 37.8518519,23.6505376 C34.9491405,23.6505376 33.5722134,21.5053763 33.5722134,19.0967742 L33.5722134,8.33333333 L30.0740741,8.33333333 L30.0740741,19.5107527 C30.0740741,23.7258065 32.7534999,27 37.8518519,27 Z" id="Fill-4"></path>
                <path d="M63.7701365,15.8949772 L53.5635088,15.8949772 C53.7490838,13.4840183 55.4192593,11.3287671 58.7596101,11.3287671 C62.062846,11.3287671 63.7330214,13.4840183 63.7701365,15.8949772 Z M66.8877973,24.0410959 L64.9207018,21.6666667 C63.6216764,22.7625571 62.137076,23.8584475 59.5390253,23.8584475 C55.9759844,23.8584475 53.5635088,21.7031963 53.4521637,18.6347032 L67.4074074,18.6347032 C67.4074074,18.4155251 67.4074074,18.0136986 67.4074074,17.4292237 C67.4074074,12.0593607 64.1041715,8.33333333 58.8709552,8.33333333 C53.6006238,8.33333333 49.7777778,12.0958904 49.7777778,17.7214612 C49.7777778,23.6392694 53.9346589,27 59.3163353,27 C63.5103314,27 65.997037,24.9543379 66.8877973,24.0410959 Z" id="Fill-5"></path>
                <path d="M78.2962963,8.33333333 C73.28072,8.33333333 70.5185185,11.8333333 70.5185185,16.5376344 L70.5185185,27 L73.9349256,27 L73.9349256,16.688172 C73.9349256,13.8655914 75.206992,11.7204301 78.2962963,11.7204301 C81.3856006,11.7204301 82.657667,13.8655914 82.657667,16.688172 L82.657667,27 L86.0740741,27 L86.0740741,16.5376344 C86.0740741,11.8333333 83.2391831,8.33333333 78.2962963,8.33333333 Z" id="Fill-6"></path>
                <path d="M99.6880405,11.46875 C102.24637,11.46875 103.488987,12.6354167 104.329581,13.328125 L106.339697,11.140625 C105.170175,10.0104167 102.977321,8.33333333 99.7611356,8.33333333 C94.1693588,8.33333333 90.2222222,12.1614583 90.2222222,17.5572917 C90.2222222,23.0989583 94.1328112,27 99.5418502,27 C103.598629,27 105.974221,24.9947917 106.814815,24.3020833 L104.841247,21.8958333 C104.402676,22.2239583 102.68494,23.828125 99.6149453,23.828125 C96.6911405,23.828125 93.7307881,21.6041667 93.7307881,17.59375 C93.7307881,13.6197917 96.5814978,11.46875 99.6880405,11.46875 Z" id="Fill-7"></path>
                <path d="M122.881248,15.8949772 L112.67462,15.8949772 C112.860195,13.4840183 114.53037,11.3287671 117.870721,11.3287671 C121.173957,11.3287671 122.844133,13.4840183 122.881248,15.8949772 Z M125.998908,24.0410959 L124.031813,21.6666667 C122.732788,22.7625571 121.248187,23.8584475 118.650136,23.8584475 C115.087096,23.8584475 112.67462,21.7031963 112.563275,18.6347032 L126.518519,18.6347032 C126.518519,18.4155251 126.518519,18.0136986 126.518519,17.4292237 C126.518519,12.0593607 123.215283,8.33333333 117.982066,8.33333333 C112.711735,8.33333333 108.888889,12.0958904 108.888889,17.7214612 C108.888889,23.6392694 113.04577,27 118.427446,27 C122.621442,27 125.108148,24.9543379 125.998908,24.0410959 Z" id="Fill-8"></path>
            </g>
        </g>
    </g>
</svg>
