<svg width="1280px" height="846px" viewBox="0 0 1280 846" version="1.1" xmlns="http://www.w3.org/2000/svg" xmlns:xlink="http://www.w3.org/1999/xlink">
    <g id="Page-1" stroke="none" stroke-width="1" fill="none" fill-rule="evenodd" opacity="0.697527985" stroke-linecap="square">
        <g id="fluence-web-19-Frederike" transform="translate(0.000000, -1891.000000)" stroke="#0A36FD">
            <g id="Looper_Group" transform="translate(448.500000, 2314.000000) scale(-1, -1) translate(-448.500000, -2314.000000) translate(-626.000000, 1891.000000)">
                <g id="original_original_original_Line-2_19773957_13492737_67220383-Group">
                    <path d="M1130.44552,423.023142 L2152.46055,423.023142" id="duplicate_50_original_original_original_Line-2_19773957_13492737_67220383" opacity="0" style="mix-blend-mode: multiply;" transform="translate(1641.453033, 423.023142) rotate(352.800000) translate(-1641.453033, -423.023142) "></path>
                    <path d="M1107.3752,423.02352 L2113.24101,423.02352" id="duplicate_49_original_original_original_Line-2_19773957_13492737_67220383" opacity="0.02" style="mix-blend-mode: multiply;" transform="translate(1610.308105, 423.023520) rotate(345.600000) translate(-1610.308105, -423.023520) "></path>
                    <path d="M1084.30488,423.02391 L2074.02147,423.02391" id="duplicate_48_original_original_original_Line-2_19773957_13492737_67220383" opacity="0.04" style="mix-blend-mode: multiply;" transform="translate(1579.163178, 423.023910) rotate(338.400000) translate(-1579.163178, -423.023910) "></path>
                    <path d="M1061.23457,423.024313 L2034.80193,423.024313" id="duplicate_47_original_original_original_Line-2_19773957_13492737_67220383" opacity="0.06" style="mix-blend-mode: multiply;" transform="translate(1548.018250, 423.024313) rotate(331.200000) translate(-1548.018250, -423.024313) "></path>
                    <path d="M1038.16425,423.02473 L1995.58239,423.02473" id="duplicate_46_original_original_original_Line-2_19773957_13492737_67220383" opacity="0.08" style="mix-blend-mode: multiply;" transform="translate(1516.873323, 423.024730) rotate(324.000000) translate(-1516.873323, -423.024730) "></path>
                    <path d="M1015.09393,423.025162 L1956.36286,423.025162" id="duplicate_45_original_original_original_Line-2_19773957_13492737_67220383" opacity="0.1" style="mix-blend-mode: multiply;" transform="translate(1485.728395, 423.025162) rotate(316.800000) translate(-1485.728395, -423.025162) "></path>
                    <path d="M992.023618,423.025609 L1917.14332,423.025609" id="duplicate_44_original_original_original_Line-2_19773957_13492737_67220383" opacity="0.12" style="mix-blend-mode: multiply;" transform="translate(1454.583468, 423.025609) rotate(309.600000) translate(-1454.583468, -423.025609) "></path>
                    <path d="M968.953301,423.026072 L1877.92378,423.026072" id="duplicate_43_original_original_original_Line-2_19773957_13492737_67220383" opacity="0.14" style="mix-blend-mode: multiply;" transform="translate(1423.438540, 423.026072) rotate(302.400000) translate(-1423.438540, -423.026072) "></path>
                    <path d="M945.882984,423.026552 L1838.70424,423.026552" id="duplicate_42_original_original_original_Line-2_19773957_13492737_67220383" opacity="0.16" style="mix-blend-mode: multiply;" transform="translate(1392.293612, 423.026552) rotate(295.200000) translate(-1392.293612, -423.026552) "></path>
                    <path d="M922.812668,423.027051 L1799.4847,423.027051" id="duplicate_41_original_original_original_Line-2_19773957_13492737_67220383" opacity="0.18" style="mix-blend-mode: multiply;" transform="translate(1361.148685, 423.027051) rotate(288.000000) translate(-1361.148685, -423.027051) "></path>
                    <path d="M899.742351,423.027568 L1760.26516,423.027568" id="duplicate_40_original_original_original_Line-2_19773957_13492737_67220383" opacity="0.2" style="mix-blend-mode: multiply;" transform="translate(1330.003757, 423.027568) rotate(280.800000) translate(-1330.003757, -423.027568) "></path>
                    <path d="M876.672034,423.028106 L1721.04563,423.028106" id="duplicate_39_original_original_original_Line-2_19773957_13492737_67220383" opacity="0.22" style="mix-blend-mode: multiply;" transform="translate(1298.858830, 423.028106) rotate(273.600000) translate(-1298.858830, -423.028106) "></path>
                    <path d="M853.601718,423.028665 L1681.82609,423.028665" id="duplicate_38_original_original_original_Line-2_19773957_13492737_67220383" opacity="0.24" style="mix-blend-mode: multiply;" transform="translate(1267.713902, 423.028665) rotate(266.400000) translate(-1267.713902, -423.028665) "></path>
                    <path d="M830.531401,423.029246 L1642.60655,423.029246" id="duplicate_37_original_original_original_Line-2_19773957_13492737_67220383" opacity="0.26" style="mix-blend-mode: multiply;" transform="translate(1236.568975, 423.029246) rotate(259.200000) translate(-1236.568975, -423.029246) "></path>
                    <path d="M807.461084,423.029852 L1603.38701,423.029852" id="duplicate_36_original_original_original_Line-2_19773957_13492737_67220383" opacity="0.28" style="mix-blend-mode: multiply;" transform="translate(1205.424047, 423.029852) rotate(252.000000) translate(-1205.424047, -423.029852) "></path>
                    <path d="M784.390768,423.030483 L1564.16747,423.030483" id="duplicate_35_original_original_original_Line-2_19773957_13492737_67220383" opacity="0.3" style="mix-blend-mode: multiply;" transform="translate(1174.279120, 423.030483) rotate(244.800000) translate(-1174.279120, -423.030483) "></path>
                    <path d="M761.320451,423.031142 L1524.94793,423.031142" id="duplicate_34_original_original_original_Line-2_19773957_13492737_67220383" opacity="0.32" style="mix-blend-mode: multiply;" transform="translate(1143.134192, 423.031142) rotate(237.600000) translate(-1143.134192, -423.031142) "></path>
                    <path d="M738.250134,423.031829 L1485.7284,423.031829" id="duplicate_33_original_original_original_Line-2_19773957_13492737_67220383" opacity="0.34" style="mix-blend-mode: multiply;" transform="translate(1111.989265, 423.031829) rotate(230.400000) translate(-1111.989265, -423.031829) "></path>
                    <path d="M715.179817,423.032548 L1446.50886,423.032548" id="duplicate_32_original_original_original_Line-2_19773957_13492737_67220383" opacity="0.36" style="mix-blend-mode: multiply;" transform="translate(1080.844337, 423.032548) rotate(223.200000) translate(-1080.844337, -423.032548) "></path>
                    <path d="M692.109501,423.0333 L1407.28932,423.0333" id="duplicate_31_original_original_original_Line-2_19773957_13492737_67220383" opacity="0.38" style="mix-blend-mode: multiply;" transform="translate(1049.699410, 423.033300) rotate(216.000000) translate(-1049.699410, -423.033300) "></path>
                    <path d="M669.039184,423.034088 L1368.06978,423.034088" id="duplicate_30_original_original_original_Line-2_19773957_13492737_67220383" opacity="0.4" style="mix-blend-mode: multiply;" transform="translate(1018.554482, 423.034088) rotate(208.800000) translate(-1018.554482, -423.034088) "></path>
                    <path d="M645.968867,423.034913 L1328.85024,423.034913" id="duplicate_29_original_original_original_Line-2_19773957_13492737_67220383" opacity="0.42" style="mix-blend-mode: multiply;" transform="translate(987.409554, 423.034913) rotate(201.600000) translate(-987.409554, -423.034913) "></path>
                    <path d="M622.898551,423.03578 L1289.6307,423.03578" id="duplicate_28_original_original_original_Line-2_19773957_13492737_67220383" opacity="0.44" style="mix-blend-mode: multiply;" transform="translate(956.264627, 423.035780) rotate(194.400000) translate(-956.264627, -423.035780) "></path>
                    <path d="M599.828234,423.036691 L1250.41116,423.036691" id="duplicate_27_original_original_original_Line-2_19773957_13492737_67220383" opacity="0.46" style="mix-blend-mode: multiply;" transform="translate(925.119699, 423.036691) rotate(187.200000) translate(-925.119699, -423.036691) "></path>
                    <path d="M576.757917,423.037649 L1211.19163,423.037649" id="duplicate_26_original_original_original_Line-2_19773957_13492737_67220383" opacity="0.48" style="mix-blend-mode: multiply;" transform="translate(893.974772, 423.037649) rotate(180.000000) translate(-893.974772, -423.037649) "></path>
                    <path d="M553.687601,423.038659 L1171.97209,423.038659" id="duplicate_25_original_original_original_Line-2_19773957_13492737_67220383" opacity="0.5" style="mix-blend-mode: multiply;" transform="translate(862.829844, 423.038659) rotate(172.800000) translate(-862.829844, -423.038659) "></path>
                    <path d="M530.617284,423.039724 L1132.75255,423.039724" id="duplicate_24_original_original_original_Line-2_19773957_13492737_67220383" opacity="0.52" style="mix-blend-mode: multiply;" transform="translate(831.684917, 423.039724) rotate(165.600000) translate(-831.684917, -423.039724) "></path>
                    <path d="M507.546967,423.04085 L1093.53301,423.04085" id="duplicate_23_original_original_original_Line-2_19773957_13492737_67220383" opacity="0.54" style="mix-blend-mode: multiply;" transform="translate(800.539989, 423.040850) rotate(158.400000) translate(-800.539989, -423.040850) "></path>
                    <path d="M484.476651,423.042041 L1054.31347,423.042041" id="duplicate_22_original_original_original_Line-2_19773957_13492737_67220383" opacity="0.56" style="mix-blend-mode: multiply;" transform="translate(769.395062, 423.042041) rotate(151.200000) translate(-769.395062, -423.042041) "></path>
                    <path d="M461.406334,423.043304 L1015.09393,423.043304" id="duplicate_21_original_original_original_Line-2_19773957_13492737_67220383" opacity="0.58" style="mix-blend-mode: multiply;" transform="translate(738.250134, 423.043304) rotate(144.000000) translate(-738.250134, -423.043304) "></path>
                    <path d="M438.336017,423.044646 L975.874396,423.044646" id="duplicate_20_original_original_original_Line-2_19773957_13492737_67220383" opacity="0.6" style="mix-blend-mode: multiply;" transform="translate(707.105207, 423.044646) rotate(136.800000) translate(-707.105207, -423.044646) "></path>
                    <path d="M415.2657,423.046073 L936.654858,423.046073" id="duplicate_19_original_original_original_Line-2_19773957_13492737_67220383" opacity="0.62" style="mix-blend-mode: multiply;" transform="translate(675.960279, 423.046073) rotate(129.600000) translate(-675.960279, -423.046073) "></path>
                    <path d="M392.195384,423.047594 L897.435319,423.047594" id="duplicate_18_original_original_original_Line-2_19773957_13492737_67220383" opacity="0.64" style="mix-blend-mode: multiply;" transform="translate(644.815352, 423.047594) rotate(122.400000) translate(-644.815352, -423.047594) "></path>
                    <path d="M369.125067,423.049219 L858.215781,423.049219" id="duplicate_17_original_original_original_Line-2_19773957_13492737_67220383" opacity="0.66" style="mix-blend-mode: multiply;" transform="translate(613.670424, 423.049219) rotate(115.200000) translate(-613.670424, -423.049219) "></path>
                    <path d="M346.05475,423.050959 L818.996243,423.050959" id="duplicate_16_original_original_original_Line-2_19773957_13492737_67220383" opacity="0.68" style="mix-blend-mode: multiply;" transform="translate(582.525497, 423.050959) rotate(108.000000) translate(-582.525497, -423.050959) "></path>
                    <path d="M322.984434,423.052827 L779.776704,423.052827" id="duplicate_15_original_original_original_Line-2_19773957_13492737_67220383" opacity="0.7" style="mix-blend-mode: multiply;" transform="translate(551.380569, 423.052827) rotate(100.800000) translate(-551.380569, -423.052827) "></path>
                    <path d="M299.914117,423.054837 L740.557166,423.054837" id="duplicate_14_original_original_original_Line-2_19773957_13492737_67220383" opacity="0.72" style="mix-blend-mode: multiply;" transform="translate(520.235641, 423.054837) rotate(93.600000) translate(-520.235641, -423.054837) "></path>
                    <path d="M276.8438,423.057005 L701.337627,423.057005" id="duplicate_13_original_original_original_Line-2_19773957_13492737_67220383" opacity="0.74" style="mix-blend-mode: multiply;" transform="translate(489.090714, 423.057005) rotate(86.400000) translate(-489.090714, -423.057005) "></path>
                    <path d="M253.773484,423.059352 L662.118089,423.059352" id="duplicate_12_original_original_original_Line-2_19773957_13492737_67220383" opacity="0.76" style="mix-blend-mode: multiply;" transform="translate(457.945786, 423.059352) rotate(79.200000) translate(-457.945786, -423.059352) "></path>
                    <path d="M230.703167,423.061901 L622.898551,423.061901" id="duplicate_11_original_original_original_Line-2_19773957_13492737_67220383" opacity="0.78" style="mix-blend-mode: multiply;" transform="translate(426.800859, 423.061901) rotate(72.000000) translate(-426.800859, -423.061901) "></path>
                    <path d="M207.63285,423.064679 L583.679012,423.064679" id="duplicate_10_original_original_original_Line-2_19773957_13492737_67220383" opacity="0.8" style="mix-blend-mode: multiply;" transform="translate(395.655931, 423.064679) rotate(64.800000) translate(-395.655931, -423.064679) "></path>
                    <path d="M184.562534,423.067718 L544.459474,423.067718" id="duplicate_9_original_original_original_Line-2_19773957_13492737_67220383" opacity="0.82" style="mix-blend-mode: multiply;" transform="translate(364.511004, 423.067718) rotate(57.600000) translate(-364.511004, -423.067718) "></path>
                    <path d="M161.492217,423.071056 L505.239936,423.071056" id="duplicate_8_original_original_original_Line-2_19773957_13492737_67220383" opacity="0.84" style="mix-blend-mode: multiply;" transform="translate(333.366076, 423.071056) rotate(50.400000) translate(-333.366076, -423.071056) "></path>
                    <path d="M138.4219,423.07474 L466.020397,423.07474" id="duplicate_7_original_original_original_Line-2_19773957_13492737_67220383" opacity="0.86" style="mix-blend-mode: multiply;" transform="translate(302.221149, 423.074740) rotate(43.200000) translate(-302.221149, -423.074740) "></path>
                    <path d="M115.351583,423.078827 L426.800859,423.078827" id="duplicate_6_original_original_original_Line-2_19773957_13492737_67220383" opacity="0.88" style="mix-blend-mode: multiply;" transform="translate(271.076221, 423.078827) rotate(36.000000) translate(-271.076221, -423.078827) "></path>
                    <path d="M92.2812668,423.083388 L387.58132,423.083388" id="duplicate_5_original_original_original_Line-2_19773957_13492737_67220383" opacity="0.9" style="mix-blend-mode: multiply;" transform="translate(239.931294, 423.083388) rotate(28.800000) translate(-239.931294, -423.083388) "></path>
                    <path d="M69.2109501,423.088508 L348.361782,423.088508" id="duplicate_4_original_original_original_Line-2_19773957_13492737_67220383" opacity="0.92" style="mix-blend-mode: multiply;" transform="translate(208.786366, 423.088508) rotate(21.600000) translate(-208.786366, -423.088508) "></path>
                    <path d="M46.1406334,423.094298 L309.142244,423.094298" id="duplicate_3_original_original_original_Line-2_19773957_13492737_67220383" opacity="0.94" style="mix-blend-mode: multiply;" transform="translate(177.641439, 423.094298) rotate(14.400000) translate(-177.641439, -423.094298) "></path>
                    <path d="M23.0703167,423.100899 L269.922705,423.100899" id="duplicate_2_original_original_original_Line-2_19773957_13492737_67220383" opacity="0.96" style="mix-blend-mode: multiply;" transform="translate(146.496511, 423.100899) rotate(7.200000) translate(-146.496511, -423.100899) "></path>
                </g>
            </g>
        </g>
    </g>
</svg>