<svg width="1280px" height="197px" viewBox="0 0 1280 197" version="1.1" xmlns="http://www.w3.org/2000/svg" xmlns:xlink="http://www.w3.org/1999/xlink">
    <g id="Page-1" stroke="none" stroke-width="1" fill="none" fill-rule="evenodd" stroke-linecap="square">
        <g id="fluence-web-19-Frederike-Hovers" transform="translate(0.000000, -375.000000)" stroke="#0A36FD">
            <g id="Looper_Group" style="mix-blend-mode: multiply;" transform="translate(-75.000000, 376.000000)">
                <g id="original_original_original_Line_46387315_8903158_64067787-Group">
                    <path d="M1366.67399,194.548611 L1366.67399,0.43249446" id="duplicate_77_original_original_original_Line_46387315_8903158_64067787" opacity="0.9625" transform="translate(1366.673995, 97.500000) rotate(342.000000) translate(-1366.673995, -97.500000) "></path>
                    <path d="M1348.70917,194.548611 L1348.70917,0.43249446" id="duplicate_76_original_original_original_Line_46387315_8903158_64067787" opacity="0.95" transform="translate(1348.709171, 97.500000) rotate(337.500000) translate(-1348.709171, -97.500000) "></path>
                    <path d="M1330.74435,194.548611 L1330.74435,0.43249446" id="duplicate_75_original_original_original_Line_46387315_8903158_64067787" opacity="0.9375" transform="translate(1330.744347, 97.500000) rotate(333.000000) translate(-1330.744347, -97.500000) "></path>
                    <path d="M1312.77952,194.548611 L1312.77952,0.43249446" id="duplicate_74_original_original_original_Line_46387315_8903158_64067787" opacity="0.925" transform="translate(1312.779523, 97.500000) rotate(328.500000) translate(-1312.779523, -97.500000) "></path>
                    <path d="M1294.8147,194.548611 L1294.8147,0.43249446" id="duplicate_73_original_original_original_Line_46387315_8903158_64067787" opacity="0.9125" transform="translate(1294.814698, 97.500000) rotate(324.000000) translate(-1294.814698, -97.500000) "></path>
                    <path d="M1276.84987,194.548611 L1276.84987,0.43249446" id="duplicate_72_original_original_original_Line_46387315_8903158_64067787" opacity="0.9" transform="translate(1276.849874, 97.500000) rotate(319.500000) translate(-1276.849874, -97.500000) "></path>
                    <path d="M1258.88505,194.548611 L1258.88505,0.43249446" id="duplicate_71_original_original_original_Line_46387315_8903158_64067787" opacity="0.8875" transform="translate(1258.885050, 97.500000) rotate(315.000000) translate(-1258.885050, -97.500000) "></path>
                    <path d="M1240.92023,194.548611 L1240.92023,0.43249446" id="duplicate_70_original_original_original_Line_46387315_8903158_64067787" opacity="0.875" transform="translate(1240.920226, 97.500000) rotate(310.500000) translate(-1240.920226, -97.500000) "></path>
                    <path d="M1222.9554,194.548611 L1222.9554,0.43249446" id="duplicate_69_original_original_original_Line_46387315_8903158_64067787" opacity="0.8625" transform="translate(1222.955402, 97.500000) rotate(306.000000) translate(-1222.955402, -97.500000) "></path>
                    <path d="M1204.99058,194.548611 L1204.99058,0.43249446" id="duplicate_68_original_original_original_Line_46387315_8903158_64067787" opacity="0.85" transform="translate(1204.990578, 97.500000) rotate(301.500000) translate(-1204.990578, -97.500000) "></path>
                    <path d="M1187.02575,194.548611 L1187.02575,0.43249446" id="duplicate_67_original_original_original_Line_46387315_8903158_64067787" opacity="0.8375" transform="translate(1187.025754, 97.500000) rotate(297.000000) translate(-1187.025754, -97.500000) "></path>
                    <path d="M1169.06093,194.548611 L1169.06093,0.43249446" id="duplicate_66_original_original_original_Line_46387315_8903158_64067787" opacity="0.825" transform="translate(1169.060930, 97.500000) rotate(292.500000) translate(-1169.060930, -97.500000) "></path>
                    <path d="M1151.09611,194.548611 L1151.09611,0.43249446" id="duplicate_65_original_original_original_Line_46387315_8903158_64067787" opacity="0.8125" transform="translate(1151.096106, 97.500000) rotate(288.000000) translate(-1151.096106, -97.500000) "></path>
                    <path d="M1133.13128,194.548611 L1133.13128,0.43249446" id="duplicate_64_original_original_original_Line_46387315_8903158_64067787" opacity="0.8" transform="translate(1133.131281, 97.500000) rotate(283.500000) translate(-1133.131281, -97.500000) "></path>
                    <path d="M1115.16646,194.548611 L1115.16646,0.43249446" id="duplicate_63_original_original_original_Line_46387315_8903158_64067787" opacity="0.7875" transform="translate(1115.166457, 97.500000) rotate(279.000000) translate(-1115.166457, -97.500000) "></path>
                    <path d="M1097.20163,194.548611 L1097.20163,0.43249446" id="duplicate_62_original_original_original_Line_46387315_8903158_64067787" opacity="0.775" transform="translate(1097.201633, 97.500000) rotate(274.500000) translate(-1097.201633, -97.500000) "></path>
                    <path d="M1079.23681,194.548611 L1079.23681,0.43249446" id="duplicate_61_original_original_original_Line_46387315_8903158_64067787" opacity="0.7625" transform="translate(1079.236809, 97.500000) rotate(270.000000) translate(-1079.236809, -97.500000) "></path>
                    <path d="M1061.27198,194.548611 L1061.27198,0.43249446" id="duplicate_60_original_original_original_Line_46387315_8903158_64067787" opacity="0.75" transform="translate(1061.271985, 97.500000) rotate(265.500000) translate(-1061.271985, -97.500000) "></path>
                    <path d="M1043.30716,194.548611 L1043.30716,0.43249446" id="duplicate_59_original_original_original_Line_46387315_8903158_64067787" opacity="0.7375" transform="translate(1043.307161, 97.500000) rotate(261.000000) translate(-1043.307161, -97.500000) "></path>
                    <path d="M1025.34234,194.548611 L1025.34234,0.43249446" id="duplicate_58_original_original_original_Line_46387315_8903158_64067787" opacity="0.725" transform="translate(1025.342337, 97.500000) rotate(256.500000) translate(-1025.342337, -97.500000) "></path>
                    <path d="M1007.37751,194.548611 L1007.37751,0.43249446" id="duplicate_57_original_original_original_Line_46387315_8903158_64067787" opacity="0.7125" transform="translate(1007.377513, 97.500000) rotate(252.000000) translate(-1007.377513, -97.500000) "></path>
                    <path d="M989.412688,194.548611 L989.412688,0.43249446" id="duplicate_56_original_original_original_Line_46387315_8903158_64067787" opacity="0.7" transform="translate(989.412688, 97.500000) rotate(247.500000) translate(-989.412688, -97.500000) "></path>
                    <path d="M971.447864,194.548611 L971.447864,0.43249446" id="duplicate_55_original_original_original_Line_46387315_8903158_64067787" opacity="0.6875" transform="translate(971.447864, 97.500000) rotate(243.000000) translate(-971.447864, -97.500000) "></path>
                    <path d="M953.48304,194.548611 L953.48304,0.43249446" id="duplicate_54_original_original_original_Line_46387315_8903158_64067787" opacity="0.675" transform="translate(953.483040, 97.500000) rotate(238.500000) translate(-953.483040, -97.500000) "></path>
                    <path d="M935.518216,194.548611 L935.518216,0.43249446" id="duplicate_53_original_original_original_Line_46387315_8903158_64067787" opacity="0.6625" transform="translate(935.518216, 97.500000) rotate(234.000000) translate(-935.518216, -97.500000) "></path>
                    <path d="M917.553392,194.548611 L917.553392,0.43249446" id="duplicate_52_original_original_original_Line_46387315_8903158_64067787" opacity="0.65" transform="translate(917.553392, 97.500000) rotate(229.500000) translate(-917.553392, -97.500000) "></path>
                    <path d="M899.588568,194.548611 L899.588568,0.43249446" id="duplicate_51_original_original_original_Line_46387315_8903158_64067787" opacity="0.6375" transform="translate(899.588568, 97.500000) rotate(225.000000) translate(-899.588568, -97.500000) "></path>
                    <path d="M881.623744,194.548611 L881.623744,0.43249446" id="duplicate_50_original_original_original_Line_46387315_8903158_64067787" opacity="0.625" transform="translate(881.623744, 97.500000) rotate(220.500000) translate(-881.623744, -97.500000) "></path>
                    <path d="M863.65892,194.548611 L863.65892,0.43249446" id="duplicate_49_original_original_original_Line_46387315_8903158_64067787" opacity="0.6125" transform="translate(863.658920, 97.500000) rotate(216.000000) translate(-863.658920, -97.500000) "></path>
                    <path d="M845.694095,194.548611 L845.694095,0.43249446" id="duplicate_48_original_original_original_Line_46387315_8903158_64067787" opacity="0.6" transform="translate(845.694095, 97.500000) rotate(211.500000) translate(-845.694095, -97.500000) "></path>
                    <path d="M827.729271,194.548611 L827.729271,0.43249446" id="duplicate_47_original_original_original_Line_46387315_8903158_64067787" opacity="0.5875" transform="translate(827.729271, 97.500000) rotate(207.000000) translate(-827.729271, -97.500000) "></path>
                    <path d="M809.764447,194.548611 L809.764447,0.43249446" id="duplicate_46_original_original_original_Line_46387315_8903158_64067787" opacity="0.575" transform="translate(809.764447, 97.500000) rotate(202.500000) translate(-809.764447, -97.500000) "></path>
                    <path d="M791.799623,194.548611 L791.799623,0.43249446" id="duplicate_45_original_original_original_Line_46387315_8903158_64067787" opacity="0.5625" transform="translate(791.799623, 97.500000) rotate(198.000000) translate(-791.799623, -97.500000) "></path>
                    <path d="M773.834799,194.548611 L773.834799,0.43249446" id="duplicate_44_original_original_original_Line_46387315_8903158_64067787" opacity="0.55" transform="translate(773.834799, 97.500000) rotate(193.500000) translate(-773.834799, -97.500000) "></path>
                    <path d="M755.869975,194.548611 L755.869975,0.43249446" id="duplicate_43_original_original_original_Line_46387315_8903158_64067787" opacity="0.5375" transform="translate(755.869975, 97.500000) rotate(189.000000) translate(-755.869975, -97.500000) "></path>
                    <path d="M737.905151,194.548611 L737.905151,0.43249446" id="duplicate_42_original_original_original_Line_46387315_8903158_64067787" opacity="0.525" transform="translate(737.905151, 97.500000) rotate(184.500000) translate(-737.905151, -97.500000) "></path>
                    <path d="M719.940327,194.548611 L719.940327,0.43249446" id="duplicate_41_original_original_original_Line_46387315_8903158_64067787" opacity="0.5125" transform="translate(719.940327, 97.500000) rotate(180.000000) translate(-719.940327, -97.500000) "></path>
                    <path d="M701.975503,194.548611 L701.975503,0.43249446" id="duplicate_40_original_original_original_Line_46387315_8903158_64067787" opacity="0.5" transform="translate(701.975503, 97.500000) rotate(175.500000) translate(-701.975503, -97.500000) "></path>
                    <path d="M684.010678,194.548611 L684.010678,0.43249446" id="duplicate_39_original_original_original_Line_46387315_8903158_64067787" opacity="0.4875" transform="translate(684.010678, 97.500000) rotate(171.000000) translate(-684.010678, -97.500000) "></path>
                    <path d="M666.045854,194.548611 L666.045854,0.43249446" id="duplicate_38_original_original_original_Line_46387315_8903158_64067787" opacity="0.475" transform="translate(666.045854, 97.500000) rotate(166.500000) translate(-666.045854, -97.500000) "></path>
                    <path d="M648.08103,194.548611 L648.08103,0.43249446" id="duplicate_37_original_original_original_Line_46387315_8903158_64067787" opacity="0.4625" transform="translate(648.081030, 97.500000) rotate(162.000000) translate(-648.081030, -97.500000) "></path>
                    <path d="M630.116206,194.548611 L630.116206,0.43249446" id="duplicate_36_original_original_original_Line_46387315_8903158_64067787" opacity="0.45" transform="translate(630.116206, 97.500000) rotate(157.500000) translate(-630.116206, -97.500000) "></path>
                    <path d="M612.151382,194.548611 L612.151382,0.43249446" id="duplicate_35_original_original_original_Line_46387315_8903158_64067787" opacity="0.4375" transform="translate(612.151382, 97.500000) rotate(153.000000) translate(-612.151382, -97.500000) "></path>
                    <path d="M594.186558,194.548611 L594.186558,0.43249446" id="duplicate_34_original_original_original_Line_46387315_8903158_64067787" opacity="0.425" transform="translate(594.186558, 97.500000) rotate(148.500000) translate(-594.186558, -97.500000) "></path>
                    <path d="M576.221734,194.548611 L576.221734,0.43249446" id="duplicate_33_original_original_original_Line_46387315_8903158_64067787" opacity="0.4125" transform="translate(576.221734, 97.500000) rotate(144.000000) translate(-576.221734, -97.500000) "></path>
                    <path d="M558.25691,194.548611 L558.25691,0.43249446" id="duplicate_32_original_original_original_Line_46387315_8903158_64067787" opacity="0.4" transform="translate(558.256910, 97.500000) rotate(139.500000) translate(-558.256910, -97.500000) "></path>
                    <path d="M540.292085,194.548611 L540.292085,0.43249446" id="duplicate_31_original_original_original_Line_46387315_8903158_64067787" opacity="0.3875" transform="translate(540.292085, 97.500000) rotate(135.000000) translate(-540.292085, -97.500000) "></path>
                    <path d="M522.327261,194.548611 L522.327261,0.43249446" id="duplicate_30_original_original_original_Line_46387315_8903158_64067787" opacity="0.375" transform="translate(522.327261, 97.500000) rotate(130.500000) translate(-522.327261, -97.500000) "></path>
                    <path d="M504.362437,194.548611 L504.362437,0.43249446" id="duplicate_29_original_original_original_Line_46387315_8903158_64067787" opacity="0.3625" transform="translate(504.362437, 97.500000) rotate(126.000000) translate(-504.362437, -97.500000) "></path>
                    <path d="M486.397613,194.548611 L486.397613,0.43249446" id="duplicate_28_original_original_original_Line_46387315_8903158_64067787" opacity="0.35" transform="translate(486.397613, 97.500000) rotate(121.500000) translate(-486.397613, -97.500000) "></path>
                    <path d="M468.432789,194.548611 L468.432789,0.43249446" id="duplicate_27_original_original_original_Line_46387315_8903158_64067787" opacity="0.3375" transform="translate(468.432789, 97.500000) rotate(117.000000) translate(-468.432789, -97.500000) "></path>
                    <path d="M450.467965,194.548611 L450.467965,0.43249446" id="duplicate_26_original_original_original_Line_46387315_8903158_64067787" opacity="0.325" transform="translate(450.467965, 97.500000) rotate(112.500000) translate(-450.467965, -97.500000) "></path>
                    <path d="M432.503141,194.548611 L432.503141,0.43249446" id="duplicate_25_original_original_original_Line_46387315_8903158_64067787" opacity="0.3125" transform="translate(432.503141, 97.500000) rotate(108.000000) translate(-432.503141, -97.500000) "></path>
                    <path d="M414.538317,194.548611 L414.538317,0.43249446" id="duplicate_24_original_original_original_Line_46387315_8903158_64067787" opacity="0.3" transform="translate(414.538317, 97.500000) rotate(103.500000) translate(-414.538317, -97.500000) "></path>
                    <path d="M396.573492,194.548611 L396.573492,0.43249446" id="duplicate_23_original_original_original_Line_46387315_8903158_64067787" opacity="0.2875" transform="translate(396.573492, 97.500000) rotate(99.000000) translate(-396.573492, -97.500000) "></path>
                    <path d="M378.608668,194.548611 L378.608668,0.43249446" id="duplicate_22_original_original_original_Line_46387315_8903158_64067787" opacity="0.275" transform="translate(378.608668, 97.500000) rotate(94.500000) translate(-378.608668, -97.500000) "></path>
                    <path d="M360.643844,194.548611 L360.643844,0.43249446" id="duplicate_21_original_original_original_Line_46387315_8903158_64067787" opacity="0.2625" transform="translate(360.643844, 97.500000) rotate(90.000000) translate(-360.643844, -97.500000) "></path>
                    <path d="M342.67902,194.548611 L342.67902,0.43249446" id="duplicate_20_original_original_original_Line_46387315_8903158_64067787" opacity="0.25" transform="translate(342.679020, 97.500000) rotate(85.500000) translate(-342.679020, -97.500000) "></path>
                    <path d="M324.714196,194.548611 L324.714196,0.43249446" id="duplicate_19_original_original_original_Line_46387315_8903158_64067787" opacity="0.2375" transform="translate(324.714196, 97.500000) rotate(81.000000) translate(-324.714196, -97.500000) "></path>
                    <path d="M306.749372,194.548611 L306.749372,0.43249446" id="duplicate_18_original_original_original_Line_46387315_8903158_64067787" opacity="0.225" transform="translate(306.749372, 97.500000) rotate(76.500000) translate(-306.749372, -97.500000) "></path>
                    <path d="M288.784548,194.548611 L288.784548,0.43249446" id="duplicate_17_original_original_original_Line_46387315_8903158_64067787" opacity="0.2125" transform="translate(288.784548, 97.500000) rotate(72.000000) translate(-288.784548, -97.500000) "></path>
                    <path d="M270.819724,194.548611 L270.819724,0.43249446" id="duplicate_16_original_original_original_Line_46387315_8903158_64067787" opacity="0.2" transform="translate(270.819724, 97.500000) rotate(67.500000) translate(-270.819724, -97.500000) "></path>
                    <path d="M252.854899,194.548611 L252.854899,0.43249446" id="duplicate_15_original_original_original_Line_46387315_8903158_64067787" opacity="0.1875" transform="translate(252.854899, 97.500000) rotate(63.000000) translate(-252.854899, -97.500000) "></path>
                    <path d="M234.890075,194.548611 L234.890075,0.43249446" id="duplicate_14_original_original_original_Line_46387315_8903158_64067787" opacity="0.175" transform="translate(234.890075, 97.500000) rotate(58.500000) translate(-234.890075, -97.500000) "></path>
                    <path d="M216.925251,194.548611 L216.925251,0.43249446" id="duplicate_13_original_original_original_Line_46387315_8903158_64067787" opacity="0.1625" transform="translate(216.925251, 97.500000) rotate(54.000000) translate(-216.925251, -97.500000) "></path>
                    <path d="M198.960427,194.548611 L198.960427,0.43249446" id="duplicate_12_original_original_original_Line_46387315_8903158_64067787" opacity="0.15" transform="translate(198.960427, 97.500000) rotate(49.500000) translate(-198.960427, -97.500000) "></path>
                    <path d="M180.995603,194.548611 L180.995603,0.43249446" id="duplicate_11_original_original_original_Line_46387315_8903158_64067787" opacity="0.1375" transform="translate(180.995603, 97.500000) rotate(45.000000) translate(-180.995603, -97.500000) "></path>
                    <path d="M163.030779,194.548611 L163.030779,0.43249446" id="duplicate_10_original_original_original_Line_46387315_8903158_64067787" opacity="0.125" transform="translate(163.030779, 97.500000) rotate(40.500000) translate(-163.030779, -97.500000) "></path>
                    <path d="M145.065955,194.548611 L145.065955,0.43249446" id="duplicate_9_original_original_original_Line_46387315_8903158_64067787" opacity="0.1125" transform="translate(145.065955, 97.500000) rotate(36.000000) translate(-145.065955, -97.500000) "></path>
                    <path d="M127.101131,194.548611 L127.101131,0.43249446" id="duplicate_8_original_original_original_Line_46387315_8903158_64067787" opacity="0.1" transform="translate(127.101131, 97.500000) rotate(31.500000) translate(-127.101131, -97.500000) "></path>
                    <path d="M109.136307,194.548611 L109.136307,0.43249446" id="duplicate_7_original_original_original_Line_46387315_8903158_64067787" opacity="0.0875" transform="translate(109.136307, 97.500000) rotate(27.000000) translate(-109.136307, -97.500000) "></path>
                    <path d="M91.1714824,194.548611 L91.1714824,0.43249446" id="duplicate_6_original_original_original_Line_46387315_8903158_64067787" opacity="0.075" transform="translate(91.171482, 97.500000) rotate(22.500000) translate(-91.171482, -97.500000) "></path>
                    <path d="M73.2066583,194.548611 L73.2066583,0.43249446" id="duplicate_5_original_original_original_Line_46387315_8903158_64067787" opacity="0.0625" transform="translate(73.206658, 97.500000) rotate(18.000000) translate(-73.206658, -97.500000) "></path>
                    <path d="M55.2418342,194.548611 L55.2418342,0.43249446" id="duplicate_4_original_original_original_Line_46387315_8903158_64067787" opacity="0.05" transform="translate(55.241834, 97.500000) rotate(13.500000) translate(-55.241834, -97.500000) "></path>
                </g>
            </g>
        </g>
    </g>
</svg>