<svg width="48px" height="48px" viewBox="0 0 48 48" version="1.1" xmlns="http://www.w3.org/2000/svg" xmlns:xlink="http://www.w3.org/1999/xlink">
    <g id="Page-1" stroke="none" stroke-width="1" fill="currentColor" fill-rule="evenodd">
        <g id="mobile-fluence-web-19-Frederike" transform="translate(-32.000000, -431.000000)" fill="currentColor">
            <g id="Button-Try" transform="translate(32.000000, 359.000000)">
                <g id="Group-14" transform="translate(0.000000, 62.000000)">
                    <path d="M33.7605,29.661 C33.7705,29.864 33.774,30.068 33.774,30.273 C33.774,36.5195 29.0195,43.7225 20.325,43.7225 C17.656,43.7225 15.1715,42.9395 13.08,41.598 C13.449,41.6425 13.825,41.6645 14.207,41.6645 C16.4215,41.6645 18.4595,40.909 20.078,39.6405 C18.0095,39.603 16.2635,38.236 15.662,36.3585 C15.951,36.413 16.247,36.443 16.5515,36.443 C16.982,36.443 17.4,36.385 17.7965,36.277 C15.6345,35.8425 14.0045,33.9325 14.0045,31.642 C14.0045,31.622 14.0045,31.6025 14.0055,31.583 C14.6425,31.937 15.372,32.1495 16.146,32.174 C14.8775,31.326 14.0435,29.8795 14.0435,28.239 C14.0435,27.373 14.276,26.5615 14.6835,25.863 C17.0145,28.723 20.498,30.605 24.4265,30.802 C24.3455,30.456 24.3045,30.095 24.3045,29.7245 C24.3045,27.114 26.4205,24.998 29.031,24.998 C30.3905,24.998 31.619,25.572 32.481,26.4905 C33.5585,26.2785 34.57,25.8855 35.483,25.3435 C35.1295,26.447 34.3805,27.374 33.405,27.959 C34.361,27.8445 35.272,27.5905 36.12,27.2145 C35.486,28.162 34.6845,28.995 33.7605,29.661 M24,10 C10.744,10 0,20.745 0,34 C0,47.255 10.744,58 24,58 C37.2545,58 48,47.255 48,34 C48,20.745 37.2545,10 24,10" id="Fill-1"></path>
                </g>
            </g>
        </g>
    </g>
</svg>