<svg width="49px" height="49px" viewBox="0 0 49 49" version="1.1" xmlns="http://www.w3.org/2000/svg" xmlns:xlink="http://www.w3.org/1999/xlink">
    <g id="Page-1" stroke="none" stroke-width="1" fill="currentColor" fill-rule="evenodd">
        <g id="mobile-fluence-web-19-Frederike" transform="translate(-168.000000, -431.000000)" fill="currentColor" fill-rule="nonzero">
            <g id="Button-Try" transform="translate(32.000000, 359.000000)">
                <g id="Group-14" transform="translate(0.000000, 62.000000)">
                    <path d="M164.758005,38.0692005 C164.248351,37.7696403 159.245293,35.8677345 157.830424,35.3540591 L157.108665,35.0921953 L155.011743,40.8657659 L161.274864,43.1396089 C162.117754,43.4457031 162.824434,43.6316717 163.375806,43.6919858 C163.857817,43.7442581 164.252874,43.7120905 164.548916,43.5959858 C164.823848,43.4884256 165.043995,43.313012 165.224434,43.0606979 C165.45212,42.7405303 165.660204,42.3243628 165.842152,41.8237555 C166.081398,41.1658288 166.204539,40.5943523 166.20856,40.1249073 C166.212078,39.7238183 166.111052,39.3755042 165.900958,39.0593576 C165.667743,38.7110434 165.283241,38.3783104 164.758005,38.0692005 Z M168.908623,29.3879858 C168.412036,29.0658078 167.744057,28.7511691 166.921775,28.4536193 L160.381712,26.0782476 L158.032979,32.5459335 L159.247304,32.9872319 C160.939618,33.6019335 165.913523,35.300279 166.501084,35.3837136 C167.129356,35.4696612 167.647052,35.4455356 168.039094,35.3128445 C168.397461,35.191211 168.681942,34.9841324 168.90812,34.679546 C169.186068,34.3055984 169.439387,33.8054937 169.661042,33.1938078 C169.909838,32.5082371 170.04856,31.9116298 170.07168,31.4205722 C170.09279,30.9953576 170.017398,30.6334727 169.839974,30.3128026 C169.656518,29.9815775 169.343387,29.670457 168.908623,29.3879858 Z M160.941125,10.254834 C147.686591,10.254834 136.941125,20.9997973 136.941125,34.254834 C136.941125,47.5098706 147.686591,58.254834 160.941125,58.254834 C174.19566,58.254834 184.941125,47.5098706 184.941125,34.254834 C184.941125,20.9997973 174.19566,10.254834 160.941125,10.254834 Z M173.925251,34.8142476 C173.691031,35.4596089 173.369356,36.0391272 172.967262,36.5362162 C172.547073,37.0539125 172.02033,37.4700801 171.399597,37.7731586 C170.792434,38.0692005 170.084749,38.2476298 169.293125,38.3049282 C169.247387,38.3084466 169.200644,38.3114623 169.1539,38.3139754 C169.567555,38.8291586 169.87767,39.3684675 170.077712,39.9173261 C170.295345,40.5164466 170.397879,41.1266246 170.383304,41.7307712 C170.36923,42.3223523 170.257146,42.9109178 170.050571,43.4798811 C169.790717,44.1946036 169.400686,44.8188549 168.889523,45.3360487 C168.359764,45.8718392 167.673691,46.2583523 166.848895,46.4845303 C166.065314,46.6986455 165.130947,46.7504151 164.070927,46.6383314 C163.046591,46.5297659 161.849356,46.2292005 160.514906,45.7441743 L159.426738,45.3491167 L158.070173,49.0850748 L156.151178,48.3879439 L157.507743,44.6519858 L155.076078,43.769389 L153.720518,47.5048445 L151.801523,46.8082162 L153.157586,43.0722581 L147.566466,41.0416822 L148.491283,38.4969282 L151.014927,39.4137031 L156.384895,24.6266874 L153.860749,23.7099125 L154.785063,21.164656 L160.376686,23.1952319 L161.745817,19.4245932 L163.664811,20.1212214 L162.295178,23.8918602 L164.72634,24.7749597 L166.095471,21.0043209 L168.014466,21.7009492 L166.645335,25.4720905 L168.049146,25.981745 C169.509251,26.5120068 170.696937,27.1226874 171.579031,27.7961953 C172.482738,28.4867921 173.165293,29.2306665 173.608099,30.0077136 C174.064476,30.809389 174.302215,31.641724 174.315785,32.482101 C174.327848,33.2832738 174.196665,34.0678602 173.925251,34.8142476 Z" id="Shape" transform="translate(160.941125, 34.254834) scale(1, -1) rotate(-45.000000) translate(-160.941125, -34.254834) "></path>
                </g>
            </g>
        </g>
    </g>
</svg>