<svg width="50px" height="48px" viewBox="0 0 50 48" version="1.1" xmlns="http://www.w3.org/2000/svg" xmlns:xlink="http://www.w3.org/1999/xlink">
    <g id="Page-1" stroke="none" stroke-width="1" fill="currentColor" fill-rule="evenodd">
        <g id="mobile-fluence-web-19-Frederike" transform="translate(-239.000000, -431.000000)" fill="currentColor" fill-rule="nonzero">
            <g id="Button-Try" transform="translate(32.000000, 359.000000)">
                <g id="Group-14" transform="translate(0.000000, 62.000000)">
                    <path d="M252.733339,22.2528226 C250.54153,18.4834483 247.568481,15.4992294 243.813409,13.2994928 C240.057778,11.0996439 235.957749,10 231.510415,10 C227.06364,10 222.962269,11.0999805 219.207421,13.2994928 C215.452014,15.4991172 212.479076,18.4834483 210.287267,22.2528226 C208.095793,26.0220847 207,30.1381481 207,34.6009006 C207,39.9616788 208.558232,44.7822278 211.67548,49.063782 C214.792392,53.3456727 218.818981,56.3085741 223.754911,57.9528229 C224.329467,58.0598589 224.754795,57.9845746 225.031342,57.7288774 C225.308001,57.4728436 225.446163,57.1521842 225.446163,56.7682457 C225.446163,56.7041812 225.440686,56.1278246 225.430067,55.0385028 C225.419112,53.949181 225.41397,52.9988714 225.41397,52.1880228 L224.679902,52.3154788 C224.211873,52.401534 223.621444,52.437998 222.908614,52.4276759 C222.19612,52.4176903 221.456462,52.3427427 220.690648,52.2033939 C219.924498,52.0652792 219.211892,51.7449564 218.55227,51.2430987 C217.892984,50.741241 217.424955,50.0843269 217.148296,49.2733662 L216.82916,48.5362311 C216.61644,48.0454809 216.281543,47.5003152 215.824022,46.9027533 C215.366501,46.3046305 214.903838,45.8991501 214.435809,45.685639 L214.212358,45.5250849 C214.063465,45.4183855 213.925304,45.2896954 213.797537,45.140361 C213.669883,44.9910267 213.57431,44.8415801 213.510483,44.6919092 C213.446544,44.542126 213.499528,44.4192702 213.669995,44.3228928 C213.840461,44.2265155 214.148531,44.1797293 214.595545,44.1797293 L215.233593,44.2754335 C215.659145,44.3610399 216.185523,44.6167371 216.813399,45.0440959 C217.44094,45.4711181 217.956811,46.0262695 218.361124,46.7093255 C218.850726,47.5851362 219.440597,48.2524846 220.132412,48.7117074 C220.823668,49.1709302 221.520625,49.4001489 222.222612,49.4001489 C222.924599,49.4001489 223.530901,49.3467431 224.041742,49.2404924 C224.552024,49.1336808 225.030784,48.9731267 225.477797,48.7597278 C225.669279,47.328317 226.190627,46.2286731 227.041395,45.4600106 C225.828791,45.3321059 224.738587,45.1394635 223.770225,44.8833174 C222.802422,44.6268348 221.802314,44.2105835 220.770572,43.6334416 C219.738271,43.057085 218.881913,42.3413796 218.201277,41.4875595 C217.520528,40.6332907 216.961845,39.5117683 216.526009,38.1240022 C216.08995,36.7356751 215.871864,35.1341735 215.871864,33.3190485 C215.871864,30.734588 216.71246,28.5353001 218.393317,26.7199508 C217.605929,24.7769211 217.680264,22.5987263 218.616544,20.1855908 C219.233578,19.9931727 220.14862,20.1375704 221.361224,20.6178862 C222.574052,21.0984265 223.462044,21.5100777 224.026093,21.8513813 C224.590141,22.1925728 225.042073,22.4817047 225.38256,22.7161967 C227.361649,22.1611576 229.404006,21.8835819 231.510191,21.8835819 C233.616376,21.8835819 235.659181,22.1611576 237.638382,22.7161967 L238.851098,21.9477587 C239.680404,21.4350178 240.659721,20.9651363 241.7867,20.5380019 C242.914351,20.1110919 243.776633,19.9935093 244.372651,20.1859273 C245.329723,22.5991751 245.415012,24.7772577 244.627401,26.7202874 C246.308145,28.5356367 247.149077,30.7354855 247.149077,33.3193851 C247.149077,35.1345101 246.930209,36.7410606 246.49482,38.1400464 C246.058873,39.5392566 245.495383,40.659657 244.804127,41.5036037 C244.112088,42.3474382 243.250254,43.0575338 242.218512,43.6337782 C241.186546,44.2104713 240.186103,44.6267226 239.2183,44.8832052 C238.250049,45.1396878 237.159846,45.3324425 235.947241,45.4605716 C237.053206,46.4212033 237.6063,47.9375473 237.6063,50.0089305 L237.6063,56.7673481 C237.6063,57.1512867 237.73932,57.4718338 238.005584,57.7279798 C238.271511,57.9836771 238.691474,58.0589613 239.26603,57.9518131 C244.202631,56.3077887 248.22922,53.3447751 251.34602,49.0628844 C254.462485,44.7813303 256.021277,39.9607812 256.021277,34.600003 C256.020159,30.1378115 254.923807,26.0220847 252.733339,22.2528226 Z" id="Shape"></path>
                </g>
            </g>
        </g>
    </g>
</svg>