<svg width="48px" height="48px" viewBox="0 0 48 48" version="1.1" xmlns="http://www.w3.org/2000/svg" xmlns:xlink="http://www.w3.org/1999/xlink">
    <g id="Page-1" stroke="none" stroke-width="1" fill="currentColor" fill-rule="evenodd">
        <g id="mobile-fluence-web-19-Frederike" transform="translate(-102.000000, -431.000000)" fill="currentColor">
            <g id="Button-Try" transform="translate(32.000000, 359.000000)">
                <g id="Group-14" transform="translate(0.000000, 62.000000)">
                    <path d="M94,58 C107.254834,58 118,47.254834 118,34 C118,20.745166 107.254834,10 94,10 C80.745166,10 70,20.745166 70,34 C70,47.254834 80.745166,58 94,58 Z M87,46.6124129 C87,47.0143189 87.2179245,47.1259415 87.5204403,46.8415156 C87.9147799,46.4715017 92,42.6773129 92,42.6773129 L87,40 L87,46.6124129 Z M106.202305,23.0542857 C105.660759,23.2443686 78.9027935,32.6271198 78.3760632,32.8118703 C77.9287679,32.9687043 77.8291588,33.3526339 78.3603022,33.5643598 C78.9929461,33.8165489 84.3431523,35.9498051 84.3431523,35.9498051 L84.3425218,35.9498051 L87.8896773,37.3641342 C87.8896773,37.3641342 104.970115,24.8826566 105.202431,24.7129622 C105.434748,24.5429541 105.703314,24.8619545 105.534041,25.0441956 C105.364769,25.2276914 93.1282962,38.3961019 93.1282962,38.3961019 C93.1276657,38.3964156 93.1276657,38.3967292 93.1276657,38.3970429 L92.4140107,39.1865453 L93.3577753,39.6921781 L93.3577753,39.6924918 C93.3577753,39.6924918 100.686924,43.618047 101.209242,43.8978389 C101.666939,44.1428136 102.262072,43.939243 102.394148,43.3727586 C102.549867,42.7043321 106.878134,24.1427137 106.974906,23.7299266 C107.100048,23.191986 106.743851,22.8645166 106.202305,23.0542857 Z" id="Oval-2"></path>
                </g>
            </g>
        </g>
    </g>
</svg>