<svg width="96px" height="96px" viewBox="0 0 96 96" version="1.1" xmlns="http://www.w3.org/2000/svg" xmlns:xlink="http://www.w3.org/1999/xlink">
    <g id="Page-1" stroke="none" stroke-width="1" fill="none" fill-rule="evenodd">
        <g id="fluence-web-19-Frederike-Hovers" transform="translate(-592.000000, -2480.000000)">
            <g id="Group-11" transform="translate(592.000000, 2480.000000)">
                <circle id="Oval-3" fill="#2E72FE" cx="48" cy="48" r="48"></circle>
                <g id="Page-1" transform="translate(33.000000, 17.000000)" stroke="#000000" stroke-linecap="round" stroke-linejoin="bevel" stroke-width="2">
                    <path d="M5,14 L25,14" id="Stroke-1"></path>
                    <path d="M9,20 L21,20" id="Stroke-2"></path>
                    <path d="M9,8 L21,8" id="Stroke-3"></path>
                    <path d="M5,47 L25,47" id="Stroke-4"></path>
                    <path d="M9,53 L21,53" id="Stroke-5"></path>
                    <path d="M9,41 L21,41" id="Stroke-6"></path>
                    <path d="M15,30 C22.57,33.364 30,38.163 30,47 C30,55.837 23.284,62 15,62 C6.716,62 0,55.837 0,47 C0,38.163 7.43,33.364 15,30 C24,26 30,22.837 30,14 C30,5.163 23.284,0 15,0 C6.716,0 0,5.163 0,14 C0,20.684 3.433,24.122 8.999,27.131" id="Stroke-7"></path>
                </g>
            </g>
        </g>
    </g>
</svg>