<svg width="229px" height="311px" viewBox="0 0 229 311" version="1.1" xmlns="http://www.w3.org/2000/svg" xmlns:xlink="http://www.w3.org/1999/xlink">
    <g id="Page-1" stroke="none" stroke-width="1" fill="none" fill-rule="evenodd" opacity="0.2" stroke-linecap="round">
        <g id="fluence-web-19-Frederike" transform="translate(-971.000000, -737.000000)" stroke="#FFFFFF" stroke-width="2">
            <g id="Group-6" transform="translate(656.000000, 712.000000)">
                <g id="DL" transform="translate(316.000000, 26.000000)">
                    <path d="M54.32,204.62 C50.9221924,197.8224 43.9654302,193.537798 36.3659656,193.562286 C28.766501,193.586774 21.8374957,197.91612 18.4835663,204.735476 C15.1296368,211.554833 15.9303308,219.685837 20.55,225.72" id="Shape"></path>
                    <path d="M162.9,201.44 C156.558744,173.738432 132.710244,153.536084 104.34306,151.835719 C75.975876,150.135353 49.884897,167.344265 40.28,194.09" id="Shape"></path>
                    <path d="M194.17,225.72 C198.769878,214.350696 196.466932,201.352494 188.24097,192.255599 C180.015008,183.158703 167.313338,179.563655 155.54,183" id="Shape"></path>
                    <path d="M3.64,226 L227.64,226" id="Shape"></path>
                    <path d="M65.64,250 L47.64,292" id="Shape"></path>
                    <path d="M41.64,304 L33.64,322" id="Shape"></path>
                    <path d="M87.64,266 L81.64,280" id="Shape"></path>
                    <path d="M45.64,88 L39.64,102" id="Shape"></path>
                    <path d="M81.64,88 L75.64,102" id="Shape"></path>
                    <path d="M63.64,88 L51.64,116" id="Shape"></path>
                    <path d="M99.64,88 L87.64,116" id="Shape"></path>
                    <path d="M209.64,146 L203.64,160" id="Shape"></path>
                    <path d="M227.64,146 L215.64,174" id="Shape"></path>
                    <path d="M75.64,292 L55.64,338" id="Shape"></path>
                    <path d="M123.64,250 L87.64,330" id="Shape"></path>
                    <path d="M153.64,250 L135.82,289.45" id="Shape"></path>
                    <path d="M181.64,250 L153.64,314.29" id="Shape"></path>
                    <path d="M130,301.09 L123.64,315.09" id="Shape"></path>
                    <path d="M131.64,72 L153.64,72 C158.058278,72 161.64,68.418278 161.64,64 L161.64,8 C161.64,3.581722 158.058278,2.22044605e-16 153.64,0 L105.64,0 C101.221722,-2.22044605e-16 97.64,3.581722 97.64,8 L97.64,34" id="Shape"></path>
                    <path d="M109.64,12 L149.64,12" id="Shape"></path>
                    <path d="M109.64,24 L149.64,24" id="Shape"></path>
                    <path d="M109.64,36 L149.64,36" id="Shape"></path>
                    <path d="M125.64,48 L149.64,48" id="Shape"></path>
                    <path d="M139.64,60 L149.64,60" id="Shape"></path>
                    <path d="M52.82,44.58 C45.0227891,42.8100586 36.8570933,45.0580995 31.0644239,50.5693762 C25.2717544,56.080653 22.6202073,64.1243818 24,72 L131.5,72 C132.182778,66.5845004 130.057678,61.1945587 125.862782,57.7021861 C121.667886,54.2098134 115.982029,53.0969083 110.78,54.75 C107.392789,40.4039762 94.6439571,30.2277011 79.903998,30.1043938 C65.1640389,29.9810866 52.2467438,39.9426514 48.62,54.23" id="Shape"></path>
                    <path d="M24,72 L0,72" id="Shape"></path>
                    <path d="M202.82,102.58 C195.022789,100.810059 186.857093,103.058099 181.064424,108.569376 C175.271754,114.080653 172.620207,122.124382 174,130 L281.5,130 C282.182778,124.5845 280.057678,119.194559 275.862782,115.702186 C271.667886,112.209813 265.982029,111.096908 260.78,112.75 C257.392789,98.4039762 244.643957,88.2277011 229.903998,88.1043938 C215.164039,87.9810866 202.246744,97.9426514 198.62,112.23" id="Shape"></path>
                    <path d="M174,130 L150,130" id="Shape"></path>
                    <path d="M281.18,280.58 C288.977211,278.810059 297.142907,281.058099 302.935576,286.569376 C308.728246,292.080653 311.379793,300.124382 310,308 L202.5,308 C201.817222,302.5845 203.942322,297.194559 208.137218,293.702186 C212.332114,290.209813 218.017971,289.096908 223.22,290.75 C226.607211,276.403976 239.356043,266.227701 254.096002,266.104394 C268.835961,265.981087 281.753256,275.942651 285.38,290.23" id="Shape"></path>
                </g>
            </g>
        </g>
    </g>
</svg>