<svg width="96px" height="96px" viewBox="0 0 96 96" version="1.1" xmlns="http://www.w3.org/2000/svg" xmlns:xlink="http://www.w3.org/1999/xlink">
    <g id="Page-1" stroke="none" stroke-width="1" fill="none" fill-rule="evenodd">
        <g id="fluence-web-19-Frederike-Hovers" transform="translate(-592.000000, -2800.000000)">
            <g id="Group-11" transform="translate(592.000000, 2800.000000)">
                <circle id="Oval-3" fill="#2E72FE" cx="48" cy="48" r="48"></circle>
                <g id="Page-1" transform="translate(27.000000, 19.000000)">
                    <path d="M0,-0.0003 L0,48.0007 L32,48.0007 L32,7.9997 L24,-0.0003 L0,-0.0003 Z M2,2.0007 L23.172,2.0007 L30,8.8277 L30,45.9997 L2,45.9997 L2,2.0007 Z" id="Fill-1" fill="#000000"></path>
                    <polyline id="Stroke-2" stroke="#000000" stroke-width="2" stroke-linecap="round" stroke-linejoin="bevel" points="23 1 23 9 31 9"></polyline>
                    <polyline id="Stroke-4" stroke="#000000" stroke-width="2" stroke-linecap="round" points="5 47 5 53 37 53 37 13 31 13"></polyline>
                    <polyline id="Stroke-5" stroke="#000000" stroke-width="2" stroke-linecap="round" points="11 53 11 59 43 59 43 19 37 19"></polyline>
                </g>
            </g>
        </g>
    </g>
</svg>