<svg width="235px" height="317px" viewBox="0 0 235 317" version="1.1" xmlns="http://www.w3.org/2000/svg" xmlns:xlink="http://www.w3.org/1999/xlink">
    <g id="Page-1" stroke="none" stroke-width="1" fill="none" fill-rule="evenodd" opacity="0.2">
        <g id="fluence-web-19-Frederike" transform="translate(-389.000000, -1099.000000)">
            <g id="Group-4" transform="translate(80.000000, 1080.000000)">
                <g id="CR" transform="translate(309.000000, 20.000000)">
                    <polyline id="Shape" stroke="#FFFFFF" stroke-width="2" points="78.71 216 98.71 216 98.71 112 82.71 96 18.71 96 18.71 216 78.71 216"></polyline>
                    <polyline id="Shape" stroke="#FFFFFF" stroke-width="2" stroke-linecap="round" stroke-linejoin="bevel" points="80.71 98 80.71 114 96.71 114"></polyline>
                    <polyline id="Shape" stroke="#FFFFFF" stroke-width="2" points="106.71 68 126.71 68 126.71 12 114.71 0 78.71 0 78.71 68 106.71 68"></polyline>
                    <polyline id="Shape" stroke="#FFFFFF" stroke-width="2" points="164.71 98 150.71 98 150.71 30 194.71 30 194.71 40"></polyline>
                    <polyline id="Shape" stroke="#FFFFFF" stroke-width="2" points="192.71 110 212.71 110 212.71 54 200.71 42 164.71 42 164.71 110 192.71 110"></polyline>
                    <path d="M176.71,64 L200.71,64" id="Shape" stroke="#FFFFFF" stroke-width="2" stroke-linecap="round" stroke-linejoin="bevel"></path>
                    <path d="M176.71,76 L200.71,76" id="Shape" stroke="#FFFFFF" stroke-width="2" stroke-linecap="round" stroke-linejoin="bevel"></path>
                    <path d="M176.71,88 L186.71,88" id="Shape" stroke="#FFFFFF" stroke-width="2" stroke-linecap="round" stroke-linejoin="bevel"></path>
                    <path d="M38.71,126 L70.71,126" id="Shape" stroke="#FFFFFF" stroke-width="2" stroke-linecap="round" stroke-linejoin="bevel"></path>
                    <path d="M38.71,138 L52.71,138" id="Shape" stroke="#FFFFFF" stroke-width="2" stroke-linecap="round" stroke-linejoin="bevel"></path>
                    <path d="M90.71,24 L114.71,24" id="Shape" stroke="#FFFFFF" stroke-width="2" stroke-linecap="round" stroke-linejoin="bevel"></path>
                    <path d="M90.71,36 L114.71,36" id="Shape" stroke="#FFFFFF" stroke-width="2" stroke-linecap="round" stroke-linejoin="bevel"></path>
                    <path d="M90.71,48 L100.71,48" id="Shape" stroke="#FFFFFF" stroke-width="2" stroke-linecap="round" stroke-linejoin="bevel"></path>
                    <path d="M64.71,138 L82.71,138" id="Shape" stroke="#FFFFFF" stroke-width="2" stroke-linecap="round" stroke-linejoin="bevel"></path>
                    <path d="M70.71,150 L82.71,150" id="Shape" stroke="#FFFFFF" stroke-width="2" stroke-linecap="round" stroke-linejoin="bevel"></path>
                    <path d="M44.71,158 L66.71,158" id="Shape" stroke="#FFFFFF" stroke-width="2" stroke-linecap="round" stroke-linejoin="bevel"></path>
                    <path d="M44.71,174 L68.71,174" id="Shape" stroke="#FFFFFF" stroke-width="2" stroke-linecap="round" stroke-linejoin="bevel"></path>
                    <path d="M70.71,162 L82.71,162" id="Shape" stroke="#FFFFFF" stroke-width="2" stroke-linecap="round" stroke-linejoin="bevel"></path>
                    <path d="M70.71,174 L82.71,174" id="Shape" stroke="#FFFFFF" stroke-width="2" stroke-linecap="round" stroke-linejoin="bevel"></path>
                    <polyline id="Shape" stroke="#FFFFFF" stroke-width="2" points="108.71 368 128.71 368 128.71 264 112.71 248 48.71 248 48.71 368 108.71 368"></polyline>
                    <polyline id="Shape" stroke="#FFFFFF" stroke-width="2" stroke-linecap="round" stroke-linejoin="bevel" points="110.71 250 110.71 266 126.71 266"></polyline>
                    <path d="M68.71,278 L100.71,278" id="Shape" stroke="#FFFFFF" stroke-width="2" stroke-linecap="round" stroke-linejoin="bevel"></path>
                    <path d="M68.71,290 L90.71,290" id="Shape" stroke="#FFFFFF" stroke-width="2" stroke-linecap="round" stroke-linejoin="bevel"></path>
                    <path d="M70.71,336 L104.71,312" id="Shape" stroke="#FFFFFF" stroke-width="2" stroke-linecap="round" stroke-linejoin="bevel"></path>
                    <path d="M102.71,290 L112.71,290" id="Shape" stroke="#FFFFFF" stroke-width="2" stroke-linecap="round" stroke-linejoin="bevel"></path>
                    <polyline id="Shape" stroke="#FFFFFF" stroke-width="2" points="214.71 322 234.71 322 234.71 218 218.71 202 154.71 202 154.71 322 214.71 322"></polyline>
                    <path d="M174.71,234 L216.71,234" id="Shape" stroke="#FFFFFF" stroke-width="2" stroke-linecap="round" stroke-linejoin="bevel"></path>
                    <path d="M174.71,246 L218.71,246" id="Shape" stroke="#FFFFFF" stroke-width="2" stroke-linecap="round" stroke-linejoin="bevel"></path>
                    <path d="M174.71,258 L218.71,258" id="Shape" stroke="#FFFFFF" stroke-width="2" stroke-linecap="round" stroke-linejoin="bevel"></path>
                    <path d="M174.71,270 L198.71,270" id="Shape" stroke="#FFFFFF" stroke-width="2" stroke-linecap="round" stroke-linejoin="bevel"></path>
                    <path d="M48.71,148 C60.8602645,148 70.71,157.849736 70.71,170 C70.71,182.150264 60.8602645,192 48.71,192 C36.5597355,192 26.71,182.150264 26.71,170 C26.71,157.849736 36.5597355,148 48.71,148 Z M48.71,146 C35.455166,146 24.71,156.745166 24.71,170 C24.71,183.254834 35.455166,194 48.71,194 C61.964834,194 72.71,183.254834 72.71,170 C72.71,156.745166 61.964834,146 48.71,146 Z" id="Shape" fill="#FFFFFF" fill-rule="nonzero"></path>
                    <path d="M146.71,122 C154.441986,122 160.71,128.268014 160.71,136 C160.71,143.731986 154.441986,150 146.71,150 C138.978014,150 132.71,143.731986 132.71,136 C132.71,128.268014 138.978014,122 146.71,122 Z M146.71,120 C137.873444,120 130.71,127.163444 130.71,136 C130.71,144.836556 137.873444,152 146.71,152 C155.546556,152 162.71,144.836556 162.71,136 C162.71,127.163444 155.546556,120 146.71,120 Z" id="Shape" fill="#FFFFFF" fill-rule="nonzero"></path>
                    <path d="M180.71,284 C184.023708,284 186.71,286.686292 186.71,290 C186.71,293.313708 184.023708,296 180.71,296 C177.396292,296 174.71,293.313708 174.71,290 C174.71,286.686292 177.396292,284 180.71,284 Z M180.71,282 C176.291722,282 172.71,285.581722 172.71,290 C172.71,294.418278 176.291722,298 180.71,298 C185.128278,298 188.71,294.418278 188.71,290 C188.71,285.581722 185.128278,282 180.71,282 Z" id="Shape" fill="#FFFFFF" fill-rule="nonzero"></path>
                    <path d="M32.71,184 L0.71,216" id="Shape" stroke="#FFFFFF" stroke-width="2"></path>
                    <path d="M88.71,302 C100.860264,302 110.71,311.849736 110.71,324 C110.71,336.150264 100.860264,346 88.71,346 C76.5597355,346 66.71,336.150264 66.71,324 C66.71,311.849736 76.5597355,302 88.71,302 Z M88.71,300 C75.455166,300 64.71,310.745166 64.71,324 C64.71,337.254834 75.455166,348 88.71,348 C101.964834,348 112.71,337.254834 112.71,324 C112.71,310.745166 101.964834,300 88.71,300 Z" id="Shape" fill="#FFFFFF" fill-rule="nonzero"></path>
                    <rect id="Rectangle-path" stroke="#FFFFFF" stroke-width="2" x="122.71" y="162" width="48" height="20"></rect>
                    <path d="M146.71,150 L146.71,162" id="Shape" stroke="#FFFFFF" stroke-width="2"></path>
                </g>
            </g>
        </g>
    </g>
</svg>