<svg width="96px" height="96px" viewBox="0 0 96 96" version="1.1" xmlns="http://www.w3.org/2000/svg" xmlns:xlink="http://www.w3.org/1999/xlink">
    <g id="Page-1" stroke="none" stroke-width="1" fill="none" fill-rule="evenodd">
        <g id="fluence-web-19-Frederike-Hovers" transform="translate(-208.000000, -2479.000000)">
            <g id="Group-11" transform="translate(208.000000, 2479.000000)">
                <circle id="Oval-3" fill="#2E72FE" cx="48" cy="48" r="48"></circle>
                <g id="Page-1" transform="translate(16.000000, 16.000000)">
                    <path d="M32,0 C14.326,0 0,14.327 0,32 C0,49.673 14.326,64 32,64 C49.674,64 64,49.673 64,32 C64,14.327 49.674,0 32,0 M32,2 C48.542,2 62,15.458 62,32 C62,48.542 48.542,62 32,62 C15.458,62 2,48.542 2,32 C2,15.458 15.458,2 32,2" id="Fill-1" fill="#000000"></path>
                    <polyline id="Stroke-3" stroke="#000000" stroke-width="2" stroke-linecap="round" stroke-linejoin="round" points="6.8857 14.5396 6.8857 23.5396 12.4397 29.0926 19.4937 29.0926 12.1177 36.4686 16.7547 42.1046 16.7547 52.4976 21.2707 57.0136 25.3017 52.9826 25.3017 42.5436 31.1147 34.7326 26.7327 30.3516 19.4937 29.0926 19.4937 23.5396 22.9297 20.1036 25.8337 23.0076 30.4737 18.3686 30.4737 8.3576 24.1027 1.9866"></polyline>
                    <polyline id="Stroke-5" stroke="#000000" stroke-width="2" stroke-linecap="round" stroke-linejoin="round" points="48.0049 6 42.8259 11.179 42.8259 17.942 39.9999 20.768 44.4419 25.209 53.8369 25.209 62.2669 33.638"></polyline>
                </g>
            </g>
        </g>
    </g>
</svg>