<svg width="96px" height="96px" viewBox="0 0 96 96" version="1.1" xmlns="http://www.w3.org/2000/svg" xmlns:xlink="http://www.w3.org/1999/xlink">
    <g id="Page-1" stroke="none" stroke-width="1" fill="none" fill-rule="evenodd">
        <g id="fluence-web-19-Frederike-Hovers" transform="translate(-976.000000, -2480.000000)">
            <g id="Group-11" transform="translate(976.000000, 2480.000000)">
                <circle id="Oval-3" fill="#2E72FE" cx="48" cy="48" r="48"></circle>
                <g id="Page-1" transform="translate(16.000000, 20.000000)">
                    <path d="M45.9995,4 L17.9995,4 L3.9995,28 L17.9995,52 L45.9995,52 L59.9995,28 L45.9995,4 Z M44.8515,6 L57.6845,28 L44.8515,50 L19.1475,50 L6.3145,28 L19.1475,6 L44.8515,6 Z" id="Fill-1" fill="#000000"></path>
                    <g id="Group-27">
                        <path d="M18.9995,11 C16.2425,11 13.9995,8.757 13.9995,6 C13.9995,3.243 16.2425,1 18.9995,1 C21.7565,1 23.9995,3.243 23.9995,6 C23.9995,8.757 21.7565,11 18.9995,11" id="Fill-2" fill="#2E72FE"></path>
                        <path d="M18.9995,0 C15.6865,0 12.9995,2.687 12.9995,6 C12.9995,9.313 15.6865,12 18.9995,12 C22.3135,12 24.9995,9.313 24.9995,6 C24.9995,2.687 22.3135,0 18.9995,0 M18.9995,2 C21.2055,2 22.9995,3.794 22.9995,6 C22.9995,8.206 21.2055,10 18.9995,10 C16.7945,10 14.9995,8.206 14.9995,6 C14.9995,3.794 16.7945,2 18.9995,2" id="Fill-4" fill="#000000"></path>
                        <path d="M44.9995,11 C42.2425,11 39.9995,8.757 39.9995,6 C39.9995,3.243 42.2425,1 44.9995,1 C47.7565,1 49.9995,3.243 49.9995,6 C49.9995,8.757 47.7565,11 44.9995,11" id="Fill-6" fill="#2E72FE"></path>
                        <path d="M44.9995,0 C41.6865,0 38.9995,2.687 38.9995,6 C38.9995,9.313 41.6865,12 44.9995,12 C48.3135,12 50.9995,9.313 50.9995,6 C50.9995,2.687 48.3135,0 44.9995,0 M44.9995,2 C47.2055,2 48.9995,3.794 48.9995,6 C48.9995,8.206 47.2055,10 44.9995,10 C42.7945,10 40.9995,8.206 40.9995,6 C40.9995,3.794 42.7945,2 44.9995,2" id="Fill-8" fill="#000000"></path>
                        <path d="M57.9995,33 C55.2425,33 52.9995,30.757 52.9995,28 C52.9995,25.243 55.2425,23 57.9995,23 C60.7565,23 62.9995,25.243 62.9995,28 C62.9995,30.757 60.7565,33 57.9995,33" id="Fill-10" fill="#2E72FE"></path>
                        <path d="M57.9995,22 C54.6865,22 51.9995,24.687 51.9995,28 C51.9995,31.313 54.6865,34 57.9995,34 C61.3135,34 63.9995,31.313 63.9995,28 C63.9995,24.687 61.3135,22 57.9995,22 M57.9995,24 C60.2055,24 61.9995,25.794 61.9995,28 C61.9995,30.206 60.2055,32 57.9995,32 C55.7945,32 53.9995,30.206 53.9995,28 C53.9995,25.794 55.7945,24 57.9995,24" id="Fill-12" fill="#000000"></path>
                        <path d="M44.9995,56 C42.2425,56 39.9995,53.757 39.9995,51 C39.9995,48.243 42.2425,46 44.9995,46 C47.7565,46 49.9995,48.243 49.9995,51 C49.9995,53.757 47.7565,56 44.9995,56" id="Fill-14" fill="#2E72FE"></path>
                        <path d="M44.9995,45 C41.6865,45 38.9995,47.687 38.9995,51 C38.9995,54.313 41.6865,57 44.9995,57 C48.3135,57 50.9995,54.313 50.9995,51 C50.9995,47.687 48.3135,45 44.9995,45 M44.9995,47 C47.2055,47 48.9995,48.794 48.9995,51 C48.9995,53.206 47.2055,55 44.9995,55 C42.7945,55 40.9995,53.206 40.9995,51 C40.9995,48.794 42.7945,47 44.9995,47" id="Fill-16" fill="#000000"></path>
                        <path d="M18.9995,56 C16.2425,56 13.9995,53.757 13.9995,51 C13.9995,48.243 16.2425,46 18.9995,46 C21.7565,46 23.9995,48.243 23.9995,51 C23.9995,53.757 21.7565,56 18.9995,56" id="Fill-18" fill="#2E72FE"></path>
                        <path d="M18.9995,45 C15.6865,45 12.9995,47.687 12.9995,51 C12.9995,54.313 15.6865,57 18.9995,57 C22.3135,57 24.9995,54.313 24.9995,51 C24.9995,47.687 22.3135,45 18.9995,45 M18.9995,47 C21.2055,47 22.9995,48.794 22.9995,51 C22.9995,53.206 21.2055,55 18.9995,55 C16.7945,55 14.9995,53.206 14.9995,51 C14.9995,48.794 16.7945,47 18.9995,47" id="Fill-20" fill="#000000"></path>
                        <path d="M5.9995,33 C3.2425,33 0.9995,30.757 0.9995,28 C0.9995,25.243 3.2425,23 5.9995,23 C8.7565,23 10.9995,25.243 10.9995,28 C10.9995,30.757 8.7565,33 5.9995,33" id="Fill-22" fill="#2E72FE"></path>
                        <path d="M5.9995,22 C2.6865,22 -0.0005,24.687 -0.0005,28 C-0.0005,31.313 2.6865,34 5.9995,34 C9.3135,34 11.9995,31.313 11.9995,28 C11.9995,24.687 9.3135,22 5.9995,22 M5.9995,24 C8.2055,24 9.9995,25.794 9.9995,28 C9.9995,30.206 8.2055,32 5.9995,32 C3.7945,32 1.9995,30.206 1.9995,28 C1.9995,25.794 3.7945,24 5.9995,24" id="Fill-24" fill="#000000"></path>
                        <g id="Group-26" transform="translate(0.000000, 22.000000)"></g>
                    </g>
                </g>
            </g>
        </g>
    </g>
</svg>