<svg width="208px" height="331px" viewBox="0 0 208 331" version="1.1" xmlns="http://www.w3.org/2000/svg" xmlns:xlink="http://www.w3.org/1999/xlink">
    <g id="Page-1" stroke="none" stroke-width="1" fill="none" fill-rule="evenodd" opacity="0.2">
        <g id="fluence-web-19-Frederike" transform="translate(-993.000000, -1085.000000)">
            <g id="FR" transform="translate(994.000000, 1085.000000)">
                <path d="M83,78.42 C92.0092965,90.7324872 90.3624112,107.842035 79.17,118.21 L61.51,96.43 L83,78.42 Z M83.3,75.56 L58.72,96.16 L78.9,121.07 C85.581282,115.659325 89.8086125,107.791207 90.6322408,99.2333699 C91.4558692,90.675533 88.8067289,82.1456059 83.28,75.56 L83.3,75.56 Z" id="Shape" fill="#FFFFFF" fill-rule="nonzero"></path>
                <path d="M50.71,66.11 C58.8980003,66.1009775 66.7339053,69.4390947 72.4,75.35 L49.4,94.63 L47.87,95.92 L49.16,97.45 L68.43,120.45 C57.9061984,128.115059 43.643462,128.131379 33.102147,120.490423 C22.5608321,112.849466 18.138989,99.2894804 22.1495348,86.9032358 C26.1600806,74.5169912 37.6906535,66.1222427 50.71,66.11 Z M50.71,64.11 C36.5523553,64.1137658 24.0744325,73.4062353 20.0145624,86.969287 C15.9546923,100.532339 21.2748176,115.152353 33.1019629,122.934226 C44.9291083,130.716099 60.4609585,129.816 71.31,120.72 L50.71,96.16 L75.26,75.56 C69.169316,68.3048844 60.1827568,64.1135972 50.71,64.11 Z" id="Shape" fill="#FFFFFF" fill-rule="nonzero"></path>
                <path d="M126.95,2.07 C140.344989,2.97218519 151.516452,12.6501018 154.318729,25.7797211 C157.121006,38.9093405 150.87415,52.3048787 139.014689,58.5971641 C127.155228,64.8894496 112.560755,62.5517157 103.26,52.87 L126.26,33.59 L126.97,32.99 L126.97,2.07 L126.95,2.07 Z M124.97,3.55271368e-15 L124.97,32.05 L100.42,52.65 C109.968964,64.0312681 126.087703,67.3582849 139.362625,60.6880212 C152.637546,54.0177575 159.588305,39.098986 156.155551,24.6445001 C152.722796,10.1900141 139.806509,-0.0105892992 124.95,3.55271368e-15 L124.97,3.55271368e-15 Z" id="Shape" fill="#FFFFFF" fill-rule="nonzero"></path>
                <path d="M117.37,159.13 C111.115179,157.704361 104.562089,159.507103 99.9165745,163.931403 C95.2710597,168.355703 93.1509884,174.813114 94.27,181.13 L180.42,181.13 C180.971775,176.790079 179.270575,172.468668 175.908389,169.669547 C172.546203,166.870426 167.988016,165.980708 163.82,167.31 C161.158436,155.766232 150.926853,147.554559 139.08065,147.454671 C127.234447,147.354784 116.865846,155.392755 114.01,166.89" id="Shape" stroke="#FFFFFF" stroke-width="2" stroke-linecap="round"></path>
                <path d="M94.27,181.1 L75.04,181.1" id="Shape" stroke="#FFFFFF" stroke-width="2" stroke-linecap="round"></path>
                <path d="M96,296.61 C105.481842,294.48644 115.397803,297.238964 122.428368,303.946123 C129.458934,310.653283 132.675022,320.428733 131,330 L0.17,330 C-0.665176813,323.407043 1.92009766,316.843467 7.02708295,312.591021 C12.1340682,308.338574 19.0573009,306.984679 25.39,309 C29.4418014,291.4695 44.9846059,279.003364 62.9766347,278.853569 C80.9686635,278.703774 96.7168757,290.909393 101.06,308.37" id="Shape" stroke="#FFFFFF" stroke-width="2" stroke-linecap="round"></path>
                <path d="M131.05,330 L160.27,330" id="Shape" stroke="#FFFFFF" stroke-width="2" stroke-linecap="round"></path>
                <path d="M135.65,80.53 C140.026281,80.53 143.971646,83.1662084 145.646377,87.2093653 C147.321107,91.2525222 146.395394,95.9063971 143.300895,99.0008954 C140.206397,102.095394 135.552522,103.021107 131.509365,101.346377 C127.466208,99.6716461 124.83,95.7262815 124.83,91.35 C124.835513,85.3765641 129.676564,80.5355131 135.65,80.53 Z M135.65,78.53 C130.464794,78.53 125.790157,81.6534927 123.805864,86.4439984 C121.821572,91.2345041 122.918397,96.7486146 126.584891,100.415109 C130.251385,104.081603 135.765496,105.178428 140.556002,103.194136 C145.346507,101.209843 148.47,96.535206 148.47,91.35 C148.47,84.2697095 142.73029,78.53 135.65,78.53 Z" id="Shape" fill="#FFFFFF" fill-rule="nonzero"></path>
                <path d="M135.65,102.57 L135.65,115.39" id="Shape" stroke="#FFFFFF" stroke-width="2"></path>
                <path d="M135.65,134.63 L135.65,149.05" id="Shape" stroke="#FFFFFF" stroke-width="2"></path>
                <path d="M84.37,208.75 C88.7462815,208.75 92.6916461,211.386208 94.3663765,215.429365 C96.041107,219.472522 95.1153937,224.126397 92.0208954,227.220895 C88.9263971,230.315394 84.2725222,231.241107 80.2293653,229.566377 C76.1862084,227.891646 73.55,223.946281 73.55,219.57 C73.5555131,213.596564 78.3965641,208.755513 84.37,208.75 Z M84.37,206.75 C77.2897095,206.75 71.55,212.48971 71.55,219.57 C71.55,226.65029 77.2897095,232.39 84.37,232.39 C91.4502905,232.39 97.19,226.65029 97.19,219.57 C97.19,212.48971 91.4502905,206.75 84.37,206.75 Z" id="Shape" fill="#FFFFFF" fill-rule="nonzero"></path>
                <path d="M84.37,208.35 L84.37,182.71" id="Shape" stroke="#FFFFFF" stroke-width="2"></path>
                <path d="M135.65,202.34 C140.026281,202.34 143.971646,204.976208 145.646377,209.019365 C147.321107,213.062522 146.395394,217.716397 143.300895,220.810895 C140.206397,223.905394 135.552522,224.831107 131.509365,223.156377 C127.466208,221.481646 124.83,217.536281 124.83,213.16 C124.835513,207.186564 129.676564,202.345513 135.65,202.34 Z M135.65,200.34 C130.464794,200.34 125.790157,203.463493 123.805864,208.253998 C121.821572,213.044504 122.918397,218.558615 126.584891,222.225109 C130.251385,225.891603 135.765496,226.988428 140.556002,225.004136 C145.346507,223.019843 148.47,218.345206 148.47,213.16 C148.47,206.07971 142.73029,200.34 135.65,200.34 Z" id="Shape" fill="#FFFFFF" fill-rule="nonzero"></path>
                <path d="M135.65,201.94 L135.65,182.71" id="Shape" stroke="#FFFFFF" stroke-width="2"></path>
                <path d="M162.9,232.79 C168.875721,232.79 173.72,237.634279 173.72,243.61 C173.72,249.585721 168.875721,254.43 162.9,254.43 C156.924279,254.43 152.08,249.585721 152.08,243.61 C152.085513,237.636564 156.926564,232.795513 162.9,232.79 Z M162.9,230.79 C155.81971,230.79 150.08,236.52971 150.08,243.61 C150.08,250.69029 155.81971,256.43 162.9,256.43 C169.98029,256.43 175.72,250.69029 175.72,243.61 C175.72,236.52971 169.98029,230.79 162.9,230.79 Z" id="Shape" fill="#FFFFFF" fill-rule="nonzero"></path>
                <path d="M162.9,232.39 L162.9,182.71" id="Shape" stroke="#FFFFFF" stroke-width="2"></path>
                <path d="M110,242.4 C116.968884,242.4 123.251568,246.597955 125.918444,253.036364 C128.585321,259.474774 127.111195,266.885704 122.18345,271.81345 C117.255704,276.741195 109.844774,278.215321 103.406364,275.548444 C96.9679547,272.881568 92.77,266.598884 92.77,259.63 C92.7810212,250.118703 100.488703,242.411021 110,242.4 Z M110,240.4 C99.3795643,240.4 90.77,249.009564 90.77,259.63 C90.77,270.250436 99.3795643,278.86 110,278.86 C120.620436,278.86 129.23,270.250436 129.23,259.63 C129.23,249.009564 120.620436,240.4 110,240.4 Z" id="Shape" fill="#FFFFFF" fill-rule="nonzero"></path>
                <path d="M110.01,240.4 L110.01,182.71" id="Shape" stroke="#FFFFFF" stroke-width="2"></path>
                <path d="M127.64,117 L143.67,133.02" id="Shape" stroke="#FFFFFF" stroke-width="2"></path>
                <path d="M143.67,117 L127.64,133.02" id="Shape" stroke="#FFFFFF" stroke-width="2"></path>
                <path d="M143.67,83.34 L127.64,99.37" id="Shape" stroke="#FFFFFF" stroke-width="2"></path>
                <path d="M198.17,268 C201.483708,268 204.17,270.686292 204.17,274 L204.17,283.23 L140.86,283.23 L140.86,274 C140.86,270.686292 143.546292,268 146.86,268 L198.17,268 Z M198.17,266 L146.86,266 C142.441722,266 138.86,269.581722 138.86,274 L138.86,285.23 L206.17,285.23 L206.17,274 C206.17,269.581722 202.588278,266 198.17,266 Z" id="Shape" fill="#FFFFFF" fill-rule="nonzero"></path>
                <path d="M204.17,293.69 L204.17,308.92 L140.86,308.92 L140.86,293.69 L204.17,293.69 Z M206.17,291.69 L138.86,291.69 L138.86,310.92 L206.17,310.92 L206.17,291.69 Z" id="Shape" fill="#FFFFFF" fill-rule="nonzero"></path>
            </g>
        </g>
    </g>
</svg>