
<svg width="217px" height="334px" viewBox="0 0 217 334" version="1.1" xmlns="http://www.w3.org/2000/svg" xmlns:xlink="http://www.w3.org/1999/xlink">
    <g id="Page-1" stroke="none" stroke-width="1" fill="none" fill-rule="evenodd" opacity="0.2">
        <g id="fluence-web-19-Frederike" transform="translate(-405.000000, -713.000000)">
            <g id="Group-5" transform="translate(80.000000, 712.000000)">
                <g id="DC" transform="translate(324.000000, 1.000000)">
                    <path d="M141,145.14 C160.779108,145.152141 178.603136,157.078266 186.160124,175.35681 C193.717112,193.635355 189.518697,214.666326 175.522745,228.642255 C161.526793,242.618184 140.489833,246.786486 122.222126,239.203337 C103.95442,231.620189 92.0538245,213.779105 92.07,194 C92.1250132,167.016096 113.986096,145.155013 140.97,145.1 L141,145.14 Z M140.97,143.1 C112.858706,143.1 90.07,165.888706 90.07,194 C90.07,222.111294 112.858706,244.9 140.97,244.9 C169.081294,244.9 191.87,222.111294 191.87,194 C191.87,180.500481 186.507337,167.553867 176.961735,158.008265 C167.416133,148.462663 154.469519,143.1 140.97,143.1 Z" id="Shape" fill="#FFFFFF" fill-rule="nonzero"></path>
                    <path d="M141,154.69 C162.732388,154.712103 180.332054,172.347598 180.309959,194.079986 C180.287864,215.812375 162.652375,233.412047 140.919986,233.389959 C119.187598,233.367872 101.58792,215.732388 101.61,194 C101.659616,172.279039 119.278983,154.695456 141,154.69 Z M141,152.69 C124.268217,152.673822 109.175707,162.742492 102.765255,178.197554 C96.3548036,193.652616 99.8899913,211.447683 111.721154,223.278846 C123.552317,235.110009 141.347384,238.645196 156.802446,232.234745 C172.257508,225.824293 182.326178,210.731783 182.31,194 C182.287949,171.194257 163.805743,152.712051 141,152.69 Z" id="Shape" fill="#FFFFFF" fill-rule="nonzero"></path>
                    <path d="M141,170.59 C153.95105,170.61211 164.432029,181.128927 164.409932,194.079977 C164.387834,207.031027 153.871027,217.512017 140.919977,217.489932 C127.968928,217.467847 117.487927,206.95105 117.51,194 C117.543093,181.053504 128.053467,170.578925 141,170.59 Z M141,168.59 C130.699174,168.573823 121.404384,174.768579 117.454952,184.282215 C113.50552,193.795851 115.680371,204.752043 122.964164,212.035836 C130.247957,219.319629 141.204149,221.49448 150.717785,217.545048 C160.231421,213.595616 166.426177,204.300826 166.41,194 C166.387975,179.975578 155.024422,168.612025 141,168.59 Z" id="Shape" fill="#FFFFFF" fill-rule="nonzero"></path>
                    <path d="M141,2 C150.438546,2 158.09,9.65145363 158.09,19.09 C158.09,28.5285464 150.438546,36.18 141,36.18 C131.561454,36.18 123.91,28.5285464 123.91,19.09 C123.921021,9.65602245 131.566022,2.01102101 141,2 Z M141,3.03815133e-15 C133.27073,-0.0364401266 126.282249,4.59151394 123.299102,11.7219959 C120.315954,18.8524778 121.926924,27.0781451 127.379474,32.5565237 C132.832025,38.0349023 141.049988,39.6847252 148.194487,36.735307 C155.338987,33.7858888 159.999914,26.8193558 160,19.09 C160.000117,8.58193154 151.507952,0.0495403955 141,3.03815133e-15 Z" id="Shape" fill="#FFFFFF" fill-rule="nonzero"></path>
                    <path d="M91.66,54.49 C97.5791876,54.4955216 102.373678,59.2974714 102.369998,65.2166604 C102.366318,71.1358495 97.5658597,75.9318336 91.6466698,75.9299948 C85.7274799,75.928156 80.9300026,71.1291902 80.93,65.21 C80.9410213,59.2901753 85.7401676,54.4955017 91.66,54.49 Z M91.66,52.49 C84.634938,52.49 78.94,58.184938 78.94,65.21 C78.94,72.235062 84.634938,77.93 91.66,77.93 C98.685062,77.93 104.38,72.235062 104.38,65.21 C104.38,61.8364462 103.039861,58.6010645 100.654398,56.2156017 C98.2689355,53.830139 95.0335538,52.49 91.66,52.49 Z" id="Shape" fill="#FFFFFF" fill-rule="nonzero"></path>
                    <path d="M29.63,127.65 C35.5491876,127.655522 40.3436782,132.457471 40.3399979,138.37666 C40.3363177,144.29585 35.5358597,149.091834 29.6166698,149.089995 C23.6974799,149.088156 18.9000026,144.28919 18.9,138.37 C18.9110064,132.454072 23.7040725,127.661006 29.62,127.65 L29.63,127.65 Z M29.62,125.65 C22.594938,125.65 16.9,131.344938 16.9,138.37 C16.9,145.395062 22.594938,151.09 29.62,151.09 C36.645062,151.09 42.34,145.395062 42.34,138.37 C42.34,131.344938 36.645062,125.65 29.62,125.65 Z" id="Shape" fill="#FFFFFF" fill-rule="nonzero"></path>
                    <path d="M20.09,54.49 C27.0031695,54.4900012 33.2354354,58.6549288 35.8800557,65.0422519 C38.5246759,71.429575 37.0606943,78.7810727 32.1709149,83.6679909 C27.2811354,88.5549092 19.9287822,90.0145877 13.5430081,87.3662293 C7.15723398,84.7178709 2.99595485,78.4831683 3,71.57 C3.01652792,62.1399279 10.6599199,54.5010084 20.09,54.49 Z M20.09,52.49 C12.3669972,52.4859555 5.4023897,57.1356017 2.44505586,64.2699527 C-0.512277978,71.4043038 1.12034577,79.6176774 6.58133416,85.0786658 C12.0423226,90.5396542 20.2556962,92.172278 27.3900473,89.2149441 C34.5243983,86.2576103 39.1740445,79.2930028 39.17,71.57 C39.1644827,61.0346932 30.6253068,52.4955173 20.09,52.49 Z" id="Shape" fill="#FFFFFF" fill-rule="nonzero"></path>
                    <path d="M140.96,38.17 L140.96,144.73" id="Shape" stroke="#FFFFFF" stroke-width="2"></path>
                    <path d="M96.43,74.75 L121.88,147.91" id="Shape" stroke="#FFFFFF" stroke-width="2"></path>
                    <path d="M176,100.61 C181.920493,100.61 186.72,105.409507 186.72,111.33 C186.72,117.250493 181.920493,122.05 176,122.05 C170.079507,122.05 165.28,117.250493 165.28,111.33 C165.291006,105.414072 170.084072,100.621006 176,100.61 Z M176,98.61 C168.974938,98.61 163.28,104.304938 163.28,111.33 C163.28,118.355062 168.974938,124.05 176,124.05 C183.025062,124.05 188.72,118.355062 188.72,111.33 C188.72,104.304938 183.025062,98.61 176,98.61 Z" id="Shape" fill="#FFFFFF" fill-rule="nonzero"></path>
                    <path d="M171.18,120.88 L158.46,147.91" id="Shape" stroke="#FFFFFF" stroke-width="2"></path>
                    <path d="M171.18,120.88 L158.46,147.91" id="Shape" stroke="#FFFFFF" stroke-width="2"></path>
                    <path d="M191.86,283.51 C197.780493,283.51 202.58,288.309507 202.58,294.23 C202.58,300.150493 197.780493,304.95 191.86,304.95 C185.939507,304.95 181.14,300.150493 181.14,294.23 C181.151006,288.314072 185.944072,283.521006 191.86,283.51 Z M191.86,281.51 C184.834938,281.51 179.14,287.204938 179.14,294.23 C179.14,301.255062 184.834938,306.95 191.86,306.95 C198.885062,306.95 204.58,301.255062 204.58,294.23 C204.58,287.204938 198.885062,281.51 191.86,281.51 Z" id="Shape" fill="#FFFFFF" fill-rule="nonzero"></path>
                    <path d="M187.09,283.1 L158.46,238.57" id="Shape" stroke="#FFFFFF" stroke-width="2"></path>
                    <path d="M39.2,143.78 L94.58,176.08" id="Shape" stroke="#FFFFFF" stroke-width="2"></path>
                    <path d="M85.3,296.24 C91.2139719,296.245558 96.006272,301.039403 96.0099233,306.953377 C96.0135746,312.86735 91.2271975,317.667109 85.313237,317.67997 C79.3992765,317.69283 74.5920697,312.913933 74.57,307 C74.5646912,304.149843 75.692507,301.414458 77.7050603,299.396278 C79.7176136,297.378097 82.4498394,296.242649 85.3,296.24 Z M85.3,294.24 C78.2775602,294.228993 72.5747926,299.910921 72.5600908,306.933354 C72.545389,313.955787 78.2243158,319.661544 85.2467402,319.679941 C92.2691645,319.698338 97.9779082,314.022414 98,307 C98.0106237,303.622984 96.6779214,300.380351 94.2956327,297.986808 C91.913344,295.593264 88.6770286,294.245293 85.3,294.24 Z" id="Shape" fill="#FFFFFF" fill-rule="nonzero"></path>
                    <path d="M90.07,295.83 L121.88,240.16" id="Shape" stroke="#FFFFFF" stroke-width="2"></path>
                    <path d="M32.81,84.3 L105.97,157.46" id="Shape" stroke="#FFFFFF" stroke-width="2"></path>
                    <path d="M217.3,160.64 L187.09,176.54" id="Shape" stroke="#FFFFFF" stroke-width="2"></path>
                    <path d="M217.3,229.03 L187.09,213.12" id="Shape" stroke="#FFFFFF" stroke-width="2"></path>
                    <path d="M20.09,297.83 C27.0031695,297.830001 33.2354354,301.994929 35.8800557,308.382252 C38.5246759,314.769575 37.0606943,322.121073 32.1709149,327.007991 C27.2811354,331.894909 19.9287822,333.354588 13.5430081,330.706229 C7.15723398,328.057871 2.99595485,321.823168 3,314.91 C3.01102101,305.476022 10.6560224,297.831021 20.09,297.82 L20.09,297.83 Z M20.09,295.82 C12.3688157,295.82 5.40790902,300.471129 2.45313972,307.604573 C-0.501629568,314.738017 1.1316298,322.948967 6.59133155,328.408668 C12.0510333,333.86837 20.2619826,335.50163 27.3954267,332.54686 C34.5288708,329.592091 39.18,322.631184 39.18,314.91 C39.18,304.366884 30.6331159,295.82 20.09,295.82 Z" id="Shape" fill="#FFFFFF" fill-rule="nonzero"></path>
                    <path d="M32.81,302.19 L105.97,229.03" id="Shape" stroke="#FFFFFF" stroke-width="2"></path>
                </g>
            </g>
        </g>
    </g>
</svg>